<?xml version="1.0" encoding="UTF-8" standalone="no"?>
<!-- Created with Inkscape (http://www.inkscape.org/) -->

<svg
   xmlns:dc="http://purl.org/dc/elements/1.1/"
   xmlns:cc="http://creativecommons.org/ns#"
   xmlns:rdf="http://www.w3.org/1999/02/22-rdf-syntax-ns#"
   xmlns:svg="http://www.w3.org/2000/svg"
   xmlns="http://www.w3.org/2000/svg"
   xmlns:sodipodi="http://sodipodi.sourceforge.net/DTD/sodipodi-0.dtd"
   xmlns:inkscape="http://www.inkscape.org/namespaces/inkscape"
   width="89.521484"
   height="98.210938"
   id="svg2880"
   version="1.1"
   inkscape:version="0.91pre1 r13432"
   sodipodi:docname="gnusocial.svg"
   inkscape:export-filename="/home/robmyers/Desktop/social_logo_competition/gnu-social-logo.png"
   inkscape:export-xdpi="90"
   inkscape:export-ydpi="90">
  <defs
     id="defs2882">
    <inkscape:perspective
       sodipodi:type="inkscape:persp3d"
       inkscape:vp_x="0 : 526.18109 : 1"
       inkscape:vp_y="0 : 1000 : 0"
       inkscape:vp_z="744.09448 : 526.18109 : 1"
       inkscape:persp3d-origin="372.04724 : 350.78739 : 1"
       id="perspective2888" />
    <inkscape:perspective
       id="perspective2859"
       inkscape:persp3d-origin="0.5 : 0.33333333 : 1"
       inkscape:vp_z="1 : 0.5 : 1"
       inkscape:vp_y="0 : 1000 : 0"
       inkscape:vp_x="0 : 0.5 : 1"
       sodipodi:type="inkscape:persp3d" />
  </defs>
  <sodipodi:namedview
     id="base"
     pagecolor="#ffffff"
     bordercolor="#666666"
     borderopacity="1.0"
     inkscape:pageopacity="0.0"
     inkscape:pageshadow="2"
     inkscape:zoom="2.9415107"
     inkscape:cx="67.604912"
     inkscape:cy="36.855713"
     inkscape:document-units="px"
     inkscape:current-layer="g4644"
     showgrid="false"
     inkscape:window-width="1598"
     inkscape:window-height="879"
     inkscape:window-x="0"
     inkscape:window-y="19"
     inkscape:window-maximized="0"
     fit-margin-top="0"
     fit-margin-left="0"
     fit-margin-right="0"
     fit-margin-bottom="0" />
  <metadata
     id="metadata2885">
    <rdf:RDF>
      <cc:Work
         rdf:about="">
        <dc:format>image/svg+xml</dc:format>
        <dc:type
           rdf:resource="http://purl.org/dc/dcmitype/StillImage" />
        <dc:title></dc:title>
      </cc:Work>
    </rdf:RDF>
  </metadata>
  <g
     inkscape:label="Layer 1"
     inkscape:groupmode="layer"
     id="layer1"
     transform="translate(-133.39126,-280.21891)">
    <g
       transform="translate(106.33914,-525.03507)"
       style="display:inline"
       id="g4669">
      <g
         id="g4644">
        <path
           style="fill:#00dcdc;fill-opacity:1;stroke:none"
           d="m 44.561868,812.34022 c -6.121685,0 -11.050479,4.92879 -11.05048,11.05048 l 0,44.17518 c 0,6.12168 4.928795,11.0488 11.05048,11.0488 l 32.843924,0 c -0.03688,12.51756 -16.956771,17.764 -16.956771,17.764 0,0 28.607118,-0.0937 32.65507,-17.764 l 5.961443,0 c 6.121686,0 11.048806,-4.92712 11.048806,-11.0488 l 0,-44.17518 c 0,-6.12169 -4.92712,-11.05048 -11.048806,-11.05048 l -54.503666,0 z m 15.872112,8.85609 c 0.117573,-0.018 0.224963,-0.0188 0.320885,0 0.102317,0.02 0.192382,0.0616 0.265733,0.12702 1.173613,1.04674 -1.947484,2.07163 -1.696346,7.21991 0.11029,2.26103 -0.565035,4.01942 3.767057,4.01942 2.89079,0 1.69659,-2.57543 5.338057,-2.57543 2.165763,0 2.962325,1.39464 3.264002,2.52864 0.301655,-1.13402 1.099839,-2.52864 3.265674,-2.52864 3.641465,0 2.445597,2.57543 5.336386,2.57543 4.332092,0 3.656768,-1.75839 3.767057,-4.01942 0.251141,-5.14828 -2.868284,-6.17317 -1.694674,-7.21991 1.173618,-1.04674 6.21526,5.08649 6.340823,7.47228 0.131302,2.49472 0.195332,6.42768 -3.514695,8.46668 4.139821,4.08098 4.696287,9.48951 4.696287,9.48951 l -7.158077,-0.12702 c 0,0 -1.632547,-7.40777 -10.296733,-7.03106 -8.66418,0.37671 -9.793681,1.88402 -9.793681,11.05048 0,9.16646 4.01811,12.31656 10.171389,12.5563 9.66873,0.3767 8.789242,-5.02218 8.789242,-5.02218 l -4.520803,0.25069 -2.510256,-6.78037 15.444265,0 c 0,7.4085 -3.139409,18.96029 -17.830848,18.20688 -14.691441,-0.7534 -17.955971,-12.3052 -18.081539,-20.09041 -0.06892,-4.27304 0.627816,-9.09138 4.128052,-12.49947 -3.672338,-2.03704 -3.553133,-5.97068 -3.553133,-8.47003 0,-3.09015 3.992279,-7.32875 5.755876,-7.5993 z"
           id="path4639"
           inkscape:connector-curvature="0" />
      </g>
    </g>
  </g>
</svg>
