<?xml version="1.0" encoding="UTF-8" standalone="no"?>
<!-- Created with Inkscape (http://www.inkscape.org/) -->

<svg
   xmlns:dc="http://purl.org/dc/elements/1.1/"
   xmlns:cc="http://creativecommons.org/ns#"
   xmlns:rdf="http://www.w3.org/1999/02/22-rdf-syntax-ns#"
   xmlns:svg="http://www.w3.org/2000/svg"
   xmlns="http://www.w3.org/2000/svg"
   xmlns:sodipodi="http://sodipodi.sourceforge.net/DTD/sodipodi-0.dtd"
   xmlns:inkscape="http://www.inkscape.org/namespaces/inkscape"
   width="410.43637"
   height="40.050674"
   id="svg2"
   sodipodi:version="0.32"
   inkscape:version="0.91pre1 r13432"
   sodipodi:docname="goto.svg"
   inkscape:output_extension="org.inkscape.output.svg.inkscape"
   version="1.1"
   viewBox="0 0 410.43636 40.050675">
  <defs
     id="defs4" />
  <sodipodi:namedview
     id="base"
     pagecolor="#ffffff"
     bordercolor="#666666"
     borderopacity="1.0"
     inkscape:pageopacity="0.0"
     inkscape:pageshadow="2"
     inkscape:zoom="0.95703125"
     inkscape:cx="106.35288"
     inkscape:cy="-177.11752"
     inkscape:document-units="px"
     inkscape:current-layer="layer1"
     inkscape:window-width="1598"
     inkscape:window-height="879"
     inkscape:window-x="0"
     inkscape:window-y="19"
     showgrid="false"
     fit-margin-top="0"
     fit-margin-left="0"
     fit-margin-right="0"
     fit-margin-bottom="0"
     inkscape:window-maximized="0" />
  <metadata
     id="metadata7">
    <rdf:RDF>
      <cc:Work
         rdf:about="">
        <dc:format>image/svg+xml</dc:format>
        <dc:type
           rdf:resource="http://purl.org/dc/dcmitype/StillImage" />
        <dc:title></dc:title>
      </cc:Work>
    </rdf:RDF>
  </metadata>
  <g
     inkscape:label="Capa 1"
     inkscape:groupmode="layer"
     id="layer1"
     transform="translate(-243.64712,-315.19399)">
    <g
       transform="matrix(0.39089312,0,0,0.39089312,-377.62911,-14.49093)"
       id="g7826">
      <path
         d="m 1625.5774,884.1784 q 6.3166,-2.35325 11.6424,-6.9359 5.3258,-4.58265 8.9176,-10.15615 1.7339,-2.4771 2.9725,-5.57349 1.2386,-3.22024 0.9908,-6.44048 -0.3715,-3.3441 -2.9725,-5.44964 -2.6009,-2.10554 -5.8212,-1.98169 -3.3441,0 -6.5643,1.23856 -3.0964,1.23855 -6.0689,3.09638 -2.9726,1.85783 -5.6974,4.08723 -2.601,2.2294 -4.8304,4.33494 -4.8303,4.70651 -8.9175,10.15615 -3.9634,5.32578 -7.3075,11.02313 -1.6101,2.84867 -3.3441,5.94506 -1.6101,3.09639 -2.9725,6.44048 -1.2386,3.3441 -1.9817,6.81205 -0.7432,3.3441 -0.3716,6.68819 0.4954,3.96338 2.8487,5.32579 2.4771,1.36241 5.5735,1.11469 3.0964,-0.12385 6.3166,-1.36241 3.2202,-1.23855 5.4496,-2.60096 5.4497,-3.22024 10.7755,-7.43132 5.4496,-4.21109 8.9176,-9.53687 0.7431,-0.61928 1.6101,-0.61928 0.867,-0.12385 1.4862,0.37157 0.7432,0.37156 0.867,1.1147 0.2477,0.74313 -0.3715,1.73397 -0.4955,0.86699 -1.2386,1.73398 -0.7431,0.86699 -1.3624,1.61012 -2.7248,3.83952 -5.3258,7.55518 -2.6009,3.71566 -5.4496,7.30747 7.4313,-4.4588 14.8626,-8.66988 7.4314,-4.21108 15.2342,-8.42217 0.3716,-0.24771 1.6102,-0.99084 1.2385,-0.74314 2.4771,-1.23856 1.2385,-0.49542 2.1055,-0.37156 0.9909,0 0.9909,1.23855 0,0.99084 -1.1147,1.61012 -1.1147,0.49542 -1.8579,0.86699 l -5.3258,2.72482 q -5.078,2.84867 -10.0322,5.69735 -4.9543,2.97253 -10.0323,5.8212 -3.5918,1.98169 -7.0598,4.08723 -3.4679,2.10554 -6.9359,4.21109 -2.1055,2.60096 -4.3349,4.95421 -2.1056,2.47711 -4.4588,4.83037 -1.4863,1.48626 -3.2203,2.97253 -1.7339,1.48626 -3.5918,2.72481 -1.8578,1.23856 -3.9634,1.98169 -1.9816,0.86699 -4.211,0.86699 -2.1056,0 -2.1056,-2.72482 0,-1.73398 1.8579,-3.09639 1.9816,-1.36241 3.0963,-2.10554 4.0873,-3.22024 8.5461,-6.19277 4.5826,-2.84867 10.0323,-6.31663 2.4771,-2.97253 4.9542,-6.19277 2.4771,-3.22024 4.7065,-6.56433 -2.4771,1.73397 -4.8304,3.34409 -2.3532,1.73398 -4.8303,3.22024 -2.4772,1.36241 -5.5735,2.97253 -2.9726,1.61012 -6.1928,2.47711 -3.0964,0.99085 -6.1928,0.61928 -3.0964,-0.24771 -5.5735,-2.72482 -2.3532,-2.35325 -2.8487,-5.44964 -0.3715,-3.09638 0.1239,-6.44048 0.6193,-3.3441 1.8578,-6.56434 1.2386,-3.34409 2.3533,-5.8212 2.8487,-6.44049 6.5643,-12.38555 3.7157,-6.06891 8.0506,-11.64241 4.0873,-5.32578 8.9176,-10.03228 4.9542,-4.83037 10.5277,-8.66988 2.3533,-1.48627 5.0781,-2.72482 2.7248,-1.36241 5.5735,-1.85783 2.8487,-0.61928 5.6973,-0.24772 2.8487,0.37157 5.3258,2.35326 2.601,2.10554 3.468,4.83036 0.867,2.60096 0.6193,5.57349 -0.2478,2.84868 -1.4863,5.69735 -1.1147,2.84868 -2.601,5.32579 -3.4679,5.57349 -8.2983,10.40385 -4.7065,4.70651 -10.28,8.29831 -0.4954,0.37157 -1.2385,0.86699 -0.6193,0.49542 -1.4863,0.99085 -0.7431,0.37156 -1.4863,0.61927 -0.7431,0.12386 -1.4862,-0.24771 -1.3624,-0.61928 -1.2386,-1.98168 0.1239,-1.48627 1.4863,-2.10555 z m -22.1701,45.5788 q -1.1147,0.61928 -2.8487,1.61012 -1.6101,1.1147 -2.9726,2.2294 3.2203,-1.1147 6.1928,-3.46795 0.9909,-0.74314 1.9817,-1.61013 1.1147,-0.74313 2.1055,-1.61012 l -4.4587,2.84868 z"
         style="color:#000000;font-style:normal;font-variant:normal;font-weight:normal;font-stretch:normal;font-size:medium;line-height:125%;font-family:'Notera Personal Use Only';-inkscape-font-specification:'Notera Personal Use Only';text-indent:0;text-align:start;text-decoration:none;text-decoration-line:none;letter-spacing:0px;word-spacing:0px;text-transform:none;direction:ltr;block-progression:tb;writing-mode:lr-tb;baseline-shift:baseline;text-anchor:start;visibility:visible;fill:#f9005c;fill-opacity:1;fill-rule:nonzero;stroke:none;stroke-width:1px;stroke-linecap:butt;stroke-linejoin:miter;stroke-opacity:1;marker:none"
         id="path7781"
         inkscape:connector-curvature="0" />
      <path
         d="m 1671.2181,888.51334 q 2.4771,-0.99084 5.0781,-1.73397 2.7248,-0.74314 5.2019,-1.48627 1.6101,-0.86699 3.5918,-1.36241 1.9817,-0.49542 3.5918,0.49542 0.9909,0.74314 0.7431,1.98169 0.867,-0.12385 1.734,0.49542 1.6101,1.61012 1.1147,3.83952 -0.4954,2.2294 -1.8578,4.33494 0.4954,0.61928 1.4863,1.23855 1.9816,1.23856 4.3349,1.1147 2.3532,-0.12385 4.4588,-0.74313 0.6193,-0.12385 1.8578,-0.74313 1.2386,-0.61928 2.4771,-1.1147 1.3624,-0.61928 2.4771,-0.74313 1.1147,-0.24771 1.4863,0.49542 0.4954,0.99084 -0.1239,1.73397 -0.6192,0.61928 -1.7339,1.1147 -0.9909,0.37157 -2.1056,0.74314 -1.1147,0.37156 -1.4862,0.49542 -1.8579,0.61927 -3.9634,0.99084 -1.9817,0.37157 -3.9634,0.37157 -1.9817,0 -3.8395,-0.49542 -1.8578,-0.61928 -3.2202,-1.98169 l -2.7249,2.84867 q -1.4862,1.36241 -3.3441,2.72482 -1.8578,1.36241 -3.9633,2.2294 -1.9817,0.99084 -4.2111,1.23855 -2.2294,0.24772 -4.2111,-0.61927 -2.4771,-1.1147 -2.9725,-2.84868 -0.3716,-1.85783 0.3715,-3.83952 0.7432,-1.98168 2.1056,-3.83951 1.3624,-1.85783 2.6009,-3.09639 l 2.3533,-2.35325 q -2.8487,0.99084 -5.5735,2.2294 -2.7248,1.23855 -5.4496,2.60096 -0.4955,0.24771 -1.2386,0.74313 -0.7431,0.37157 -1.4863,0.74313 -0.7431,0.37157 -1.4862,0.61928 -0.6193,0.12386 -1.1147,-0.24771 -0.867,-0.49542 -0.7432,-1.36241 0.1239,-0.86699 0.867,-1.23855 l 12.881,-5.5735 z m 4.2111,4.33494 q -0.4954,0.49542 -1.8578,1.85783 -1.2386,1.36241 -2.2294,2.84868 -0.9909,1.48626 -1.2386,2.84867 -0.1239,1.23856 1.6101,1.48627 3.2203,0.49542 6.0689,-0.24771 2.9726,-0.74313 5.3258,-2.84868 0.9909,-0.99084 1.8579,-1.85783 0.8669,-0.86699 1.4862,-1.98169 -0.6193,-1.61012 -0.7431,-3.46795 0,-1.85783 0.9908,-3.22024 -3.4679,0.24771 -6.3166,1.48627 -2.7248,1.23855 -4.9542,3.09638 z"
         style="color:#000000;font-style:normal;font-variant:normal;font-weight:normal;font-stretch:normal;font-size:medium;line-height:125%;font-family:'Notera Personal Use Only';-inkscape-font-specification:'Notera Personal Use Only';text-indent:0;text-align:start;text-decoration:none;text-decoration-line:none;letter-spacing:0px;word-spacing:0px;text-transform:none;direction:ltr;block-progression:tb;writing-mode:lr-tb;baseline-shift:baseline;text-anchor:start;visibility:visible;fill:#f9005c;fill-opacity:1;fill-rule:nonzero;stroke:none;stroke-width:1px;stroke-linecap:butt;stroke-linejoin:miter;stroke-opacity:1;marker:none"
         id="path7783"
         inkscape:connector-curvature="0" />
      <path
         d="m 1754.5109,878.85262 q 2.2294,0.12386 4.4588,0.12386 2.2294,-0.12386 4.4588,-0.37157 3.4679,-5.32578 7.4313,-11.02313 4.0872,-5.82121 9.1653,-9.78458 0.9908,-0.61928 1.9817,-1.23856 1.1147,-0.61927 2.2294,-0.74313 1.2385,0 1.8578,0.99084 0.6193,0.99085 0.2477,2.10555 -0.6193,2.47711 -2.7248,4.83036 -2.1056,2.2294 -3.5918,4.08723 -1.8578,2.47711 -3.9634,4.83036 -1.9817,2.35325 -4.0872,4.58265 l 7.3074,-1.73398 12.2617,-3.71566 q 0.867,-0.37157 1.734,-0.49542 0.9909,-0.24771 1.734,0.74313 0.7431,0.99085 0.3716,2.10554 -0.3716,0.99085 -1.3625,1.36241 -5.6973,1.98169 -11.8901,3.09639 -6.1927,1.1147 -12.1378,1.85783 l -1.734,0.37157 q -1.4862,1.36241 -3.0964,2.72482 -1.6101,1.36241 -3.3441,2.72482 -0.867,1.23855 -1.4862,2.60096 -0.6193,1.23855 -1.2386,2.60096 -0.2477,0.37157 -0.7431,1.85783 -0.4954,1.48627 -0.9909,3.09639 -0.3715,1.48627 -0.6192,2.84867 -0.2477,1.23856 0.1238,1.23856 2.601,0.61928 5.5735,-0.24771 3.0964,-0.99085 5.3258,-1.61012 2.8487,-0.99085 5.6973,-1.98169 2.8487,-0.99084 5.6974,-2.2294 0.7431,-0.24771 1.8578,-0.37156 1.2386,-0.12386 1.1147,1.48626 -0.1238,1.1147 -1.6101,1.61012 -1.3624,0.37157 -2.2294,0.74314 l -8.7937,3.22024 q -1.4863,0.61927 -4.2111,1.73397 -2.601,1.1147 -5.3258,1.85783 -2.601,0.61928 -4.8304,0.12386 -2.1055,-0.49542 -2.6009,-3.3441 -0.2477,-2.84867 0.9908,-5.57349 1.3624,-2.84868 3.0964,-6.06892 -5.6973,3.83952 -11.8901,6.81205 -0.7431,0.37157 -1.2386,0.12386 -0.4954,-0.24771 -0.7431,-0.74314 -0.2477,-0.49542 0,-0.99084 0.1239,-0.61928 0.7431,-0.99084 4.335,-1.98169 8.2983,-4.33494 4.0873,-2.35326 7.9268,-5.20193 l 1.734,-2.97253 q -1.8579,0.12385 -4.0873,0.49542 -2.2294,0.37157 -3.5918,-0.37157 -0.9908,-0.61927 -0.7431,-1.73397 0.3716,-1.1147 1.4863,-1.1147 z m 22.4178,-11.76627 q 0.6193,-0.86698 1.1147,-1.85783 0.6193,-0.99084 1.2385,-1.98168 -1.2385,1.23855 -2.3532,2.47711 -0.9908,1.23855 -1.734,1.98168 -2.2294,2.47711 -4.3349,5.07807 -2.1056,2.47711 -3.8395,5.32579 5.5735,-5.07807 9.9084,-11.02314 z"
         style="color:#000000;font-style:normal;font-variant:normal;font-weight:normal;font-stretch:normal;font-size:medium;line-height:125%;font-family:'Notera Personal Use Only';-inkscape-font-specification:'Notera Personal Use Only';text-indent:0;text-align:start;text-decoration:none;text-decoration-line:none;letter-spacing:0px;word-spacing:0px;text-transform:none;direction:ltr;block-progression:tb;writing-mode:lr-tb;baseline-shift:baseline;text-anchor:start;visibility:visible;fill:#f9005c;fill-opacity:1;fill-rule:nonzero;stroke:none;stroke-width:1px;stroke-linecap:butt;stroke-linejoin:miter;stroke-opacity:1;marker:none"
         id="path7785"
         inkscape:connector-curvature="0" />
      <path
         d="m 1793.3802,888.51334 q 2.4771,-0.99084 5.0781,-1.73397 2.7248,-0.74314 5.2019,-1.48627 1.6101,-0.86699 3.5918,-1.36241 1.9817,-0.49542 3.5918,0.49542 0.9908,0.74314 0.7431,1.98169 0.867,-0.12385 1.734,0.49542 1.6101,1.61012 1.1147,3.83952 -0.4954,2.2294 -1.8578,4.33494 0.4954,0.61928 1.4862,1.23855 1.9817,1.23856 4.335,1.1147 2.3532,-0.12385 4.4588,-0.74313 0.6193,-0.12385 1.8578,-0.74313 1.2386,-0.61928 2.4771,-1.1147 1.3624,-0.61928 2.4771,-0.74313 1.1147,-0.24771 1.4863,0.49542 0.4954,0.99084 -0.1239,1.73397 -0.6192,0.61928 -1.7339,1.1147 -0.9909,0.37157 -2.1056,0.74314 -1.1147,0.37156 -1.4862,0.49542 -1.8579,0.61927 -3.9634,0.99084 -1.9817,0.37157 -3.9634,0.37157 -1.9817,0 -3.8395,-0.49542 -1.8578,-0.61928 -3.2203,-1.98169 l -2.7248,2.84867 q -1.4862,1.36241 -3.3441,2.72482 -1.8578,1.36241 -3.9633,2.2294 -1.9817,0.99084 -4.2111,1.23855 -2.2294,0.24772 -4.2111,-0.61927 -2.4771,-1.1147 -2.9725,-2.84868 -0.3716,-1.85783 0.3715,-3.83952 0.7432,-1.98168 2.1056,-3.83951 1.3624,-1.85783 2.6009,-3.09639 l 2.3533,-2.35325 q -2.8487,0.99084 -5.5735,2.2294 -2.7248,1.23855 -5.4497,2.60096 -0.4954,0.24771 -1.2385,0.74313 -0.7431,0.37157 -1.4863,0.74313 -0.7431,0.37157 -1.4862,0.61928 -0.6193,0.12386 -1.1147,-0.24771 -0.867,-0.49542 -0.7432,-1.36241 0.1239,-0.86699 0.867,-1.23855 l 12.881,-5.5735 z m 4.2111,4.33494 q -0.4955,0.49542 -1.8579,1.85783 -1.2385,1.36241 -2.2294,2.84868 -0.9908,1.48626 -1.2385,2.84867 -0.1239,1.23856 1.6101,1.48627 3.2202,0.49542 6.0689,-0.24771 2.9726,-0.74313 5.3258,-2.84868 0.9908,-0.99084 1.8578,-1.85783 0.867,-0.86699 1.4863,-1.98169 -0.6193,-1.61012 -0.7431,-3.46795 0,-1.85783 0.9908,-3.22024 -3.4679,0.24771 -6.3166,1.48627 -2.7248,1.23855 -4.9542,3.09638 z"
         style="color:#000000;font-style:normal;font-variant:normal;font-weight:normal;font-stretch:normal;font-size:medium;line-height:125%;font-family:'Notera Personal Use Only';-inkscape-font-specification:'Notera Personal Use Only';text-indent:0;text-align:start;text-decoration:none;text-decoration-line:none;letter-spacing:0px;word-spacing:0px;text-transform:none;direction:ltr;block-progression:tb;writing-mode:lr-tb;baseline-shift:baseline;text-anchor:start;visibility:visible;fill:#f9005c;fill-opacity:1;fill-rule:nonzero;stroke:none;stroke-width:1px;stroke-linecap:butt;stroke-linejoin:miter;stroke-opacity:1;marker:none"
         id="path7787"
         inkscape:connector-curvature="0" />
      <path
         d="m 1865.4021,894.21069 q 2.8487,-1.61012 5.6973,-2.97253 2.8487,-1.36241 5.6974,-2.72482 0.867,-0.37156 2.3533,-1.1147 1.6101,-0.86698 3.344,-1.61012 1.734,-0.74313 3.3441,-1.1147 1.6102,-0.37156 2.601,0.12386 1.1147,0.74313 0.9909,1.73398 0,0.99084 -0.7432,2.10554 -0.6193,1.1147 -1.4862,2.10554 -0.867,0.99084 -1.2386,1.61012 -0.6193,0.99084 -1.2386,2.10554 -0.4954,1.1147 -1.1147,2.2294 2.8487,-2.2294 4.9543,-3.83952 2.2294,-1.73397 3.9633,-2.97253 1.734,-1.23855 3.2203,-2.10554 1.6101,-0.86699 3.2202,-1.48626 1.8579,-0.74314 3.5918,0 1.734,0.61927 1.2386,3.09638 -0.2477,1.73398 -0.867,3.3441 -0.6193,1.48626 -1.4863,2.97253 2.7248,-1.61012 5.4497,-3.22024 2.7248,-1.73398 5.5735,-3.46796 2.3532,-1.48626 4.9542,-3.09638 2.7248,-1.61012 5.5735,-1.98169 1.8578,-0.24771 2.9725,0.49542 1.1147,0.61928 1.4863,1.85784 0.3715,1.11469 0.1238,2.60096 -0.2477,1.36241 -0.9908,2.60096 -1.6101,2.60097 -3.2203,4.95422 -1.6101,2.2294 -2.9725,4.70651 1.9817,0.37156 4.5827,-0.49543 2.7248,-0.86698 4.3349,-1.61012 1.734,-0.61927 3.2202,-1.23855 1.4863,-0.74313 3.0964,-1.48627 0.4954,-0.24771 1.1147,-0.74313 0.7432,-0.49542 1.4863,-0.86699 0.867,-0.49542 1.6101,-0.61927 0.7431,-0.24771 1.3624,0 1.2386,0.61927 0.6193,1.48626 -0.6193,0.86699 -1.9817,1.73398 -1.2385,0.74313 -2.7248,1.36241 -1.3624,0.61927 -1.8578,0.86699 -1.734,0.99084 -3.468,1.73397 -1.734,0.74313 -3.4679,1.48627 -2.3533,0.99084 -5.202,2.10554 -2.8486,1.1147 -5.3258,0 -1.3624,-0.61928 -1.7339,-1.61012 -0.3716,-0.99085 -0.2477,-1.98169 0.2477,-1.1147 0.8669,-2.2294 0.7432,-1.11469 1.4863,-1.85783 0.7431,-0.86699 1.734,-1.85783 1.1147,-0.99084 1.9817,-2.10554 0.9908,-1.1147 1.4862,-2.2294 0.6193,-1.23855 0.3716,-2.60096 -1.2386,-0.61928 -3.0964,0.12385 -1.734,0.74314 -2.7248,1.23856 -3.7157,1.36241 -7.1836,3.5918 -3.468,2.2294 -6.6882,4.4588 -0.4954,0.37157 -1.734,1.48626 -1.2385,0.99085 -2.6009,1.85784 -1.3625,0.86698 -2.7249,1.11469 -1.2385,0.24772 -1.7339,-1.11469 -0.2478,-0.61928 0.1238,-1.48627 0.3716,-0.86699 0.9909,-1.73397 0.6192,-0.99085 1.2385,-1.85784 0.6193,-0.86698 0.867,-1.48626 0.2477,-0.61928 0.6193,-1.73398 0.4954,-1.1147 0.7431,-2.22939 -2.8487,0.86698 -5.3258,2.35325 -2.4771,1.36241 -4.8303,3.09638 -2.2294,1.61012 -4.4588,3.59181 -2.2294,1.85783 -4.5827,3.59181 -0.6193,0.61928 -1.4862,0.99084 -0.867,0.37157 -1.734,-0.12385 -1.1147,-0.49543 -1.2386,-1.1147 -0.1238,-0.74314 0.2477,-1.36241 0.3716,-0.74313 0.9909,-1.36241 0.6193,-0.61928 0.9908,-0.99085 3.468,-4.45879 5.5735,-9.90843 -2.7248,0.61928 -5.3258,1.73398 -2.4771,0.99084 -4.8303,1.98168 -1.734,0.86699 -3.468,1.73398 -1.734,0.74313 -3.4679,1.85783 -0.6193,0.37157 -1.2386,0.24771 -0.6193,-0.24771 -0.867,-0.61928 -0.2477,-0.49542 -0.1238,-1.11469 0,-0.61928 0.7431,-0.99085 z"
         style="color:#000000;font-style:normal;font-variant:normal;font-weight:normal;font-stretch:normal;font-size:medium;line-height:125%;font-family:'Notera Personal Use Only';-inkscape-font-specification:'Notera Personal Use Only';text-indent:0;text-align:start;text-decoration:none;text-decoration-line:none;letter-spacing:0px;word-spacing:0px;text-transform:none;direction:ltr;block-progression:tb;writing-mode:lr-tb;baseline-shift:baseline;text-anchor:start;visibility:visible;fill:#f9005c;fill-opacity:1;fill-rule:nonzero;stroke:none;stroke-width:1px;stroke-linecap:butt;stroke-linejoin:miter;stroke-opacity:1;marker:none"
         id="path7789"
         inkscape:connector-curvature="0" />
      <path
         d="m 1939.1832,894.21069 q 7.3074,-3.5918 14.2433,-7.30747 1.9817,-0.99084 4.4588,-2.72482 2.4771,-1.73397 4.7065,-2.22939 1.3625,-0.24772 2.2294,0.99084 0.867,1.23855 -0.1238,2.47711 -0.6193,1.1147 -1.8578,2.10554 -1.1147,0.86699 -1.9817,1.85783 -2.4771,2.97253 -4.0873,6.31663 -0.3715,0.61927 -0.7431,1.48626 -0.3716,0.86699 -0.6193,1.85783 -0.2477,0.86699 -0.2477,1.61012 0,0.74314 0.4954,1.1147 0.3716,0.37157 1.6102,-0.12385 1.2385,-0.61928 2.7248,-1.36241 1.4862,-0.86699 2.7248,-1.61012 1.2386,-0.86699 1.4863,-1.1147 2.6009,-1.73398 4.8303,-3.59181 2.3533,-1.85783 4.4588,-3.96337 0.4954,-0.49542 1.3624,-0.86699 0.867,-0.37157 1.6101,-0.24771 0.7432,0.12385 1.1147,0.74313 0.4955,0.49542 0.3716,1.61012 -0.3716,1.36241 -1.3624,2.84868 -0.9908,1.36241 -1.6101,2.47711 -0.9909,1.36241 -1.734,2.72481 -0.7431,1.36241 -1.6101,2.72482 l -9.6607,17.58747 q 4.211,-5.57349 9.2891,-10.40385 0.4954,-0.49542 2.2294,-2.10554 1.734,-1.61012 3.9634,-3.59181 2.2294,-1.98169 4.7065,-3.96337 2.601,-2.10555 4.8304,-3.59181 2.3532,-1.48627 3.9633,-2.10554 1.6102,-0.61928 2.1056,0.24771 0.3715,0.74313 -0.7432,1.85783 -0.9908,0.99084 -2.6009,2.10554 -1.4863,0.99084 -3.0964,1.85783 -1.6101,0.86699 -2.1055,1.23856 -2.8487,2.10554 -5.5735,4.33494 -2.601,2.35325 -5.0781,4.95421 -4.8304,4.83036 -9.1653,10.40386 -4.2111,5.69735 -7.9268,11.64241 -1.3624,2.47711 -2.7248,4.95421 -1.3624,2.47711 -2.6009,4.95422 -0.4955,0.74313 -0.867,1.61012 -0.3716,0.86699 -0.9909,1.48627 -0.9908,0.61927 -2.1055,0.24771 -1.1147,-0.37157 -1.3624,-1.48627 -0.3716,-0.99084 0.1238,-1.85783 0.6193,-0.74313 1.1147,-1.48626 1.734,-3.09639 3.3441,-6.06892 1.734,-2.97253 3.468,-6.19277 3.4679,-6.31663 6.6882,-12.5094 3.3441,-6.19277 6.5643,-12.75711 0.7431,-1.73397 1.6101,-3.34409 0.867,-1.73398 1.6101,-3.46795 l -5.2019,3.96337 q -1.1147,0.99084 -2.4771,2.2294 -1.3624,1.1147 -2.8487,1.98168 -1.4862,0.99085 -3.0964,1.36241 -1.4862,0.37157 -2.9725,-0.37156 -2.1055,-0.74314 -2.4771,-2.60097 -0.2477,-1.85783 0.3716,-4.21108 0.7431,-2.47711 2.1055,-5.07807 1.4863,-2.60097 2.9725,-4.95422 l -6.1927,2.60096 q -2.1056,0.99085 -4.2111,2.10555 -2.1055,0.99084 -4.2111,2.10554 -0.7431,0.49542 -1.6101,0.99084 -0.867,0.49542 -1.8578,0 -0.7432,-0.49542 -0.6193,-1.36241 0,-0.86699 0.867,-1.1147 z"
         style="color:#000000;font-style:normal;font-variant:normal;font-weight:normal;font-stretch:normal;font-size:medium;line-height:125%;font-family:'Notera Personal Use Only';-inkscape-font-specification:'Notera Personal Use Only';text-indent:0;text-align:start;text-decoration:none;text-decoration-line:none;letter-spacing:0px;word-spacing:0px;text-transform:none;direction:ltr;block-progression:tb;writing-mode:lr-tb;baseline-shift:baseline;text-anchor:start;visibility:visible;fill:#f9005c;fill-opacity:1;fill-rule:nonzero;stroke:none;stroke-width:1px;stroke-linecap:butt;stroke-linejoin:miter;stroke-opacity:1;marker:none"
         id="path7791"
         inkscape:connector-curvature="0" />
      <path
         d="m 2026.7586,894.08684 q 3.2203,-1.36241 6.1928,-2.97253 3.0964,-1.73398 6.3166,-3.3441 0.7432,-0.37157 2.1056,-0.99084 1.4862,-0.61928 2.7248,-0.74314 1.3624,-0.24771 1.9817,0.37157 0.7431,0.49542 0.2477,2.47711 -0.3716,1.48626 -1.4863,3.09638 -0.9908,1.61013 -1.7339,3.22025 l -3.0964,6.31662 q -0.4955,0.74313 -0.867,1.48627 -0.3716,0.74313 -0.7432,1.48626 3.7157,-4.21108 7.6791,-8.17446 3.9634,-3.96337 8.4222,-7.30747 2.6009,-1.98168 5.945,-3.71566 3.3441,-1.85783 6.6882,-1.36241 1.9817,0.37157 2.3533,1.61012 0.4954,1.23856 0,2.72482 -0.3716,1.48627 -1.2386,2.97253 -0.867,1.48627 -1.4863,2.35326 l -5.2019,6.56433 q 2.7248,-0.61927 5.3258,-1.48626 2.601,-0.86699 5.3258,-1.98169 0.4954,-0.24771 1.6101,-0.86699 1.2386,-0.74313 2.4771,-1.23855 1.2386,-0.61928 2.1055,-0.49542 0.9909,0 0.9909,1.23855 0,0.86699 -1.1147,1.61012 -0.9909,0.74313 -2.3533,1.36241 -1.3624,0.61928 -2.7248,1.1147 -1.3624,0.49542 -1.9817,0.74313 -0.7431,0.37157 -3.7156,1.36241 -2.8487,0.99085 -6.3167,2.10554 -3.3441,1.1147 -6.4404,1.98169 -2.9726,0.99084 -3.9634,1.1147 -0.867,0 -1.3624,-0.74313 -0.3716,-0.61928 -0.3716,-1.48627 0.1239,-0.86699 0.867,-1.61012 0.7431,-0.86699 2.2294,-0.99084 2.1055,0 3.7157,-1.1147 1.6101,-1.23855 3.0963,-2.72482 2.601,-2.47711 4.335,-5.44964 0.3716,-0.61928 1.1147,-1.85783 0.7431,-1.36241 0.9908,-2.47711 -1.9817,0.12386 -3.9633,0.99085 -1.8579,0.86698 -3.7157,2.10554 -1.8578,1.1147 -3.5918,2.47711 -1.6101,1.36241 -2.9725,2.4771 -3.9634,3.09639 -7.5552,6.6882 -3.468,3.5918 -6.6882,7.43132 l -3.468,3.96338 -8.2983,17.2159 q -0.7431,1.36241 -1.8578,3.83952 -1.1147,2.47711 -2.4771,4.83036 -1.4863,2.35325 -3.0964,3.83952 -1.734,1.61012 -3.7157,1.23855 -1.4862,-0.37156 -1.8578,-1.48626 -0.4954,-0.99085 -0.1239,-2.47711 0.2478,-1.36241 0.9909,-2.97253 0.7431,-1.48627 1.6101,-2.97253 0.867,-1.48627 1.6101,-2.60097 0.7432,-1.11469 1.1147,-1.61012 3.2203,-4.83036 6.8121,-9.53686 3.5918,-4.58265 7.1836,-9.04145 2.7248,-5.57349 5.0781,-11.02313 2.3532,-5.44964 4.5826,-11.02313 -2.3532,0.61927 -4.7065,1.85783 -2.2294,1.23855 -4.2111,2.10554 -0.9908,0.49542 -2.3532,1.48626 -1.2386,0.99085 -2.4771,0.74314 -1.1147,0 -1.3625,-1.1147 -0.2477,-1.23856 0.867,-1.61012 z"
         style="color:#000000;font-style:normal;font-variant:normal;font-weight:normal;font-stretch:normal;font-size:medium;line-height:125%;font-family:'Notera Personal Use Only';-inkscape-font-specification:'Notera Personal Use Only';text-indent:0;text-align:start;text-decoration:none;text-decoration-line:none;letter-spacing:0px;word-spacing:0px;text-transform:none;direction:ltr;block-progression:tb;writing-mode:lr-tb;baseline-shift:baseline;text-anchor:start;visibility:visible;fill:#f9005c;fill-opacity:1;fill-rule:nonzero;stroke:none;stroke-width:1px;stroke-linecap:butt;stroke-linejoin:miter;stroke-opacity:1;marker:none"
         id="path7793"
         inkscape:connector-curvature="0" />
      <path
         d="m 2090.1978,888.51334 q 2.4771,-0.99084 5.078,-1.73397 2.7249,-0.74314 5.202,-1.48627 1.6101,-0.86699 3.5918,-1.36241 1.9817,-0.49542 3.5918,0.49542 0.9908,0.74314 0.7431,1.98169 0.867,-0.12385 1.734,0.49542 1.6101,1.61012 1.1147,3.83952 -0.4954,2.2294 -1.8578,4.33494 0.4954,0.61928 1.4862,1.23855 1.9817,1.23856 4.335,1.1147 2.3532,-0.12385 4.4588,-0.74313 0.6192,-0.12385 1.8578,-0.74313 1.2385,-0.61928 2.4771,-1.1147 1.3624,-0.61928 2.4771,-0.74313 1.1147,-0.24771 1.4863,0.49542 0.4954,0.99084 -0.1239,1.73397 -0.6193,0.61928 -1.734,1.1147 -0.9908,0.37157 -2.1055,0.74314 -1.1147,0.37156 -1.4863,0.49542 -1.8578,0.61927 -3.9633,0.99084 -1.9817,0.37157 -3.9634,0.37157 -1.9817,0 -3.8395,-0.49542 -1.8579,-0.61928 -3.2203,-1.98169 l -2.7248,2.84867 q -1.4863,1.36241 -3.3441,2.72482 -1.8578,1.36241 -3.9634,2.2294 -1.9816,0.99084 -4.211,1.23855 -2.2294,0.24772 -4.2111,-0.61927 -2.4771,-1.1147 -2.9726,-2.84868 -0.3715,-1.85783 0.3716,-3.83952 0.7431,-1.98168 2.1055,-3.83951 1.3625,-1.85783 2.601,-3.09639 l 2.3533,-2.35325 q -2.8487,0.99084 -5.5735,2.2294 -2.7248,1.23855 -5.4497,2.60096 -0.4954,0.24771 -1.2385,0.74313 -0.7432,0.37157 -1.4863,0.74313 -0.7431,0.37157 -1.4863,0.61928 -0.6192,0.12386 -1.1147,-0.24771 -0.8669,-0.49542 -0.7431,-1.36241 0.1239,-0.86699 0.867,-1.23855 l 12.881,-5.5735 z m 4.2111,4.33494 q -0.4955,0.49542 -1.8579,1.85783 -1.2385,1.36241 -2.2294,2.84868 -0.9908,1.48626 -1.2385,2.84867 -0.1239,1.23856 1.6101,1.48627 3.2202,0.49542 6.0689,-0.24771 2.9725,-0.74313 5.3258,-2.84868 0.9908,-0.99084 1.8578,-1.85783 0.867,-0.86699 1.4863,-1.98169 -0.6193,-1.61012 -0.7431,-3.46795 0,-1.85783 0.9908,-3.22024 -3.468,0.24771 -6.3166,1.48627 -2.7249,1.23855 -4.9542,3.09638 z"
         style="color:#000000;font-style:normal;font-variant:normal;font-weight:normal;font-stretch:normal;font-size:medium;line-height:125%;font-family:'Notera Personal Use Only';-inkscape-font-specification:'Notera Personal Use Only';text-indent:0;text-align:start;text-decoration:none;text-decoration-line:none;letter-spacing:0px;word-spacing:0px;text-transform:none;direction:ltr;block-progression:tb;writing-mode:lr-tb;baseline-shift:baseline;text-anchor:start;visibility:visible;fill:#f9005c;fill-opacity:1;fill-rule:nonzero;stroke:none;stroke-width:1px;stroke-linecap:butt;stroke-linejoin:miter;stroke-opacity:1;marker:none"
         id="path7795"
         inkscape:connector-curvature="0" />
      <path
         d="m 2125.9397,894.08684 q 2.601,-1.36241 5.0781,-2.72482 2.6009,-1.36241 5.5735,-3.09639 -0.2477,-2.35325 1.3624,-4.45879 1.7339,-2.10555 4.3349,-1.98169 1.734,0.24771 2.2294,1.73398 0.4954,1.48626 -0.4954,2.84867 -0.9909,1.48627 -2.601,2.47711 0.867,0.49542 2.1056,0.49542 2.6009,0.24771 5.4496,-0.86699 2.8487,-1.23855 5.0781,-2.60096 2.2294,-0.74313 2.8487,0.49542 0.6192,1.23855 -0.4955,2.97253 -0.6192,0.99084 -1.4862,2.60096 -0.7432,1.48627 -1.3624,3.09639 -0.4955,1.61012 -0.6193,3.09639 0,1.48626 0.9908,2.35325 0.6193,0.74313 3.2203,0 2.7248,-0.74313 7.1836,-2.47711 1.4862,-0.61928 2.9725,-1.36241 1.6101,-0.86699 3.2202,-1.61012 0.3716,-0.12386 1.1147,-0.49542 0.7432,-0.49542 1.3625,-0.61928 0.7431,-0.24771 1.2385,0 0.6193,0.12386 0.6193,1.23856 0,0.61927 -0.6193,1.11469 -0.4954,0.49543 -1.2385,0.86699 -0.6193,0.37157 -1.3625,0.61928 -0.7431,0.24771 -1.1147,0.37157 l -5.2019,2.35325 q -1.3624,0.74313 -3.4679,1.85783 -1.9817,1.1147 -4.0873,1.85783 -2.1055,0.74313 -4.0872,0.74313 -1.9817,0 -3.0964,-1.61012 -0.6193,-0.86698 -0.7431,-1.85783 -0.1239,-1.1147 0,-2.10554 0.2477,-1.1147 0.4954,-2.10554 0.3716,-1.1147 0.6193,-2.10554 l 0.9908,-4.08723 q -0.6192,0.12385 -2.6009,0.61927 -1.8579,0.49543 -4.0873,0.74314 -2.2294,0.12385 -4.3349,-0.12386 -1.9817,-0.24771 -2.9725,-1.61012 0,0 -1.1147,0.61928 -0.9909,0.49542 -2.3533,1.23855 -1.3624,0.74313 -2.8487,1.61012 -1.3624,0.86699 -2.2294,1.36241 -0.7431,0.24771 -1.7339,0.99085 -0.9909,0.61927 -1.734,0.12385 -0.7431,-0.49542 -0.7431,-1.36241 0,-0.86699 0.7431,-1.23855 z"
         style="color:#000000;font-style:normal;font-variant:normal;font-weight:normal;font-stretch:normal;font-size:medium;line-height:125%;font-family:'Notera Personal Use Only';-inkscape-font-specification:'Notera Personal Use Only';text-indent:0;text-align:start;text-decoration:none;text-decoration-line:none;letter-spacing:0px;word-spacing:0px;text-transform:none;direction:ltr;block-progression:tb;writing-mode:lr-tb;baseline-shift:baseline;text-anchor:start;visibility:visible;fill:#f9005c;fill-opacity:1;fill-rule:nonzero;stroke:none;stroke-width:1px;stroke-linecap:butt;stroke-linejoin:miter;stroke-opacity:1;marker:none"
         id="path7797"
         inkscape:connector-curvature="0" />
      <path
         d="m 2183.8925,878.85262 q 2.2294,0.12386 4.4588,0.12386 2.2293,-0.12386 4.4587,-0.37157 3.468,-5.32578 7.4314,-11.02313 4.0872,-5.82121 9.1653,-9.78458 0.9908,-0.61928 1.9817,-1.23856 1.1147,-0.61927 2.2294,-0.74313 1.2385,0 1.8578,0.99084 0.6193,0.99085 0.2477,2.10555 -0.6193,2.47711 -2.7248,4.83036 -2.1056,2.2294 -3.5918,4.08723 -1.8579,2.47711 -3.9634,4.83036 -1.9817,2.35325 -4.0872,4.58265 l 7.3074,-1.73398 12.2617,-3.71566 q 0.867,-0.37157 1.734,-0.49542 0.9908,-0.24771 1.734,0.74313 0.7431,0.99085 0.3715,2.10554 -0.3715,0.99085 -1.3624,1.36241 -5.6973,1.98169 -11.8901,3.09639 -6.1928,1.1147 -12.1378,1.85783 l -1.734,0.37157 q -1.4863,1.36241 -3.0964,2.72482 -1.6101,1.36241 -3.3441,2.72482 -0.867,1.23855 -1.4862,2.60096 -0.6193,1.23855 -1.2386,2.60096 -0.2477,0.37157 -0.7431,1.85783 -0.4954,1.48627 -0.9909,3.09639 -0.3715,1.48627 -0.6192,2.84867 -0.2478,1.23856 0.1238,1.23856 2.601,0.61928 5.5735,-0.24771 3.0964,-0.99085 5.3258,-1.61012 2.8487,-0.99085 5.6973,-1.98169 2.8487,-0.99084 5.6974,-2.2294 0.7431,-0.24771 1.8578,-0.37156 1.2386,-0.12386 1.1147,1.48626 -0.1238,1.1147 -1.6101,1.61012 -1.3624,0.37157 -2.2294,0.74314 l -8.7937,3.22024 q -1.4863,0.61927 -4.2111,1.73397 -2.601,1.1147 -5.3258,1.85783 -2.601,0.61928 -4.8304,0.12386 -2.1055,-0.49542 -2.6009,-3.3441 -0.2477,-2.84867 0.9908,-5.57349 1.3624,-2.84868 3.0964,-6.06892 -5.6974,3.83952 -11.8901,6.81205 -0.7432,0.37157 -1.2386,0.12386 -0.4954,-0.24771 -0.7431,-0.74314 -0.2477,-0.49542 0,-0.99084 0.1238,-0.61928 0.7431,-0.99084 4.335,-1.98169 8.2983,-4.33494 4.0873,-2.35326 7.9268,-5.20193 l 1.734,-2.97253 q -1.8579,0.12385 -4.0873,0.49542 -2.2294,0.37157 -3.5918,-0.37157 -0.9908,-0.61927 -0.7431,-1.73397 0.3716,-1.1147 1.4863,-1.1147 z m 22.4178,-11.76627 q 0.6193,-0.86698 1.1147,-1.85783 0.6193,-0.99084 1.2385,-1.98168 -1.2385,1.23855 -2.3532,2.47711 -0.9909,1.23855 -1.734,1.98168 -2.2294,2.47711 -4.3349,5.07807 -2.1056,2.47711 -3.8395,5.32579 5.5734,-5.07807 9.9084,-11.02314 z"
         style="color:#000000;font-style:normal;font-variant:normal;font-weight:normal;font-stretch:normal;font-size:medium;line-height:125%;font-family:'Notera Personal Use Only';-inkscape-font-specification:'Notera Personal Use Only';text-indent:0;text-align:start;text-decoration:none;text-decoration-line:none;letter-spacing:0px;word-spacing:0px;text-transform:none;direction:ltr;block-progression:tb;writing-mode:lr-tb;baseline-shift:baseline;text-anchor:start;visibility:visible;fill:#f9005c;fill-opacity:1;fill-rule:nonzero;stroke:none;stroke-width:1px;stroke-linecap:butt;stroke-linejoin:miter;stroke-opacity:1;marker:none"
         id="path7799"
         inkscape:connector-curvature="0" />
      <path
         d="m 2210.1285,894.08684 q 5.4496,-2.47711 10.5277,-5.69735 5.0781,-3.22024 9.7846,-6.81205 2.3533,-4.4588 4.5826,-9.04145 2.3533,-4.58265 5.0781,-8.91759 0.9909,-1.85783 2.2294,-3.96337 1.3624,-2.2294 2.9725,-4.08723 1.734,-1.98169 3.7157,-3.22024 1.9817,-1.36241 4.4588,-1.36241 2.601,0 3.0964,1.36241 0.6193,1.36241 0,3.22024 -0.4954,1.73398 -1.6101,3.59181 -1.1147,1.73397 -1.8579,2.60096 -3.0963,4.58265 -6.812,8.66988 -3.7157,4.08723 -7.9268,7.67904 -1.3624,1.36241 -2.8486,2.60096 -1.4863,1.23856 -2.8487,2.47711 l -4.9542,9.41301 q -0.1239,3.59181 1.3624,4.95422 1.6101,1.36241 4.4588,0.99084 1.734,-0.37156 3.3441,-0.86699 1.6101,-0.61927 3.2202,-1.23855 1.1147,-0.49542 2.601,-1.48627 1.4863,-1.11469 2.7248,-1.11469 1.1147,0 1.3624,1.23855 0.3716,1.1147 -0.7431,1.61012 l -5.8212,2.72482 q -2.601,0.99084 -5.6974,1.98169 -3.0964,0.86698 -5.945,0.12385 -2.3533,-0.86699 -3.8396,-3.34409 -2.4771,4.83036 -5.2019,9.41301 -2.6009,4.7065 -5.4496,9.28915 -0.3716,0.61928 -1.4863,2.2294 -0.9908,1.61012 -2.2294,2.97253 -1.1147,1.36241 -2.3532,1.85783 -1.2386,0.49543 -2.1056,-1.11469 -0.4954,-0.86699 -0.4954,-2.10555 0,-1.23855 0.2477,-2.60096 0.2477,-1.23856 0.6193,-2.47711 0.3716,-1.23855 0.6193,-2.10554 0.867,-2.60097 2.7248,-5.82121 1.8578,-3.22024 4.3349,-6.31662 2.601,-3.09639 5.4497,-5.69735 2.9725,-2.72482 5.945,-4.21109 0.6193,-1.23855 1.1147,-2.35325 0.6193,-1.1147 1.2386,-2.2294 l -5.2019,3.59181 q -2.2294,1.36241 -4.5827,2.72482 -2.2294,1.36241 -4.5826,2.60096 -0.7432,0.37157 -1.734,0.86699 -0.9909,0.49542 -1.734,0 -0.6193,-0.49542 -0.4954,-1.36241 0,-0.86699 0.7431,-1.23855 z m 35.6704,-27.49591 q 2.8486,-3.22024 4.7065,-6.31662 0.6193,-0.86699 1.2385,-2.10555 0.6193,-1.36241 0.7432,-2.60096 -1.3624,0.49542 -2.601,1.61012 -1.1147,0.99084 -2.1055,1.98169 -2.3533,2.47711 -4.335,5.20193 -1.8578,2.72481 -3.5918,5.57349 -0.9908,1.73398 -1.9817,3.46795 -0.867,1.61012 -1.8578,3.3441 2.601,-2.35326 5.0781,-4.83036 2.4771,-2.47711 4.7065,-5.32579 z m -36.4135,50.16145 q 3.5918,-3.96337 6.5643,-8.66988 3.0964,-4.70651 5.8212,-9.53687 -4.5826,3.22024 -8.2983,8.0506 -3.5918,4.95422 -4.0872,10.15615 z"
         style="color:#000000;font-style:normal;font-variant:normal;font-weight:normal;font-stretch:normal;font-size:medium;line-height:125%;font-family:'Notera Personal Use Only';-inkscape-font-specification:'Notera Personal Use Only';text-indent:0;text-align:start;text-decoration:none;text-decoration-line:none;letter-spacing:0px;word-spacing:0px;text-transform:none;direction:ltr;block-progression:tb;writing-mode:lr-tb;baseline-shift:baseline;text-anchor:start;visibility:visible;fill:#f9005c;fill-opacity:1;fill-rule:nonzero;stroke:none;stroke-width:1px;stroke-linecap:butt;stroke-linejoin:miter;stroke-opacity:1;marker:none"
         id="path7801"
         inkscape:connector-curvature="0" />
      <path
         d="m 2256.8704,888.51334 q 2.4771,-0.99084 5.0781,-1.73397 2.7248,-0.74314 5.2019,-1.48627 1.6101,-0.86699 3.5918,-1.36241 1.9817,-0.49542 3.5918,0.49542 0.9909,0.74314 0.7432,1.98169 0.8669,-0.12385 1.7339,0.49542 1.6101,1.61012 1.1147,3.83952 -0.4954,2.2294 -1.8578,4.33494 0.4954,0.61928 1.4863,1.23855 1.9816,1.23856 4.3349,1.1147 2.3533,-0.12385 4.4588,-0.74313 0.6193,-0.12385 1.8578,-0.74313 1.2386,-0.61928 2.4771,-1.1147 1.3624,-0.61928 2.4771,-0.74313 1.1147,-0.24771 1.4863,0.49542 0.4954,0.99084 -0.1238,1.73397 -0.6193,0.61928 -1.734,1.1147 -0.9909,0.37157 -2.1056,0.74314 -1.1147,0.37156 -1.4862,0.49542 -1.8579,0.61927 -3.9634,0.99084 -1.9817,0.37157 -3.9634,0.37157 -1.9817,0 -3.8395,-0.49542 -1.8578,-0.61928 -3.2202,-1.98169 l -2.7249,2.84867 q -1.4862,1.36241 -3.3441,2.72482 -1.8578,1.36241 -3.9633,2.2294 -1.9817,0.99084 -4.2111,1.23855 -2.2294,0.24772 -4.2111,-0.61927 -2.4771,-1.1147 -2.9725,-2.84868 -0.3716,-1.85783 0.3715,-3.83952 0.7432,-1.98168 2.1056,-3.83951 1.3624,-1.85783 2.6009,-3.09639 l 2.3533,-2.35325 q -2.8487,0.99084 -5.5735,2.2294 -2.7248,1.23855 -5.4496,2.60096 -0.4955,0.24771 -1.2386,0.74313 -0.7431,0.37157 -1.4863,0.74313 -0.7431,0.37157 -1.4862,0.61928 -0.6193,0.12386 -1.1147,-0.24771 -0.867,-0.49542 -0.7431,-1.36241 0.1238,-0.86699 0.8669,-1.23855 l 12.881,-5.5735 z m 4.2111,4.33494 q -0.4954,0.49542 -1.8578,1.85783 -1.2386,1.36241 -2.2294,2.84868 -0.9909,1.48626 -1.2386,2.84867 -0.1238,1.23856 1.6101,1.48627 3.2203,0.49542 6.0689,-0.24771 2.9726,-0.74313 5.3258,-2.84868 0.9909,-0.99084 1.8579,-1.85783 0.8669,-0.86699 1.4862,-1.98169 -0.6193,-1.61012 -0.7431,-3.46795 0,-1.85783 0.9908,-3.22024 -3.4679,0.24771 -6.3166,1.48627 -2.7248,1.23855 -4.9542,3.09638 z"
         style="color:#000000;font-style:normal;font-variant:normal;font-weight:normal;font-stretch:normal;font-size:medium;line-height:125%;font-family:'Notera Personal Use Only';-inkscape-font-specification:'Notera Personal Use Only';text-indent:0;text-align:start;text-decoration:none;text-decoration-line:none;letter-spacing:0px;word-spacing:0px;text-transform:none;direction:ltr;block-progression:tb;writing-mode:lr-tb;baseline-shift:baseline;text-anchor:start;visibility:visible;fill:#f9005c;fill-opacity:1;fill-rule:nonzero;stroke:none;stroke-width:1px;stroke-linecap:butt;stroke-linejoin:miter;stroke-opacity:1;marker:none"
         id="path7803"
         inkscape:connector-curvature="0" />
      <path
         d="m 2292.6124,894.08684 q 3.8395,-1.73398 7.4313,-3.83952 3.5918,-2.10554 7.1836,-4.58265 1.734,-3.46795 3.8395,-6.68819 2.1056,-3.22025 4.0873,-6.31663 2.1055,-2.84868 4.211,-5.69735 2.1056,-2.97253 4.335,-5.82121 1.8578,-2.4771 3.9634,-4.95421 2.2293,-2.60097 5.078,-4.21109 1.3624,-0.74313 3.3441,-0.99084 1.9817,-0.37157 2.7248,1.73398 0.4955,1.36241 0,2.72481 -0.3715,1.23856 -1.2385,2.60097 -0.867,1.23855 -1.8578,2.47711 -0.9909,1.1147 -1.6102,1.98168 -4.9542,7.05976 -11.147,13.25253 -6.0689,6.06892 -13.1286,11.27085 -0.6193,1.48626 -1.4863,3.22024 -0.7431,1.61012 -1.3624,3.46795 -0.6193,1.85783 -0.867,3.71566 -0.2477,1.73398 0.1239,3.3441 1.3624,-0.24771 2.4771,-0.37157 0.9908,-0.12385 1.8578,-0.12385 0.867,-0.12386 1.1147,-0.24771 3.7157,-0.74314 7.3075,-1.98169 3.5918,-1.23855 7.0597,-2.72482 0.9909,-0.24771 2.3533,-0.99084 1.3624,-0.74313 2.3532,-0.12386 1.3624,0.99085 0.3716,1.85783 -0.9908,0.74314 -1.8578,1.1147 l -14.3673,5.32579 q -2.1055,0.74313 -4.0872,1.61012 -1.9817,0.74313 -4.0872,0.86698 -1.8578,0.24772 -2.9725,-0.49542 -1.1147,-0.86699 -1.6102,-2.10554 -0.3715,-1.36241 -0.2477,-2.84867 0.1239,-1.61012 0.4954,-2.97253 0.867,-2.97253 2.2294,-5.94506 -5.078,3.34409 -10.6515,6.06891 -1.2386,0.24771 -1.9817,-0.74313 -0.867,-1.1147 0.6193,-1.85783 z m 25.1426,-16.9682 q 5.8212,-5.44963 10.6516,-11.76626 2.2294,-2.60097 4.2111,-5.94506 0.2477,-0.61928 0.7431,-1.48627 0.4954,-0.99084 0.867,-1.98168 -1.734,0.86698 -3.3441,2.35325 -1.4863,1.48626 -2.4771,2.47711 -2.8487,2.84867 -5.3258,6.06891 -2.4771,3.09639 -4.9542,6.44049 -1.3624,1.98168 -2.601,3.96337 -1.2385,1.85783 -2.3532,3.83952 1.1147,-0.86699 2.2294,-1.85783 1.2385,-1.1147 2.3532,-2.10555 z"
         style="color:#000000;font-style:normal;font-variant:normal;font-weight:normal;font-stretch:normal;font-size:medium;line-height:125%;font-family:'Notera Personal Use Only';-inkscape-font-specification:'Notera Personal Use Only';text-indent:0;text-align:start;text-decoration:none;text-decoration-line:none;letter-spacing:0px;word-spacing:0px;text-transform:none;direction:ltr;block-progression:tb;writing-mode:lr-tb;baseline-shift:baseline;text-anchor:start;visibility:visible;fill:#f9005c;fill-opacity:1;fill-rule:nonzero;stroke:none;stroke-width:1px;stroke-linecap:butt;stroke-linejoin:miter;stroke-opacity:1;marker:none"
         id="path7805"
         inkscape:connector-curvature="0" />
      <path
         sodipodi:nodetypes="ccsccccccccccccsccccccsccccccccccccsc"
         d="m 2341.5256,888.14178 c 0.3303,-0.16514 1.0734,-0.49542 2.2294,-0.99085 1.2385,-0.49542 2.4358,-0.86699 3.5918,-1.1147 1.1559,-0.24771 2.1468,-0.24771 2.9725,0 0.8257,0.16515 1.1147,0.90828 0.867,2.2294 -0.1651,0.74313 -0.5367,1.48627 -1.1147,2.2294 -0.4955,0.74313 -0.867,1.48627 -1.1147,2.2294 -0.4955,1.07341 -0.9909,2.39454 -1.4863,3.96337 -0.4129,1.56883 -0.2477,2.84867 0.4954,3.83952 1.4037,0.16514 2.9313,0 4.5827,-0.49542 1.734,-0.49543 3.3028,-0.99085 4.7065,-1.48627 0.4129,-0.16514 1.1973,-0.57799 2.3532,-1.23855 1.156,-0.66057 2.3533,-1.27984 3.5919,-1.85783 1.3211,-0.66057 2.5183,-1.1147 3.5918,-1.36241 1.0734,-0.33028 1.7339,-0.24771 1.9816,0.24771 0.3303,0.57799 0.1239,1.19727 -0.6192,1.85783 -0.7431,0.66056 -1.6927,1.27984 -2.8487,1.85783 -1.0734,0.49542 -2.1881,0.99084 -3.3441,1.48627 -1.156,0.41285 -1.8991,0.70184 -2.2294,0.86698 -1.8165,0.90827 -3.6744,1.81655 -5.5735,2.72482 -1.8165,0.82571 -3.7156,1.4037 -5.6973,1.73398 -1.734,0.24771 -2.9313,-0.12385 -3.5918,-1.1147 -0.6606,-0.99085 -0.9909,-2.2294 -0.9909,-3.71566 0,-1.56884 0.2064,-3.22025 0.6193,-4.95422 0.4954,-1.81655 0.9908,-3.46795 1.4863,-4.95422 -1.8991,0.74313 -3.757,1.44498 -5.5735,2.10555 -1.8166,0.57799 -3.5919,1.27983 -5.3258,2.10554 -1.4863,0.66056 -2.9725,1.40369 -4.4588,2.2294 -0.9083,0.24771 -1.6101,0.0413 -2.1056,-0.61928 -0.578,-0.74313 -0.3716,-1.36241 0.6193,-1.85783 z m 14.491,-25.0188 c 0.4129,-1.07341 1.0322,-1.98169 1.8579,-2.72482 2.4075,-0.94324 5.0225,0.0429 3.0964,3.22024 -0.3303,0.82571 -0.8258,1.48627 -1.4863,1.98169 -0.8257,0.66056 -1.6927,0.66056 -2.601,0 -0.9083,-0.66056 -1.1973,-1.48626 -0.867,-2.47711 z"
         style="color:#000000;font-style:normal;font-variant:normal;font-weight:normal;font-stretch:normal;font-size:medium;line-height:125%;font-family:'Notera Personal Use Only';-inkscape-font-specification:'Notera Personal Use Only';text-indent:0;text-align:start;text-decoration:none;text-decoration-line:none;letter-spacing:0px;word-spacing:0px;text-transform:none;direction:ltr;block-progression:tb;writing-mode:lr-tb;baseline-shift:baseline;text-anchor:start;visibility:visible;fill:#f9005c;fill-opacity:1;fill-rule:nonzero;stroke:none;stroke-width:1px;stroke-linecap:butt;stroke-linejoin:miter;stroke-opacity:1;marker:none"
         id="path7807"
         inkscape:connector-curvature="0" />
      <path
         d="m 2379.7582,888.51334 q 2.4771,-0.99084 5.078,-1.73397 2.7249,-0.74314 5.202,-1.48627 1.6101,-0.86699 3.5918,-1.36241 1.9817,-0.49542 3.5918,0.49542 0.9908,0.74314 0.7431,1.98169 0.867,-0.12385 1.734,0.49542 1.6101,1.61012 1.1147,3.83952 -0.4954,2.2294 -1.8578,4.33494 0.4954,0.61928 1.4862,1.23855 1.9817,1.23856 4.335,1.1147 2.3532,-0.12385 4.4588,-0.74313 0.6192,-0.12385 1.8578,-0.74313 1.2385,-0.61928 2.4771,-1.1147 1.3624,-0.61928 2.4771,-0.74313 1.1147,-0.24771 1.4863,0.49542 0.4954,0.99084 -0.1239,1.73397 -0.6193,0.61928 -1.734,1.1147 -0.9908,0.37157 -2.1055,0.74314 -1.1147,0.37156 -1.4863,0.49542 -1.8578,0.61927 -3.9633,0.99084 -1.9817,0.37157 -3.9634,0.37157 -1.9817,0 -3.8395,-0.49542 -1.8579,-0.61928 -3.2203,-1.98169 l -2.7248,2.84867 q -1.4863,1.36241 -3.3441,2.72482 -1.8578,1.36241 -3.9634,2.2294 -1.9817,0.99084 -4.2111,1.23855 -2.2294,0.24772 -4.211,-0.61927 -2.4771,-1.1147 -2.9726,-2.84868 -0.3715,-1.85783 0.3716,-3.83952 0.7431,-1.98168 2.1055,-3.83951 1.3625,-1.85783 2.601,-3.09639 l 2.3533,-2.35325 q -2.8487,0.99084 -5.5735,2.2294 -2.7249,1.23855 -5.4497,2.60096 -0.4954,0.24771 -1.2385,0.74313 -0.7432,0.37157 -1.4863,0.74313 -0.7431,0.37157 -1.4863,0.61928 -0.6192,0.12386 -1.1147,-0.24771 -0.8669,-0.49542 -0.7431,-1.36241 0.1239,-0.86699 0.867,-1.23855 l 12.881,-5.5735 z m 4.211,4.33494 q -0.4954,0.49542 -1.8578,1.85783 -1.2385,1.36241 -2.2294,2.84868 -0.9908,1.48626 -1.2385,2.84867 -0.1239,1.23856 1.6101,1.48627 3.2202,0.49542 6.0689,-0.24771 2.9725,-0.74313 5.3258,-2.84868 0.9908,-0.99084 1.8578,-1.85783 0.867,-0.86699 1.4863,-1.98169 -0.6193,-1.61012 -0.7432,-3.46795 0,-1.85783 0.9909,-3.22024 -3.468,0.24771 -6.3166,1.48627 -2.7249,1.23855 -4.9543,3.09638 z"
         style="color:#000000;font-style:normal;font-variant:normal;font-weight:normal;font-stretch:normal;font-size:medium;line-height:125%;font-family:'Notera Personal Use Only';-inkscape-font-specification:'Notera Personal Use Only';text-indent:0;text-align:start;text-decoration:none;text-decoration-line:none;letter-spacing:0px;word-spacing:0px;text-transform:none;direction:ltr;block-progression:tb;writing-mode:lr-tb;baseline-shift:baseline;text-anchor:start;visibility:visible;fill:#f9005c;fill-opacity:1;fill-rule:nonzero;stroke:none;stroke-width:1px;stroke-linecap:butt;stroke-linejoin:miter;stroke-opacity:1;marker:none"
         id="path7809"
         inkscape:connector-curvature="0" />
      <path
         inkscape:connector-curvature="0"
         d="m 2448.945,892.18757 c 8.4447,1.33929 17.1342,1.4304 25.6924,2.18403 7.2476,0.63822 14.4657,1.44095 21.7027,2.13941 24.3504,2.31742 48.9226,2.86588 73.4547,2.84537 8.2812,-0.34673 17.0158,0.18715 25.1482,-1.37371 2.3991,-0.46047 5.3431,-1.33166 5.7222,-3.28651 -0.2021,-0.064 -0.496,-0.0537 -0.6063,-0.19195 -0.264,-0.33079 -0.229,-0.74939 -0.4275,-1.10327 -0.4924,-0.8773 -1.0076,-1.75194 -1.6402,-2.58087 -2.9705,-3.89196 -6.6985,-7.17015 -10.8491,-10.41543 -8.2337,-5.42241 -17.6649,-9.73529 -26.5657,-14.54111 -3.8426,-2.03736 -7.4607,-4.27838 -10.909,-6.65413 -0.7335,-0.50536 -1.5348,-0.97089 -2.1537,-1.5509 -0.6375,-0.59727 -1.0565,-1.30126 -1.5847,-1.95188 0.5986,-1.32749 0.5786,-2.89851 1.7956,-3.98243 4.2807,-3.81232 15.6607,2.17708 19.4347,3.91146 8.1773,4.47463 16.0731,9.21357 24.5423,13.40812 7.5317,3.73019 9.7167,4.5139 17.6472,7.86547 3.0511,1.17158 6.0738,2.38274 9.1534,3.51475 7.3342,2.69599 21.8577,5.93741 20.8174,13.86256 -0.2405,1.83159 -1.7952,3.44304 -2.6928,5.16457 -8.6295,8.08339 -18.8241,15.18762 -27.8506,23.0316 -6.3992,5.56095 -8.2138,7.55137 -14.0335,13.32657 -1.7797,2.06959 -3.5591,4.13915 -5.3387,6.20874 -1.3097,1.3982 -4.0441,0.0589 -2.7344,-1.33939 l 0,0 c 2.0222,-1.98917 4.0445,-3.97835 6.0667,-5.9675 7.2742,-6.6954 14.7412,-13.2782 21.9975,-19.98355 4.4898,-4.14895 8.4975,-7.82956 12.4386,-12.23713 1.3308,-1.48852 2.4707,-3.06199 3.706,-4.59299 0.6291,-1.2357 2.393,-3.88096 1.8363,-5.45295 -2.379,-6.71711 -17.7612,-10.34943 -24.8619,-13.63915 -14.9203,-6.00965 -29.4548,-12.50182 -44.2728,-18.6432 -2.8394,-1.03966 -4.1864,-1.60905 -7.0653,-2.40145 -1.518,-0.4178 -2.8317,-0.53233 -2.6944,-0.75063 1.7918,-2.85175 0.6368,4.17202 0.9972,-3.33007 -1.2598,0.0364 -1.2885,-0.11482 0.366,1.29077 2.9474,2.50366 6.9023,4.37539 9.9994,6.77466 8.5287,5.40961 17.5153,10.4244 26.0296,15.84508 4.6332,3.40002 8.9206,6.79816 12.7545,10.69372 2.1349,2.16918 4.6872,4.28669 4.7619,7.158 0.027,1.04646 -0.8449,2.00212 -1.2674,3.00319 -0.9797,0.71121 -1.773,1.5891 -2.9392,2.13361 -2.4923,1.1636 -6.4568,1.42794 -9.2184,1.49241 -8.5244,0.19897 -17.0596,-0.79646 -25.5711,-0.86662 -24.5527,-0.88214 -49.1132,-1.68158 -73.6368,-2.94069 -15.6919,-0.77238 -31.6317,-1.85806 -47.151,0.65917 -6.5863,0 -6.5863,-6.73575 0,-6.73575 z"
         id="path4537"
         style="color:#000000;text-decoration:none;text-decoration-line:none;text-decoration-style:solid;text-decoration-color:#000000;clip-rule:nonzero;display:inline;overflow:visible;visibility:visible;opacity:1;isolation:auto;color-interpolation:sRGB;color-interpolation-filters:linearRGB;fill:#f9005c;fill-opacity:1;fill-rule:nonzero;stroke:none;stroke-width:5;stroke-miterlimit:4;stroke-dasharray:none;marker:none;color-rendering:auto;image-rendering:auto;shape-rendering:auto;text-rendering:auto;enable-background:accumulate" />
    </g>
  </g>
</svg>
