<?xml version="1.0" encoding="UTF-8" standalone="no"?>
<!-- Created with Inkscape (http://www.inkscape.org/) -->

<svg
   xmlns:dc="http://purl.org/dc/elements/1.1/"
   xmlns:cc="http://creativecommons.org/ns#"
   xmlns:rdf="http://www.w3.org/1999/02/22-rdf-syntax-ns#"
   xmlns:svg="http://www.w3.org/2000/svg"
   xmlns="http://www.w3.org/2000/svg"
   xmlns:sodipodi="http://sodipodi.sourceforge.net/DTD/sodipodi-0.dtd"
   xmlns:inkscape="http://www.inkscape.org/namespaces/inkscape"
   width="128.44972"
   height="24.073389"
   id="svg2"
   sodipodi:version="0.32"
   inkscape:version="0.91pre1 r13432"
   sodipodi:docname="gpl.svg"
   inkscape:output_extension="org.inkscape.output.svg.inkscape"
   version="1.1"
   viewBox="0 0 128.44972 24.073389">
  <defs
     id="defs4" />
  <sodipodi:namedview
     id="base"
     pagecolor="#ffffff"
     bordercolor="#666666"
     borderopacity="1.0"
     inkscape:pageopacity="0.0"
     inkscape:pageshadow="2"
     inkscape:zoom="7.2246166"
     inkscape:cx="63.256825"
     inkscape:cy="8.6581418"
     inkscape:document-units="px"
     inkscape:current-layer="layer1"
     inkscape:window-width="1598"
     inkscape:window-height="879"
     inkscape:window-x="0"
     inkscape:window-y="19"
     showgrid="false"
     fit-margin-top="0"
     fit-margin-left="0"
     fit-margin-right="0"
     fit-margin-bottom="0"
     inkscape:window-maximized="0" />
  <metadata
     id="metadata7">
    <rdf:RDF>
      <cc:Work
         rdf:about="">
        <dc:format>image/svg+xml</dc:format>
        <dc:type
           rdf:resource="http://purl.org/dc/dcmitype/StillImage" />
        <dc:title></dc:title>
      </cc:Work>
    </rdf:RDF>
  </metadata>
  <g
     inkscape:label="Capa 1"
     inkscape:groupmode="layer"
     id="layer1"
     transform="translate(-457.14733,-483.28504)">
    <path
       style="color:#000000;font-style:normal;font-variant:normal;font-weight:normal;font-stretch:normal;font-size:medium;line-height:normal;font-family:sans-serif;text-indent:0;text-align:start;text-decoration:none;text-decoration-line:none;text-decoration-style:solid;text-decoration-color:#000000;letter-spacing:normal;word-spacing:normal;text-transform:none;direction:ltr;block-progression:tb;writing-mode:lr-tb;baseline-shift:baseline;text-anchor:start;clip-rule:nonzero;display:inline;overflow:visible;visibility:visible;opacity:1;isolation:auto;color-interpolation:sRGB;color-interpolation-filters:linearRGB;fill:#ffffff;fill-opacity:1;fill-rule:nonzero;stroke:none;stroke-width:0.24186611;stroke-linecap:butt;stroke-linejoin:miter;stroke-miterlimit:4;stroke-dasharray:none;stroke-dashoffset:0;stroke-opacity:1;color-rendering:auto;image-rendering:auto;shape-rendering:auto;text-rendering:auto;enable-background:accumulate"
       d="m 463.55807,484.1724 0,0.74105 0,21.55762 115.62824,0 0,-22.29867 z m 2.06109,1.92453 11.64366,0 c -0.99647,0.48231 -1.92018,1.11998 -2.76571,1.92635 -2.15727,2.07371 -3.23911,4.529 -3.23911,7.36309 0,2.83479 1.08184,5.26765 3.23911,7.30665 0.87796,0.83002 1.82599,1.48517 2.84036,1.97733 l -11.71831,0 z m 21.57765,0 89.92659,0 0,18.57342 -90.01217,0 c 1.04368,-0.49764 2.02515,-1.15837 2.93322,-2.00282 2.08409,-1.95269 3.1244,-4.37757 3.1244,-7.28116 0,-2.90294 -1.06034,-5.3589 -3.18084,-7.36309 -0.85243,-0.80596 -1.78524,-1.44441 -2.7912,-1.92635 z m -4.96153,0.78474 c 2.48736,0 4.60243,0.82548 6.34893,2.47622 1.74686,1.65104 2.62006,3.66043 2.62006,6.02848 -2e-5,2.38606 -0.85887,4.3657 -2.57818,5.93927 -1.81081,1.69413 -3.93986,2.53994 -6.39081,2.53994 -2.45096,0 -4.56544,-0.83728 -6.33984,-2.51445 -1.77407,-1.67637 -2.66193,-3.66557 -2.66193,-5.96476 0,-2.29984 0.89828,-4.30247 2.69106,-6.01392 1.71894,-1.65942 3.82332,-2.49078 6.31071,-2.49078 z"
       id="rect3749"
       inkscape:connector-curvature="0"
       sodipodi:nodetypes="cccccccccscccccccccsccssscscscs" />
    <path
       inkscape:connector-curvature="0"
       id="path4532"
       style="color:#000000;font-style:normal;font-variant:normal;font-weight:bold;font-stretch:semi-condensed;font-size:13.25492001px;line-height:125%;font-family:'DejaVu Sans';-inkscape-font-specification:'DejaVu Sans, Bold Semi-Condensed';text-indent:0;text-align:start;text-decoration:none;text-decoration-line:none;letter-spacing:0px;word-spacing:0px;text-transform:none;direction:ltr;block-progression:tb;writing-mode:lr-tb;baseline-shift:baseline;text-anchor:start;visibility:visible;fill:#ffffff;fill-opacity:1;fill-rule:nonzero;stroke:none;stroke-width:1px;stroke-linecap:butt;stroke-linejoin:miter;stroke-opacity:1;marker:none"
       d="m 514.48985,499.42829 q -0.84138,0.45305 -1.74748,0.67958 -0.89962,0.22652 -1.8575,0.22652 -2.17463,0 -3.44317,-1.3462 -1.26854,-1.35268 -1.26854,-3.66323 0,-2.33644 1.28796,-3.67617 1.29442,-1.33973 3.54672,-1.33973 0.86727,0 1.66334,0.18122 0.79607,0.18122 1.50154,0.53719 l 0,1.99989 q -0.73136,-0.45952 -1.44976,-0.68605 -0.71841,-0.22652 -1.44329,-0.22652 -1.33973,0 -2.06461,0.8349 -0.72487,0.82843 -0.72487,2.37527 0,1.5339 0.69899,2.3688 0.69899,0.83491 1.98694,0.83491 0.34949,0 0.64721,-0.0453 0.30419,-0.0518 0.53719,-0.15533 l 0,-1.87692 -1.36562,0 0,-1.66981 3.49495,0 0,4.64699 z" />
    <path
       inkscape:connector-curvature="0"
       id="path4534"
       style="color:#000000;font-style:normal;font-variant:normal;font-weight:bold;font-stretch:semi-condensed;font-size:13.25492001px;line-height:125%;font-family:'DejaVu Sans';-inkscape-font-specification:'DejaVu Sans, Bold Semi-Condensed';text-indent:0;text-align:start;text-decoration:none;text-decoration-line:none;letter-spacing:0px;word-spacing:0px;text-transform:none;direction:ltr;block-progression:tb;writing-mode:lr-tb;baseline-shift:baseline;text-anchor:start;visibility:visible;fill:#ffffff;fill-opacity:1;fill-rule:nonzero;stroke:none;stroke-width:1px;stroke-linecap:butt;stroke-linejoin:miter;stroke-opacity:1;marker:none"
       d="m 516.45738,490.48381 3.72147,0 q 1.66334,0 2.55002,0.82196 0.88668,0.81549 0.88668,2.32997 0,1.52095 -0.88668,2.34291 -0.88668,0.81549 -2.55002,0.81549 l -1.47564,0 0,3.35256 -2.24583,0 0,-9.66289 z m 2.24583,1.80572 0,2.69888 1.23617,0 q 0.65369,0 1.00965,-0.34949 0.35597,-0.35597 0.35597,-1.00318 0,-0.64722 -0.35597,-0.99671 -0.35596,-0.3495 -1.00965,-0.3495 l -1.23617,0 z" />
    <path
       inkscape:connector-curvature="0"
       id="path4536"
       style="color:#000000;font-style:normal;font-variant:normal;font-weight:bold;font-stretch:semi-condensed;font-size:13.25492001px;line-height:125%;font-family:'DejaVu Sans';-inkscape-font-specification:'DejaVu Sans, Bold Semi-Condensed';text-indent:0;text-align:start;text-decoration:none;text-decoration-line:none;letter-spacing:0px;word-spacing:0px;text-transform:none;direction:ltr;block-progression:tb;writing-mode:lr-tb;baseline-shift:baseline;text-anchor:start;visibility:visible;fill:#ffffff;fill-opacity:1;fill-rule:nonzero;stroke:none;stroke-width:1px;stroke-linecap:butt;stroke-linejoin:miter;stroke-opacity:1;marker:none"
       d="m 525.2077,490.48381 2.24583,0 0,7.7795 3.93505,0 0,1.88339 -6.18088,0 0,-9.66289 z" />
    <path
       inkscape:connector-curvature="0"
       id="path4538"
       style="color:#000000;font-style:normal;font-variant:normal;font-weight:bold;font-stretch:semi-condensed;font-size:13.25492001px;line-height:125%;font-family:'DejaVu Sans';-inkscape-font-specification:'DejaVu Sans, Bold Semi-Condensed';text-indent:0;text-align:start;text-decoration:none;text-decoration-line:none;letter-spacing:0px;word-spacing:0px;text-transform:none;direction:ltr;block-progression:tb;writing-mode:lr-tb;baseline-shift:baseline;text-anchor:start;visibility:visible;fill:#ffffff;fill-opacity:1;fill-rule:nonzero;stroke:none;stroke-width:1px;stroke-linecap:butt;stroke-linejoin:miter;stroke-opacity:1;marker:none"
       d="m 541.42685,494.93663 q 0.87374,0.25242 1.33326,0.88021 0.45952,0.62133 0.45952,1.58568 0,1.43681 -0.99023,2.18757 -0.99024,0.7443 -2.89305,0.7443 -0.66663,0 -1.33973,-0.12297 -0.6731,-0.1165 -1.33326,-0.35597 l 0,-1.92222 q 0.6278,0.34949 1.24913,0.53071 0.62132,0.17475 1.22323,0.17475 0.89315,0 1.36562,-0.34302 0.47246,-0.34302 0.47246,-0.98376 0,-0.66016 -0.48541,-0.99671 -0.48541,-0.34303 -1.43681,-0.34303 l -0.89315,0 0,-1.60508 0.94493,0 q 0.84137,0 1.25559,-0.29125 0.41422,-0.29772 0.41422,-0.89962 0,-0.55661 -0.40128,-0.8608 -0.40127,-0.30419 -1.13909,-0.30419 -0.54366,0 -1.09379,0.13592 -0.55013,0.13591 -1.10026,0.40127 l 0,-1.82514 q 0.66663,-0.20711 1.31384,-0.31066 0.65368,-0.10356 1.28148,-0.10356 1.6957,0 2.53708,0.62133 0.84137,0.61485 0.84137,1.8575 0,0.84785 -0.40127,1.39151 -0.40127,0.53718 -1.1844,0.75723 z" />
    <path
       inkscape:connector-curvature="0"
       id="path4541"
       style="color:#000000;font-style:normal;font-variant:normal;font-weight:bold;font-stretch:semi-condensed;font-size:11.52260208px;line-height:125%;font-family:'DejaVu Sans';-inkscape-font-specification:'DejaVu Sans, Bold Semi-Condensed';text-indent:0;text-align:start;text-decoration:none;text-decoration-line:none;letter-spacing:0px;word-spacing:0px;text-transform:none;direction:ltr;block-progression:tb;writing-mode:lr-tb;baseline-shift:baseline;text-anchor:start;visibility:visible;fill:#ffffff;fill-opacity:1;fill-rule:nonzero;stroke:none;stroke-width:1px;stroke-linecap:butt;stroke-linejoin:miter;stroke-opacity:1;marker:none"
       d="m 483.84203,494.98697 q 0.75955,0.21942 1.15901,0.76517 0.39947,0.54012 0.39947,1.37843 0,1.24904 -0.86082,1.90168 -0.86082,0.64703 -2.51495,0.64703 -0.5795,0 -1.16463,-0.1069 -0.58514,-0.10128 -1.15902,-0.30945 l 0,-1.671 q 0.54575,0.30382 1.08588,0.46135 0.54012,0.15191 1.06336,0.15191 0.77643,0 1.18714,-0.29819 0.41072,-0.29819 0.41072,-0.85519 0,-0.57388 -0.42197,-0.86645 -0.42197,-0.29819 -1.24903,-0.29819 l -0.77643,0 0,-1.39532 0.82144,0 q 0.73141,0 1.0915,-0.25318 0.36008,-0.25881 0.36008,-0.78205 0,-0.48386 -0.34883,-0.74829 -0.34883,-0.26444 -0.99023,-0.26444 -0.4726,0 -0.95084,0.11815 -0.47823,0.11815 -0.95646,0.34883 l 0,-1.58661 q 0.5795,-0.18004 1.14213,-0.27006 0.56825,-0.09 1.114,-0.09 1.47409,0 2.2055,0.54012 0.73142,0.5345 0.73142,1.61474 0,0.73705 -0.34883,1.20965 -0.34883,0.46698 -1.02961,0.65828 z" />
  </g>
</svg>
