<?xml version="1.0" encoding="UTF-8" standalone="no"?>
<!-- Created with Inkscape (http://www.inkscape.org/) -->

<svg
   xmlns:dc="http://purl.org/dc/elements/1.1/"
   xmlns:cc="http://creativecommons.org/ns#"
   xmlns:rdf="http://www.w3.org/1999/02/22-rdf-syntax-ns#"
   xmlns:svg="http://www.w3.org/2000/svg"
   xmlns="http://www.w3.org/2000/svg"
   xmlns:sodipodi="http://sodipodi.sourceforge.net/DTD/sodipodi-0.dtd"
   xmlns:inkscape="http://www.inkscape.org/namespaces/inkscape"
   width="374.18466"
   height="214.36392"
   id="svg2"
   sodipodi:version="0.32"
   inkscape:version="0.91pre1 r13432"
   sodipodi:docname="iuneslab.svg"
   inkscape:output_extension="org.inkscape.output.svg.inkscape"
   version="1.1"
   viewBox="0 0 374.18467 214.36392">
  <defs
     id="defs4">
    <marker
       inkscape:stockid="Arrow2Lend"
       orient="auto"
       refY="0"
       refX="0"
       id="marker5438"
       style="overflow:visible"
       inkscape:isstock="true">
      <path
         id="path5440"
         style="fill:#ffffff;fill-opacity:1;fill-rule:evenodd;stroke:#ffffff;stroke-width:0.625;stroke-linejoin:round;stroke-opacity:1"
         d="M 8.7185878,4.0337352 -2.2072895,0.01601326 8.7185884,-4.0017078 c -1.7454984,2.3720609 -1.7354408,5.6174519 -6e-7,8.035443 z"
         transform="matrix(-1.1,0,0,-1.1,-1.1,0)"
         inkscape:connector-curvature="0" />
    </marker>
    <marker
       inkscape:stockid="Arrow2Lend"
       orient="auto"
       refY="0"
       refX="0"
       id="Arrow2Lend"
       style="overflow:visible"
       inkscape:isstock="true">
      <path
         id="path4283"
         style="fill:#000000;fill-opacity:1;fill-rule:evenodd;stroke:#000000;stroke-width:0.625;stroke-linejoin:round;stroke-opacity:1"
         d="M 8.7185878,4.0337352 -2.2072895,0.01601326 8.7185884,-4.0017078 c -1.7454984,2.3720609 -1.7354408,5.6174519 -6e-7,8.035443 z"
         transform="matrix(-1.1,0,0,-1.1,-1.1,0)"
         inkscape:connector-curvature="0" />
    </marker>
    <marker
       inkscape:stockid="Arrow2Lend"
       orient="auto"
       refY="0"
       refX="0"
       id="marker5438-6"
       style="overflow:visible"
       inkscape:isstock="true">
      <path
         inkscape:connector-curvature="0"
         id="path5440-8"
         style="fill:#ffffff;fill-opacity:1;fill-rule:evenodd;stroke:#ffffff;stroke-width:0.625;stroke-linejoin:round;stroke-opacity:1"
         d="M 8.7185878,4.0337352 -2.2072895,0.01601326 8.7185884,-4.0017078 c -1.7454984,2.3720609 -1.7354408,5.6174519 -6e-7,8.035443 z"
         transform="matrix(-1.1,0,0,-1.1,-1.1,0)" />
    </marker>
  </defs>
  <sodipodi:namedview
     id="base"
     pagecolor="#ffffff"
     bordercolor="#666666"
     borderopacity="1.0"
     inkscape:pageopacity="0.0"
     inkscape:pageshadow="2"
     inkscape:zoom="0.47851563"
     inkscape:cx="-378.27726"
     inkscape:cy="-59.574571"
     inkscape:document-units="px"
     inkscape:current-layer="layer1"
     inkscape:window-width="1598"
     inkscape:window-height="879"
     inkscape:window-x="0"
     inkscape:window-y="19"
     showgrid="false"
     showguides="true"
     inkscape:window-maximized="0"
     inkscape:snap-page="true"
     fit-margin-top="0"
     fit-margin-left="0"
     fit-margin-right="0"
     fit-margin-bottom="0" />
  <metadata
     id="metadata7">
    <rdf:RDF>
      <cc:Work
         rdf:about="">
        <dc:format>image/svg+xml</dc:format>
        <dc:type
           rdf:resource="http://purl.org/dc/dcmitype/StillImage" />
        <dc:title></dc:title>
      </cc:Work>
    </rdf:RDF>
  </metadata>
  <g
     inkscape:label="Capa 1"
     inkscape:groupmode="layer"
     id="layer1"
     transform="translate(-678.17755,-532.34618)">
    <g
       id="g6980">
      <path
         inkscape:connector-curvature="0"
         id="path6955"
         style="color:#000000;font-style:normal;font-variant:normal;font-weight:normal;font-stretch:normal;font-size:190.08735657px;line-height:125%;font-family:'Notera Personal Use Only';-inkscape-font-specification:'Notera Personal Use Only, Normal';text-indent:0;text-align:start;text-decoration:none;text-decoration-line:none;letter-spacing:0px;word-spacing:0px;text-transform:none;direction:ltr;block-progression:tb;writing-mode:lr-tb;baseline-shift:baseline;text-anchor:start;visibility:visible;fill:#000000;fill-opacity:1;fill-rule:nonzero;stroke:none;stroke-width:1px;stroke-linecap:butt;stroke-linejoin:miter;stroke-opacity:1;marker:none"
         d="m 986.30468,568.62914 q 4.11628,-3.04247 7.69565,-6.62183 3.75834,-3.75835 6.26387,-8.41153 0.8949,-1.78968 1.6107,-4.11628 0.8949,-2.50556 3.4005,-2.50556 1.7896,0.17897 2.5055,1.78969 0.8949,1.43175 0,3.04247 -1.4317,4.11628 -5.0111,7.87461 -3.57938,3.57938 -6.62185,6.08493 -1.61071,1.43175 -3.4004,3.40041 -1.78969,1.96865 -3.75834,2.8635 -0.89484,0.71587 -1.78969,0.5369 -0.71587,-0.17897 -1.25278,-0.89485 -0.5369,-0.71587 -0.5369,-1.61071 0,-0.89484 0.89484,-1.43175 z" />
      <path
         inkscape:connector-curvature="0"
         id="path6957"
         style="color:#000000;font-style:normal;font-variant:normal;font-weight:normal;font-stretch:normal;font-size:190.08735657px;line-height:125%;font-family:'Notera Personal Use Only';-inkscape-font-specification:'Notera Personal Use Only, Normal';text-indent:0;text-align:start;text-decoration:none;text-decoration-line:none;letter-spacing:0px;word-spacing:0px;text-transform:none;direction:ltr;block-progression:tb;writing-mode:lr-tb;baseline-shift:baseline;text-anchor:start;visibility:visible;fill:#000000;fill-opacity:1;fill-rule:nonzero;stroke:none;stroke-width:1px;stroke-linecap:butt;stroke-linejoin:miter;stroke-opacity:1;marker:none"
         d="m 981.82208,587.95775 q 1.25278,-0.71588 4.47421,-2.50556 3.4004,-1.96865 7.33771,-3.93731 4.11628,-1.96865 8.2326,-3.57937 4.1162,-1.78969 7.1587,-1.96866 1.0738,-0.35794 2.1476,0.17897 1.2528,0.35794 1.7897,1.07381 1.0738,1.78968 0.179,2.8635 -0.8949,0.89485 -2.3266,1.61072 -1.4318,0.71587 -3.2214,1.25278 -1.6108,0.35793 -2.1477,1.07381 -0.8948,1.07381 0.358,1.96865 1.4317,0.89485 3.4004,1.43175 1.9686,0.53691 3.9373,1.07381 1.9686,0.35794 2.5055,0.71587 3.5794,1.96866 4.1163,4.29525 0.7159,2.14763 -0.7159,4.47422 l 4.8322,-2.50556 14.3175,-7.51668 q 1.2528,-0.71588 2.1476,0 1.0738,0.5369 1.0738,1.96865 0,1.43175 -1.6107,2.14762 -1.4317,0.53691 -2.6845,1.07382 -4.2953,1.96866 -8.7695,4.29524 -4.2952,2.14763 -8.5905,4.47422 -5.1901,2.50556 -10.0222,4.47421 -4.6532,1.96866 -9.6643,1.96866 -3.5794,0 -6.4429,-2.50556 -2.68452,-2.50556 -2.68452,-5.727 -0.17897,-1.61071 0.71587,-2.50556 0.89484,-1.07381 2.14762,-1.25278 1.25278,-0.35794 2.14763,0.35794 1.07381,0.71587 1.25278,2.32659 0.35793,3.57938 3.04242,4.11628 2.8635,0.71588 6.6219,-0.17897 2.5055,-0.89485 4.4742,-2.14763 2.1476,-1.43174 3.0425,-2.68452 2.3266,-2.50556 1.2527,-3.93731 -1.0738,-1.43175 -3.7583,-2.3266 -2.5056,-0.89483 -5.3691,-1.43174 -2.8635,-0.71587 -3.9373,-1.61072 -1.6107,-1.43175 -1.9686,-2.8635 -0.179,-1.43175 0.1789,-2.8635 -2.68448,1.07382 -5.36901,2.3266 -2.50556,1.07381 -4.65318,1.96865 -1.61072,0.89485 -3.93731,2.68453 -2.14763,1.61072 -3.93731,1.61072 -0.89484,0.17896 -1.43175,-0.17897 -0.71587,-0.5369 -0.71587,-1.07381 -0.17897,-0.71587 0.17896,-1.43175 0.17897,-0.71587 0.89485,-1.07381 z" />
      <g
         inkscape:label="Capa 1"
         id="layer1-1"
         transform="matrix(0.83802933,0,0,0.83802933,434.03665,89.460564)"
         style="fill:#000000;stroke:none">
        <g
           style="color:#000000;font-style:normal;font-variant:normal;font-weight:normal;font-stretch:normal;font-size:174.5438385px;line-height:125%;font-family:Lato;-inkscape-font-specification:Lato;text-indent:0;text-align:start;text-decoration:none;text-decoration-line:none;letter-spacing:0px;word-spacing:0px;text-transform:none;direction:ltr;block-progression:tb;writing-mode:lr-tb;baseline-shift:baseline;text-anchor:start;display:inline;overflow:visible;visibility:visible;fill:#000000;fill-opacity:1;fill-rule:nonzero;stroke:none;stroke-width:1px;stroke-linecap:butt;stroke-linejoin:miter;stroke-opacity:1;marker:none;enable-background:accumulate"
           id="text33400-8-0"
           transform="matrix(1.2227287,0,0,1.2227287,-106.1243,-131.23709)">
          <path
             d="m 354.51023,585.0366 c 0.46545,-0.23273 1.51272,-0.69818 3.14179,-1.39635 1.74544,-0.69817 3.4327,-1.2218 5.06177,-1.57089 1.62908,-0.34909 3.02543,-0.34909 4.18905,0 1.16363,0.23272 1.5709,1.27998 1.22181,3.14179 -0.23273,1.04726 -0.75636,2.09452 -1.57089,3.14178 -0.69818,1.04727 -1.22181,2.09453 -1.5709,3.14179 -0.69817,1.51271 -1.39635,3.37452 -2.09452,5.58541 -0.58181,2.21089 -0.34909,4.01451 0.69817,5.41086 1.97817,0.23272 4.13087,-10e-6 6.45812,-0.69818 2.44361,-0.69817 4.6545,-1.39635 6.63267,-2.09453 0.58181,-0.23272 1.68726,-0.81453 3.31633,-1.74543 1.62908,-0.9309 3.31634,-1.80362 5.06177,-2.61816 1.8618,-0.9309 3.54906,-1.57089 5.06177,-1.91998 1.51271,-0.46545 2.44362,-0.34909 2.79271,0.34908 0.46545,0.81454 0.17454,1.68726 -0.87272,2.61816 -1.04727,0.9309 -2.38544,1.80362 -4.01451,2.61816 -1.51271,0.69817 -3.08361,1.39635 -4.71269,2.09452 -1.62907,0.58181 -2.67633,0.98908 -3.14178,1.22181 -2.55998,1.27999 -5.17814,2.55998 -7.85448,3.83997 -2.55997,1.16362 -5.23631,1.97816 -8.02901,2.44361 -2.44361,0.34909 -4.13087,-0.17454 -5.06178,-1.57089 -0.9309,-1.39635 -1.39635,-3.14179 -1.39635,-5.23632 0,-2.21089 0.29091,-4.53814 0.87272,-6.98175 0.69818,-2.55998 1.39636,-4.88723 2.09453,-6.98176 -2.67634,1.04727 -5.2945,2.03635 -7.85447,2.96725 -2.55998,0.81454 -5.06178,1.80362 -7.50539,2.96724 -2.09453,0.9309 -4.18905,1.97816 -6.28358,3.14179 -1.27999,0.34909 -2.26907,0.0582 -2.96724,-0.87272 -0.81454,-1.04726 -0.52363,-1.91998 0.87272,-2.61815 z m 20.42163,-35.25785 c 0.58181,-1.51271 1.45453,-2.7927 2.61816,-3.83997 5.45905,-2.23748 3.30064,10.16369 -1.39635,7.33084 -1.27999,-0.9309 -1.68726,-2.09452 -1.22181,-3.49087 z"
             style="font-style:normal;font-variant:normal;font-weight:normal;font-stretch:normal;font-family:'Notera Personal Use Only';-inkscape-font-specification:'Notera Personal Use Only';fill:#000000;stroke:none"
             id="path20973-4"
             inkscape:connector-curvature="0"
             sodipodi:nodetypes="ccsccccccccscccsccsccsscccccccccccc" />
          <path
             d="m 390.23717,593.41471 q 4.53814,-1.39635 8.90174,-3.31634 4.36359,-2.09452 8.72719,-4.01451 1.04726,-0.52363 3.14179,-1.91998 2.26907,-1.57089 4.53814,-2.7927 2.26907,-1.22181 4.18905,-1.57089 2.09453,-0.52363 3.14179,1.04726 0.87272,1.39635 0.17454,2.7927 -0.52363,1.22181 -1.74544,2.61816 -1.2218,1.22181 -2.61815,2.44361 -1.39635,1.04727 -2.09453,1.74544 -2.61816,2.61816 -5.06177,5.75995 -2.44361,3.14179 -2.44361,6.63266 3.14178,0 6.63266,-1.57089 3.49088,-1.5709 6.10904,-2.61816 8.3781,-3.83996 16.58166,-8.72719 4.53814,-2.7927 8.20356,-5.5854 1.5709,-1.04727 3.14179,0 1.74544,1.04726 1.39635,3.14179 -0.34909,1.57089 -1.57089,3.14178 -1.04727,1.39636 -1.91999,2.96725 -0.87272,1.39635 -1.74543,3.83996 -0.69818,2.44362 0,4.3636 1.91998,1.04726 4.71268,0.34909 2.7927,-0.87272 4.53814,-1.39635 7.50538,-2.61816 13.96351,-5.93449 1.2218,-0.52363 2.96724,-1.39635 1.91998,-1.04727 2.7927,0.69817 0.87272,1.5709 -0.34908,2.44362 -1.04727,0.69817 -2.26907,1.2218 l -11.5199,5.41086 q -3.66542,1.5709 -8.02901,3.66542 -4.3636,1.91998 -8.7272,0.87272 -3.14179,-0.87272 -3.66542,-3.49088 -0.34908,-2.7927 0.52363,-5.23631 l 2.61816,-6.28358 q -4.53814,2.09453 -8.90173,4.3636 -4.18906,2.26907 -8.7272,4.18905 -1.91998,1.04726 -4.53814,2.61816 -2.61815,1.39635 -5.5854,2.7927 -2.7927,1.2218 -5.5854,1.74544 -2.7927,0.69817 -4.88723,-0.17455 -2.09452,-0.69817 -2.26907,-2.61816 0,-2.09452 1.04726,-4.71268 1.04727,-2.61816 2.96725,-5.5854 1.91998,-2.96725 4.01451,-5.75995 l -4.18905,1.91998 q -7.1563,2.61816 -10.29809,4.01451 -3.14179,1.39635 -4.88723,1.74544 -1.04726,0.34909 -1.57089,-0.17454 -0.69818,-0.52363 -0.87272,-1.22181 -0.34909,-0.69818 0,-1.39635 0.17454,-0.69818 1.04726,-1.04726 z"
             style="font-style:normal;font-variant:normal;font-weight:normal;font-stretch:normal;font-family:'Notera Personal Use Only';-inkscape-font-specification:'Notera Personal Use Only';fill:#000000;stroke:none"
             id="path20975-4"
             inkscape:connector-curvature="0" />
          <path
             d="m 472.04642,593.58925 q 1.91998,-1.04726 6.63267,-3.49088 4.71268,-2.61815 9.59991,-4.88722 5.06177,-2.26907 9.25082,-3.14179 4.18905,-0.87272 5.23632,1.39635 0.69817,1.74544 -0.52364,3.49087 -1.04726,1.5709 -1.57089,2.96725 l -2.09453,4.88723 q 2.26907,-1.39635 4.53814,-2.44362 2.26907,-1.04726 4.53814,-2.09452 5.58541,-2.96725 11.5199,-6.28358 5.93449,-3.31633 12.04352,-5.06177 2.26907,-0.52363 4.01451,0 1.74544,0.34909 2.61816,1.57089 1.04726,1.04726 1.04726,2.96725 0,1.74544 -1.39635,3.83996 -1.57089,2.44362 -3.49088,4.3636 -1.74544,1.91998 -3.66542,4.18905 -0.34909,0.52363 -1.2218,1.39635 -0.87272,0.87272 -1.91999,2.09453 -0.87272,1.04726 -1.74544,2.26907 -0.69817,1.04726 -0.87271,1.91998 1.2218,0.34909 2.96724,0 1.91998,-0.34909 3.66542,-0.87272 1.91998,-0.69818 3.49088,-1.39635 1.74544,-0.69818 2.61816,-1.04726 l 7.15629,-3.14179 q 0.69818,-0.34909 1.74544,-1.04727 1.22181,-0.69817 2.44362,-1.2218 1.2218,-0.69818 2.26907,-1.22181 1.2218,-0.52363 1.91998,-0.52363 1.57089,0 1.57089,1.57089 0,1.5709 -1.39635,2.44362 -1.57089,0.87272 -3.31633,1.74543 -1.74544,0.69818 -3.66542,1.5709 -2.44362,1.39635 -4.71269,2.44361 -2.26907,1.04727 -4.71268,2.26907 -1.39635,0.69818 -4.53814,2.09453 -2.96724,1.22181 -6.10903,1.74544 -2.96725,0.69817 -5.23632,-0.17455 -2.26907,-0.69817 -2.26907,-4.18905 0,-1.74544 0.87272,-3.14179 0.87272,-1.39635 1.91998,-2.61816 1.22181,-1.39635 2.44362,-2.61815 1.39635,-1.22181 2.44361,-2.26907 1.04726,-0.87272 3.49088,-3.66542 2.44361,-2.7927 3.14179,-5.23632 -4.71269,0.52363 -9.59992,2.44362 -4.71268,1.91998 -8.72719,4.0145 -5.06177,2.44362 -10.47263,5.58541 -5.41086,2.96724 -9.42536,7.15629 -0.87272,0.69818 -1.91999,0.87272 -0.87272,0 -1.74544,-0.34908 -0.87271,-0.52364 -1.39635,-1.39636 -0.34908,-0.87271 0,-2.26907 0.52364,-1.57089 2.61816,-2.7927 0.87272,-1.39635 1.74544,-3.14179 0.87272,-1.91998 1.22181,-2.26907 0.34908,-1.2218 0.69817,-2.44361 0.34909,-1.39635 0.52363,-2.7927 -1.91998,0.52363 -3.83996,1.22181 -1.91998,0.69817 -2.96725,1.04726 -2.44361,1.04726 -4.88722,2.09453 -2.44362,0.87271 -4.88723,2.09452 -1.39635,0.69818 -2.61816,1.39635 -1.04726,0.69818 -2.44361,1.22181 -1.04727,0.52363 -2.09453,0.34909 -0.87272,-0.34909 -1.39635,-0.87272 -0.52363,-0.52363 -0.34909,-1.22181 0,-0.87272 1.22181,-1.39635 z"
             style="font-style:normal;font-variant:normal;font-weight:normal;font-stretch:normal;font-family:'Notera Personal Use Only';-inkscape-font-specification:'Notera Personal Use Only';fill:#000000;stroke:none"
             id="path20977-2"
             inkscape:connector-curvature="0" />
          <path
             d="m 551.83477,593.41471 q 3.14179,-1.5709 6.45813,-3.49088 3.49087,-1.91998 6.98175,-3.31633 2.26907,-4.01451 6.45812,-6.45813 4.18905,-2.61815 8.90174,-3.49087 2.44361,-0.34909 5.5854,0 3.31633,0.34909 5.06177,2.61816 1.22181,1.39635 0.52363,2.96724 -0.52363,1.57089 -2.09452,2.96725 -1.39635,1.39635 -3.31634,2.61815 -1.74543,1.04727 -2.61815,1.5709 -3.14179,1.91998 -6.98176,2.96724 -3.66542,0.87272 -7.50538,0.52363 l -0.69818,0 q 0.69818,3.83997 3.14179,5.93449 2.44362,2.09453 5.75995,3.14179 3.31633,0.87272 6.80721,0.69818 3.66542,-0.17454 6.63266,-0.69818 4.18906,-0.87272 8.20357,-2.09452 4.0145,-1.39635 7.85447,-3.14179 1.74544,-0.87272 3.49087,-1.5709 1.91999,-0.87271 3.49088,-1.74543 1.22181,-0.34909 2.44362,0.34908 1.39635,0.69818 0.34908,2.26907 -0.87272,1.39635 -2.44361,1.91999 -1.5709,0.52363 -2.7927,1.04726 l -8.72719,3.83996 q -8.02902,3.14179 -15.88349,5.23632 -3.49088,0.69817 -7.1563,0.34909 -3.49088,-0.17455 -6.63267,-1.39635 -2.96724,-1.39636 -5.41086,-3.83997 -2.44361,-2.44361 -3.49087,-6.28358 -0.34909,-1.39635 -0.69818,-2.7927 -0.17454,-1.39635 0.17455,-2.61816 -1.91999,0.87272 -3.83997,2.09453 -1.74544,1.04726 -3.14179,1.91998 -0.87272,0.34909 -2.26907,1.39635 -1.39635,0.87272 -2.7927,0 -1.04726,-0.69817 -0.87272,-1.91998 0,-1.22181 1.04726,-1.57089 z m 17.80348,-4.88723 q 4.18905,-0.17455 8.02901,-2.09453 4.01451,-1.91998 6.98176,-4.88723 -2.44362,-0.87271 -4.88723,-0.52363 -2.26907,0.34909 -4.3636,1.39635 -1.91998,1.04727 -3.49087,2.79271 -1.5709,1.57089 -2.26907,3.31633 z"
             style="font-style:normal;font-variant:normal;font-weight:normal;font-stretch:normal;font-family:'Notera Personal Use Only';-inkscape-font-specification:'Notera Personal Use Only';fill:#000000;stroke:none"
             id="path20979-3"
             inkscape:connector-curvature="0" />
        </g>
      </g>
      <path
         d="m 905.74215,633.9137 c 0,-2.61716 0.43619,-2.83526 -1.74477,-3.05336 -7.08814,-0.87238 -16.35725,0.87239 -23.00919,0.87239 0,0 -2.39906,0 -2.39906,0 l 0,4.58003 c 2.39906,2.18096 4.58002,2.18096 4.58002,4.36193 2.29002,6.87004 2.29002,15.812 2.29002,22.79109 0,6.65195 0,13.41294 0,20.17394 l 0,2.39906 c 0,11.23197 0,27.04398 -2.29002,38.385 0,4.58003 0,6.76099 -2.18096,9.05101 -2.39906,0 -4.58003,0 -4.58003,2.18096 0,2.39907 2.18097,2.39907 4.58003,4.58003 11.23197,-2.18096 24.75396,0 38.385,-2.18096 2.18096,-2.39907 0,-6.87005 0,-9.05101 0,-6.761 2.18096,-15.92105 -2.18097,-20.39203 0,0 -2.39906,-2.18097 -4.58003,0 l 0,9.051 c 0,4.58003 0,8.94197 0,13.52199 l -2.39906,0 c -2.72621,0.10905 -4.47098,0 -4.47098,0 -2.18096,0 -2.07192,0.10905 -4.36193,0 -2.50811,-0.10904 -2.39906,0 -2.39906,-2.18096 -2.18097,-31.73306 2.39906,-58.88608 2.39906,-88.32912 0,-2.18097 2.18097,-2.18097 4.36193,-6.76099 z"
         style="color:#000000;font-style:normal;font-variant:normal;font-weight:normal;font-stretch:normal;font-size:medium;line-height:125%;font-family:Sunday;-inkscape-font-specification:Sunday;text-indent:0;text-align:start;text-decoration:none;text-decoration-line:none;letter-spacing:0px;word-spacing:0px;text-transform:none;direction:ltr;block-progression:tb;writing-mode:lr-tb;baseline-shift:baseline;text-anchor:start;visibility:visible;fill:#000000;fill-opacity:1;fill-rule:nonzero;stroke:none;stroke-width:1px;stroke-linecap:butt;stroke-linejoin:miter;stroke-opacity:1;marker:none"
         id="path6948"
         inkscape:connector-curvature="0" />
      <path
         d="m 967.06648,730.74858 c -2.39906,0 -6.1067,5.99766 -6.1067,8.39672 0,2.07192 3.70764,1.09048 6.1067,0.87239 4.68908,0 8.61482,-0.65429 13.19485,-0.65429 l 2.83525,0.65429 c 4.79813,-2.29002 0,-4.79813 0,-6.87005 l 0,-13.95818 c -2.07192,-20.50108 -3.1624,-40.89311 -5.34337,-58.99513 -0.43619,-3.70764 -1.30857,-7.96052 -3.48954,-12.32245 0,-4.68908 -4.68908,-13.74009 -9.59625,-16.13915 -4.36193,-2.50811 -9.16006,2.39906 -9.16006,2.39906 -4.58003,6.761 -8.94196,13.74009 -11.34102,23.00919 -2.50811,4.68908 -4.79812,11.45007 -4.79812,18.32012 -2.29002,16.24819 -4.58003,36.74927 -6.761,50.70745 0,2.39906 0,4.68908 -2.39906,4.68908 -2.07192,0 -4.68908,2.07192 -6.87004,4.47098 l 4.79812,4.58003 c 6.65195,-2.50811 13.19484,2.39906 20.17394,-2.39907 0,0 0.32714,-2.18096 0.32714,-4.58002 -2.07192,-2.07192 -4.47098,0 -6.97909,-2.07192 0,-11.88627 0,-23.00919 2.50811,-32.16925 0,-4.90717 0,-9.4872 2.39906,-11.77721 6.761,0 13.74009,2.29001 18.10202,2.29001 2.39906,11.55912 2.39906,27.58922 2.39906,41.5474 z m -11.55912,-85.27577 2.39907,-2.29001 c 2.39906,0 2.39906,2.29001 2.39906,2.29001 2.39906,6.761 4.36193,16.35725 4.36193,23.11824 l 0,13.74009 c -4.36193,0 -11.34102,0 -18.10202,-2.07192 0,-2.61716 2.07192,-9.59625 2.07192,-11.66817 2.29001,-9.16005 4.68908,-16.35724 6.87004,-23.11824 z"
         style="color:#000000;font-style:normal;font-variant:normal;font-weight:normal;font-stretch:normal;font-size:medium;line-height:125%;font-family:Sunday;-inkscape-font-specification:Sunday;text-indent:0;text-align:start;text-decoration:none;text-decoration-line:none;letter-spacing:0px;word-spacing:0px;text-transform:none;direction:ltr;block-progression:tb;writing-mode:lr-tb;baseline-shift:baseline;text-anchor:start;visibility:visible;fill:#000000;fill-opacity:1;fill-rule:nonzero;stroke:none;stroke-width:1px;stroke-linecap:butt;stroke-linejoin:miter;stroke-opacity:1;marker:none"
         id="path6950"
         inkscape:connector-curvature="0" />
      <path
         d="m 1025.484,668.9182 c 4.3619,-4.47098 8.8329,-13.41294 6.6519,-20.06489 0,-6.65194 -2.29,-8.83291 -4.4709,-13.30389 -4.471,-4.47098 -15.5939,-4.47098 -26.7169,-4.47098 -4.47095,0 -8.94193,0 -11.12289,2.18097 0,4.47098 4.47098,4.47098 8.94196,4.47098 0,4.47098 0,11.12292 0,17.77487 l 0,22.3549 c 0,4.36193 0,6.65194 0,11.12292 l 0,4.36194 c -2.29002,13.41294 0,26.71683 -2.29002,37.83975 -2.18096,0 -4.47098,0 -6.65194,0 l 0,2.29002 c 0,4.47098 2.18096,4.47098 6.65194,4.47098 4.47095,0 8.94195,2.18096 13.41295,2.18096 6.6519,0 11.1229,0 15.5939,-2.18096 11.1229,-6.761 17.7749,-24.53587 15.4849,-40.12977 0,-11.12293 -4.362,-19.95584 -8.833,-24.42682 -4.4709,-2.29002 -6.6519,-2.29002 -6.6519,-4.47098 z m -13.4129,-31.18781 c 2.1809,0 6.6519,0 8.9419,2.29001 2.181,4.36193 0,11.12293 -2.29,17.77487 -2.181,2.18097 -4.471,6.65195 -6.6519,4.47098 -2.181,-4.47098 -2.181,-8.94196 -2.181,-15.5939 0,-4.47098 0,-6.65195 2.181,-8.94196 z m 8.9419,91.27342 c -2.29,2.18096 -6.761,2.18096 -11.1229,2.18096 0,-4.36193 0,-11.12292 0,-15.48485 l 0,-35.6588 c 0,-2.18096 0,-6.65194 2.181,-8.94196 4.4709,0 9.9234,2.18097 14.3943,6.65195 0.8724,2.18097 1.7448,4.03479 1.7448,4.03479 0.3272,1.74477 0.1091,2.18096 0.1091,2.18096 2.1809,4.47098 1.5266,5.01622 1.5266,9.37816 0,4.47098 2.29,13.41294 0,17.88392 0,2.18096 0,2.18096 -2.1809,4.47098 0,2.18096 0,6.65194 -2.181,8.83291 l -4.471,4.47098 z"
         style="color:#000000;font-style:normal;font-variant:normal;font-weight:normal;font-stretch:normal;font-size:medium;line-height:125%;font-family:Sunday;-inkscape-font-specification:Sunday;text-indent:0;text-align:start;text-decoration:none;text-decoration-line:none;letter-spacing:0px;word-spacing:0px;text-transform:none;direction:ltr;block-progression:tb;writing-mode:lr-tb;baseline-shift:baseline;text-anchor:start;visibility:visible;fill:#000000;fill-opacity:1;fill-rule:nonzero;stroke:none;stroke-width:1px;stroke-linecap:butt;stroke-linejoin:miter;stroke-opacity:1;marker:none"
         id="path6952"
         inkscape:connector-curvature="0" />
    </g>
  </g>
</svg>
