<?xml version="1.0" encoding="UTF-8" standalone="no"?>
<!-- Created with Inkscape (http://www.inkscape.org/) -->

<svg
   xmlns:dc="http://purl.org/dc/elements/1.1/"
   xmlns:cc="http://creativecommons.org/ns#"
   xmlns:rdf="http://www.w3.org/1999/02/22-rdf-syntax-ns#"
   xmlns:svg="http://www.w3.org/2000/svg"
   xmlns="http://www.w3.org/2000/svg"
   xmlns:sodipodi="http://sodipodi.sourceforge.net/DTD/sodipodi-0.dtd"
   xmlns:inkscape="http://www.inkscape.org/namespaces/inkscape"
   width="793.67023"
   height="548.39673"
   id="svg2"
   sodipodi:version="0.32"
   inkscape:version="0.91pre1 r13432"
   sodipodi:docname="lab.svg"
   inkscape:output_extension="org.inkscape.output.svg.inkscape"
   version="1.1"
   viewBox="0 0 793.67024 548.39673">
  <defs
     id="defs4">
    <marker
       inkscape:stockid="Arrow2Lend"
       orient="auto"
       refY="0"
       refX="0"
       id="marker5438"
       style="overflow:visible"
       inkscape:isstock="true">
      <path
         id="path5440"
         style="fill:#ffffff;fill-opacity:1;fill-rule:evenodd;stroke:#ffffff;stroke-width:0.625;stroke-linejoin:round;stroke-opacity:1"
         d="M 8.7185878,4.0337352 -2.2072895,0.01601326 8.7185884,-4.0017078 c -1.7454984,2.3720609 -1.7354408,5.6174519 -6e-7,8.035443 z"
         transform="matrix(-1.1,0,0,-1.1,-1.1,0)"
         inkscape:connector-curvature="0" />
    </marker>
    <marker
       inkscape:stockid="Arrow2Lend"
       orient="auto"
       refY="0"
       refX="0"
       id="Arrow2Lend"
       style="overflow:visible"
       inkscape:isstock="true">
      <path
         id="path4283"
         style="fill:#000000;fill-opacity:1;fill-rule:evenodd;stroke:#000000;stroke-width:0.625;stroke-linejoin:round;stroke-opacity:1"
         d="M 8.7185878,4.0337352 -2.2072895,0.01601326 8.7185884,-4.0017078 c -1.7454984,2.3720609 -1.7354408,5.6174519 -6e-7,8.035443 z"
         transform="matrix(-1.1,0,0,-1.1,-1.1,0)"
         inkscape:connector-curvature="0" />
    </marker>
    <marker
       inkscape:stockid="Arrow2Lend"
       orient="auto"
       refY="0"
       refX="0"
       id="marker5438-6"
       style="overflow:visible"
       inkscape:isstock="true">
      <path
         inkscape:connector-curvature="0"
         id="path5440-8"
         style="fill:#ffffff;fill-opacity:1;fill-rule:evenodd;stroke:#ffffff;stroke-width:0.625;stroke-linejoin:round;stroke-opacity:1"
         d="M 8.7185878,4.0337352 -2.2072895,0.01601326 8.7185884,-4.0017078 c -1.7454984,2.3720609 -1.7354408,5.6174519 -6e-7,8.035443 z"
         transform="matrix(-1.1,0,0,-1.1,-1.1,0)" />
    </marker>
    <marker
       inkscape:isstock="true"
       style="overflow:visible"
       id="marker5438-2"
       refX="0"
       refY="0"
       orient="auto"
       inkscape:stockid="Arrow2Lend">
      <path
         inkscape:connector-curvature="0"
         transform="matrix(-1.1,0,0,-1.1,-1.1,0)"
         d="M 8.7185878,4.0337352 -2.2072895,0.01601326 8.7185884,-4.0017078 c -1.7454984,2.3720609 -1.7354408,5.6174519 -6e-7,8.035443 z"
         style="fill:#ffffff;fill-opacity:1;fill-rule:evenodd;stroke:#ffffff;stroke-width:0.625;stroke-linejoin:round;stroke-opacity:1"
         id="path5440-9" />
    </marker>
    <marker
       inkscape:isstock="true"
       style="overflow:visible"
       id="Arrow2Lend-1"
       refX="0"
       refY="0"
       orient="auto"
       inkscape:stockid="Arrow2Lend">
      <path
         inkscape:connector-curvature="0"
         transform="matrix(-1.1,0,0,-1.1,-1.1,0)"
         d="M 8.7185878,4.0337352 -2.2072895,0.01601326 8.7185884,-4.0017078 c -1.7454984,2.3720609 -1.7354408,5.6174519 -6e-7,8.035443 z"
         style="fill:#000000;fill-opacity:1;fill-rule:evenodd;stroke:#000000;stroke-width:0.625;stroke-linejoin:round;stroke-opacity:1"
         id="path4283-8" />
    </marker>
    <marker
       inkscape:isstock="true"
       style="overflow:visible"
       id="marker5438-6-2"
       refX="0"
       refY="0"
       orient="auto"
       inkscape:stockid="Arrow2Lend">
      <path
         transform="matrix(-1.1,0,0,-1.1,-1.1,0)"
         d="M 8.7185878,4.0337352 -2.2072895,0.01601326 8.7185884,-4.0017078 c -1.7454984,2.3720609 -1.7354408,5.6174519 -6e-7,8.035443 z"
         style="fill:#ffffff;fill-opacity:1;fill-rule:evenodd;stroke:#ffffff;stroke-width:0.625;stroke-linejoin:round;stroke-opacity:1"
         id="path5440-8-1"
         inkscape:connector-curvature="0" />
    </marker>
  </defs>
  <sodipodi:namedview
     id="base"
     pagecolor="#ffffff"
     bordercolor="#666666"
     borderopacity="1.0"
     inkscape:pageopacity="0.0"
     inkscape:pageshadow="2"
     inkscape:zoom="1.2649323"
     inkscape:cx="355.75524"
     inkscape:cy="327.5284"
     inkscape:document-units="px"
     inkscape:current-layer="layer1"
     inkscape:window-width="1598"
     inkscape:window-height="879"
     inkscape:window-x="0"
     inkscape:window-y="19"
     showgrid="false"
     showguides="true"
     inkscape:window-maximized="0"
     inkscape:snap-page="true"
     fit-margin-top="0"
     fit-margin-left="0"
     fit-margin-right="0"
     fit-margin-bottom="0" />
  <metadata
     id="metadata7">
    <rdf:RDF>
      <cc:Work
         rdf:about="">
        <dc:format>image/svg+xml</dc:format>
        <dc:type
           rdf:resource="http://purl.org/dc/dcmitype/StillImage" />
        <dc:title></dc:title>
      </cc:Work>
    </rdf:RDF>
  </metadata>
  <g
     inkscape:label="Capa 1"
     inkscape:groupmode="layer"
     id="layer1"
     transform="translate(-146.48384,-304.08814)">
    <g
       id="g6886"
       transform="matrix(0.82544465,0,0,0.82544465,94.839227,49.338804)">
      <path
         id="path6469"
         transform="translate(0,308.26771)"
         d="m 301.27148,0 -7.20703,144.14453 c 10.66367,222.79303 610.2925,370.41325 673.83399,-16.25391 L 957.35156,0 301.27148,0 Z"
         style="fill:#cbd8d5;fill-opacity:1;fill-rule:evenodd;stroke:none;stroke-width:1px;stroke-linecap:butt;stroke-linejoin:miter;stroke-opacity:1"
         inkscape:connector-curvature="0" />
      <path
         id="path6469-8"
         transform="translate(0,308.26771)"
         d="m 324.47266,0 -6.80078,136.02148 c 9.91645,207.18169 567.53007,344.45776 626.61914,-15.11523 L 934.32031,0 324.47266,0 Z"
         style="fill:#f9005c;fill-opacity:1;fill-rule:evenodd;stroke:none;stroke-width:0.92992896px;stroke-linecap:butt;stroke-linejoin:miter;stroke-opacity:1"
         inkscape:connector-curvature="0" />
      <path
         inkscape:connector-curvature="0"
         d="m 360.86739,470.20393 c 8.52031,3.82447 16.82731,8.12564 25.32359,12.02761 13.1176,5.08529 26.35537,10.08834 40.08077,13.31076 11.84503,2.78095 21.66053,4.11478 33.76299,6.05868 32.62759,4.74886 65.59451,6.02682 98.45693,8.1465 2.32783,0.16193 4.65566,0.32386 6.98349,0.48579 5.17313,0.36885 4.6515,7.68476 -0.52163,7.31591 l 0,0 c -2.31404,-0.16904 -4.62807,-0.33808 -6.9421,-0.50712 -33.08137,-2.22214 -66.27243,-3.51289 -99.1235,-8.28685 -12.5348,-2.00533 -22.27968,-3.31383 -34.54219,-6.19225 -14.10905,-3.31186 -27.73618,-8.41747 -41.21386,-13.66453 -8.16064,-3.74124 -16.18846,-7.75122 -24.29155,-11.59982 -5.01669,-1.43335 -2.98964,-8.52803 2.02706,-7.09468 z"
         id="path6609-8"
         style="color:#000000;text-decoration:none;text-decoration-line:none;text-decoration-style:solid;text-decoration-color:#000000;clip-rule:nonzero;display:inline;overflow:visible;visibility:visible;opacity:1;isolation:auto;color-interpolation:sRGB;color-interpolation-filters:linearRGB;fill:#ffffff;fill-opacity:0.60932946;fill-rule:nonzero;stroke:none;stroke-width:0.92400002;stroke-linecap:square;stroke-linejoin:miter;stroke-miterlimit:4;stroke-dasharray:none;stroke-dashoffset:0;stroke-opacity:1;marker:none;color-rendering:auto;image-rendering:auto;shape-rendering:auto;text-rendering:auto;enable-background:accumulate" />
      <path
         id="path6465"
         transform="translate(0,308.26771)"
         d="m 144.49609,0 c -12.5804,53.718507 -80.955074,417.52148 -80.955074,417.52148 -28.506905,360.20597 577.785544,276.33157 531.976564,0 L 462.66797,0 144.49609,0 Z"
         style="fill:#dbe3e2;fill-opacity:0.69387758;fill-rule:evenodd;stroke:none;stroke-width:1px;stroke-linecap:butt;stroke-linejoin:miter;stroke-opacity:1"
         inkscape:connector-curvature="0" />
      <path
         inkscape:connector-curvature="0"
         d="m 373.0002,305.4874 c 8.52031,3.82447 16.82731,8.12564 25.32359,12.02761 13.1176,5.08529 26.35537,10.08834 40.08077,13.31076 11.84503,2.78095 21.66053,4.11478 33.76299,6.05868 32.62759,4.74886 65.59451,6.02682 98.45693,8.1465 2.32783,0.16193 4.65566,0.32386 6.98349,0.48579 5.17313,0.36885 4.6515,7.68476 -0.52163,7.31591 l 0,0 c -2.31404,-0.16904 -4.62807,-0.33808 -6.9421,-0.50712 -33.08137,-2.22214 -66.27243,-3.51289 -99.1235,-8.28685 -12.5348,-2.00533 -22.27968,-3.31383 -34.54219,-6.19225 -14.10905,-3.31186 -27.73618,-8.41747 -41.21386,-13.66453 -8.16064,-3.74124 -16.18846,-7.75122 -24.29155,-11.59982 -5.01669,-1.43335 -2.98964,-8.52803 2.02706,-7.09468 z"
         id="path6609-7"
         style="color:#000000;text-decoration:none;text-decoration-line:none;text-decoration-style:solid;text-decoration-color:#000000;clip-rule:nonzero;display:inline;overflow:visible;visibility:visible;opacity:1;isolation:auto;color-interpolation:sRGB;color-interpolation-filters:linearRGB;fill:#ffffff;fill-opacity:0.60932946;fill-rule:nonzero;stroke:none;stroke-width:0.92400002;stroke-linecap:square;stroke-linejoin:miter;stroke-miterlimit:4;stroke-dasharray:none;stroke-dashoffset:0;stroke-opacity:1;marker:none;color-rendering:auto;image-rendering:auto;shape-rendering:auto;text-rendering:auto;enable-background:accumulate" />
      <path
         sodipodi:nodetypes="ccaaaaaaaaaaaaaaaccc"
         inkscape:connector-curvature="0"
         id="path6467"
         d="m 610.29377,784.89689 2.95542,-279.28698 c 0,0 -6.4777,-4.37276 -8.86625,-7.38854 -6.15455,-7.77075 -11.02189,-16.95116 -13.29938,-26.59876 -1.92388,-8.14968 -2.42656,-17.10666 0,-25.12105 6.17583,-20.39737 18.9585,-39.71683 35.46501,-53.19752 22.24547,-18.16764 51.95892,-25.43812 79.79628,-32.5096 25.93861,-6.58914 53.04324,-8.15674 79.79628,-8.86625 25.64719,-0.68018 51.52471,0.26973 76.84086,4.43313 20.16337,3.31599 39.95091,9.14496 59.10836,16.25479 19.41728,7.20626 39.22315,14.66801 56.15294,26.59876 14.80467,10.43314 28.61511,23.19268 38.42041,38.42043 2.2784,3.53842 3.4662,7.72574 4.4331,11.82168 2.1621,9.15879 3.1296,18.66755 2.9554,28.07646 -0.1934,10.44719 -3.9666,20.59333 -4.4331,31.03189 -0.4184,9.36243 2.6614,18.77975 1.4777,28.07647 -1.2396,9.73577 -2.0768,20.98943 -8.8662,28.07647 -7.9768,8.32646 -32.5096,11.82167 -32.5096,11.82167 l -20.68793,249.7328 c 0.49257,171.9068 -349.23187,224.19006 -348.7393,-41.37585 z"
         style="fill:#d4dedd;fill-opacity:0.61224491;fill-rule:evenodd;stroke:none;stroke-width:1px;stroke-linecap:butt;stroke-linejoin:miter;stroke-opacity:1" />
      <path
         sodipodi:nodetypes="caaaaacccc"
         inkscape:connector-curvature="0"
         id="path6486"
         d="m 81.273989,718.39999 c 0,0 11.240925,-73.41303 33.987301,-100.4842 27.79265,-33.0769 72.04497,-50.91026 113.78358,-62.06378 62.35558,-16.66285 131.33784,-21.51522 193.57987,-4.43313 40.33074,11.06862 77.37098,36.38567 106.39504,66.49691 15.77279,16.3636 24.68267,38.37259 33.98731,59.10835 5.73924,12.79012 13.29938,39.89814 13.29938,39.89814 L 409.32537,866.17089 135.94922,801.1517 Z"
         style="fill:#00ffff;fill-rule:evenodd;stroke:none;stroke-width:1px;stroke-linecap:butt;stroke-linejoin:miter;stroke-opacity:1" />
      <path
         inkscape:connector-curvature="0"
         d="m 366.9338,387.84568 c 8.52031,3.82447 16.82731,8.12564 25.32359,12.02761 13.1176,5.08529 26.35537,10.08834 40.08077,13.31076 11.84503,2.78095 21.66053,4.11478 33.76299,6.05868 32.62759,4.74886 65.59451,6.02682 98.45693,8.1465 2.32783,0.16193 4.65566,0.32386 6.98349,0.48579 5.17313,0.36885 4.6515,7.68476 -0.52163,7.31591 l 0,0 c -2.31404,-0.16904 -4.62807,-0.33808 -6.9421,-0.50712 -33.08137,-2.22214 -66.27243,-3.51289 -99.1235,-8.28685 -12.5348,-2.00533 -22.27968,-3.31383 -34.54219,-6.19225 -14.10905,-3.31186 -27.73618,-8.41747 -41.21386,-13.66453 -8.16064,-3.74124 -16.18846,-7.75122 -24.29155,-11.59982 -5.01669,-1.43335 -2.98964,-8.52803 2.02706,-7.09468 z"
         id="path6609-5"
         style="color:#000000;text-decoration:none;text-decoration-line:none;text-decoration-style:solid;text-decoration-color:#000000;clip-rule:nonzero;display:inline;overflow:visible;visibility:visible;opacity:1;isolation:auto;color-interpolation:sRGB;color-interpolation-filters:linearRGB;fill:#ffffff;fill-opacity:0.60932946;fill-rule:nonzero;stroke:none;stroke-width:0.92400002;stroke-linecap:square;stroke-linejoin:miter;stroke-miterlimit:4;stroke-dasharray:none;stroke-dashoffset:0;stroke-opacity:1;marker:none;color-rendering:auto;image-rendering:auto;shape-rendering:auto;text-rendering:auto;enable-background:accumulate" />
      <path
         sodipodi:nodetypes="accaa"
         inkscape:connector-curvature="0"
         id="path6465-3"
         d="M 183.11415,780.59345 C 145.84719,768.27679 82.646105,719.18573 82.646105,719.18573 56.180973,1053.5924 619.0472,968.33685 576.51924,711.79719 c 0,0 -103.55539,76.74212 -164.73829,89.37834 -74.94862,15.47927 -156.00211,3.43345 -228.6668,-20.58208 z"
         style="fill:#00dcdc;fill-opacity:1;fill-rule:evenodd;stroke:none;stroke-width:0.9283762px;stroke-linecap:butt;stroke-linejoin:miter;stroke-opacity:1" />
      <path
         sodipodi:nodetypes="aaaccaca"
         inkscape:connector-curvature="0"
         id="path6518"
         d="m 625.07086,645.99225 c -5.38317,-20.27068 -0.43236,-44.07072 10.34396,-62.06377 15.33846,-25.6104 42.36297,-46.01013 70.93003,-54.67523 55.74847,-16.90989 125.39684,-5.9952 174.36964,11.82168 54.48405,24.96975 92.79305,52.63 85.70713,112.30587 -1.21062,10.21366 -2.76938,21.27092 -8.86626,29.55418 -46.48478,63.15451 -195.05758,131.5161 -195.05758,131.5161 0,0 -118.8267,-98.41851 -137.42692,-168.45883 z"
         style="fill:#ffcc00;fill-rule:evenodd;stroke:none;stroke-width:1px;stroke-linecap:butt;stroke-linejoin:miter;stroke-opacity:1" />
      <path
         sodipodi:nodetypes="ccccc"
         inkscape:connector-curvature="0"
         id="path6467-2"
         d="m 625.30372,782.79642 1.25191,-135.29958 c 35.6662,57.35729 231.70213,117.55146 331.08479,33.00136 L 947.3993,821.01116 c 0.45494,158.7731 -322.55052,207.06194 -322.09558,-38.21474 z"
         style="fill:#f5c500;fill-opacity:1;fill-rule:evenodd;stroke:none;stroke-width:0.92400002;stroke-linecap:butt;stroke-linejoin:miter;stroke-miterlimit:4;stroke-dasharray:none;stroke-opacity:1" />
      <text
         sodipodi:linespacing="125%"
         id="text6537"
         y="424.83621"
         x="174.7547"
         style="color:#000000;font-style:normal;font-variant:normal;font-weight:normal;font-stretch:normal;font-size:30.96792984px;line-height:125%;font-family:Lato;-inkscape-font-specification:Lato;text-indent:0;text-align:start;text-decoration:none;text-decoration-line:none;letter-spacing:0px;word-spacing:0px;text-transform:none;direction:ltr;block-progression:tb;writing-mode:lr-tb;baseline-shift:baseline;text-anchor:start;display:inline;overflow:visible;visibility:visible;fill:#ffffff;fill-opacity:1;fill-rule:nonzero;stroke:none;stroke-width:1px;stroke-linecap:butt;stroke-linejoin:miter;stroke-opacity:1;marker:none;enable-background:accumulate"
         xml:space="preserve"><tspan
           style="font-style:normal;font-variant:normal;font-weight:normal;font-stretch:normal;font-size:30.96750069px;line-height:125%;font-family:'Architects Daughter';-inkscape-font-specification:'Architects Daughter, Normal';text-align:start;writing-mode:lr-tb;text-anchor:start"
           y="424.83621"
           x="174.7547"
           id="tspan6539"
           sodipodi:role="line">125</tspan><tspan
           style="font-style:normal;font-variant:normal;font-weight:normal;font-stretch:normal;font-size:30.96750069px;line-height:125%;font-family:'Architects Daughter';-inkscape-font-specification:'Architects Daughter, Normal';text-align:start;writing-mode:lr-tb;text-anchor:start"
           id="tspan6541"
           y="463.54559"
           x="174.7547"
           sodipodi:role="line">ml</tspan></text>
      <path
         inkscape:connector-curvature="0"
         d="m 859.92025,899.25949 c 4.48798,-1.44607 9.05602,-2.66973 13.47409,-4.3175 4.1306,-2.03239 8.29935,-4.06433 12.27626,-6.39393 3.03018,-2.08158 5.91062,-4.38556 8.8001,-6.66082 2.52969,-1.93757 4.78214,-4.12407 6.76248,-6.61262 3.26781,-4.05987 9.00933,0.56151 5.74152,4.62138 l 0,0 c -2.35507,2.90027 -4.96246,5.51805 -7.94375,7.78607 -3.15899,2.48458 -6.29983,5.0152 -9.64898,7.23669 -4.35525,2.52549 -8.88874,4.78448 -13.43545,6.9335 -4.5026,1.64934 -9.1234,2.95326 -13.69255,4.40841 -4.95057,1.65019 -7.2843,-5.35099 -2.33372,-7.00118 z"
         id="path6572"
         style="color:#000000;text-decoration:none;text-decoration-line:none;text-decoration-style:solid;text-decoration-color:#000000;clip-rule:nonzero;display:inline;overflow:visible;visibility:visible;opacity:1;isolation:auto;color-interpolation:sRGB;color-interpolation-filters:linearRGB;fill:#ffffff;fill-opacity:0.68513118;fill-rule:nonzero;stroke:none;stroke-width:0.92400002;stroke-linecap:square;stroke-linejoin:miter;stroke-miterlimit:4;stroke-dasharray:none;stroke-dashoffset:0;stroke-opacity:1;marker:none;color-rendering:auto;image-rendering:auto;shape-rendering:auto;text-rendering:auto;enable-background:accumulate" />
      <path
         inkscape:connector-curvature="0"
         d="m 882.08602,680.55861 c 4.48798,-1.44607 9.05602,-2.66973 13.47409,-4.3175 4.1306,-2.03239 8.29935,-4.06433 12.27626,-6.39393 3.03019,-2.08158 5.91063,-4.38556 8.80011,-6.66082 2.52969,-1.93757 4.78214,-4.12407 6.76248,-6.61262 3.26781,-4.05987 9.00933,0.56151 5.74152,4.62138 l 0,0 c -2.35507,2.90027 -4.96246,5.51805 -7.94375,7.78607 -3.15899,2.48458 -6.29983,5.0152 -9.64898,7.23669 -4.35526,2.52549 -8.88875,4.78448 -13.43546,6.9335 -4.5026,1.64934 -9.1234,2.95326 -13.69255,4.40841 -4.95057,1.65019 -7.2843,-5.35099 -2.33372,-7.00118 z"
         id="path6572-9"
         style="color:#000000;text-decoration:none;text-decoration-line:none;text-decoration-style:solid;text-decoration-color:#000000;clip-rule:nonzero;display:inline;overflow:visible;visibility:visible;opacity:1;isolation:auto;color-interpolation:sRGB;color-interpolation-filters:linearRGB;fill:#ffffff;fill-opacity:0.68513118;fill-rule:nonzero;stroke:none;stroke-width:0.92400002;stroke-linecap:square;stroke-linejoin:miter;stroke-miterlimit:4;stroke-dasharray:none;stroke-dashoffset:0;stroke-opacity:1;marker:none;color-rendering:auto;image-rendering:auto;shape-rendering:auto;text-rendering:auto;enable-background:accumulate" />
      <path
         inkscape:connector-curvature="0"
         d="m 876.54458,735.23381 c 4.48798,-1.44607 9.05602,-2.66973 13.47409,-4.3175 4.1306,-2.03239 8.29935,-4.06433 12.27626,-6.39393 3.03019,-2.08158 5.91063,-4.38556 8.80011,-6.66082 2.52969,-1.93757 4.78214,-4.12407 6.76248,-6.61262 3.26781,-4.05987 9.00933,0.56151 5.74152,4.62138 l 0,0 c -2.35507,2.90027 -4.96246,5.51805 -7.94375,7.78607 -3.15899,2.48458 -6.29983,5.0152 -9.64898,7.23669 -4.35526,2.52549 -8.88875,4.78448 -13.43546,6.9335 -4.5026,1.64934 -9.1234,2.95326 -13.69255,4.40841 -4.95057,1.65019 -7.2843,-5.35099 -2.33372,-7.00118 z"
         id="path6572-1"
         style="color:#000000;text-decoration:none;text-decoration-line:none;text-decoration-style:solid;text-decoration-color:#000000;clip-rule:nonzero;display:inline;overflow:visible;visibility:visible;opacity:1;isolation:auto;color-interpolation:sRGB;color-interpolation-filters:linearRGB;fill:#ffffff;fill-opacity:0.68513118;fill-rule:nonzero;stroke:none;stroke-width:0.92400002;stroke-linecap:square;stroke-linejoin:miter;stroke-miterlimit:4;stroke-dasharray:none;stroke-dashoffset:0;stroke-opacity:1;marker:none;color-rendering:auto;image-rendering:auto;shape-rendering:auto;text-rendering:auto;enable-background:accumulate" />
      <path
         inkscape:connector-curvature="0"
         d="m 871.00314,789.90903 c 4.48798,-1.44607 9.05602,-2.66973 13.47409,-4.3175 4.1306,-2.03239 8.29935,-4.06433 12.27626,-6.39393 3.03019,-2.08158 5.91063,-4.38556 8.80011,-6.66082 2.52969,-1.93757 4.78214,-4.12407 6.76248,-6.61262 3.26781,-4.05987 9.00933,0.56151 5.74152,4.62138 l 0,0 c -2.35507,2.90027 -4.96246,5.51805 -7.94375,7.78607 -3.15899,2.48458 -6.29983,5.0152 -9.64898,7.23669 -4.35526,2.52549 -8.88875,4.78448 -13.43546,6.9335 -4.5026,1.64934 -9.1234,2.95326 -13.69255,4.40841 -4.95057,1.65019 -7.2843,-5.35099 -2.33372,-7.00118 z"
         id="path6572-91"
         style="color:#000000;text-decoration:none;text-decoration-line:none;text-decoration-style:solid;text-decoration-color:#000000;clip-rule:nonzero;display:inline;overflow:visible;visibility:visible;opacity:1;isolation:auto;color-interpolation:sRGB;color-interpolation-filters:linearRGB;fill:#ffffff;fill-opacity:0.68513118;fill-rule:nonzero;stroke:none;stroke-width:0.92400002;stroke-linecap:square;stroke-linejoin:miter;stroke-miterlimit:4;stroke-dasharray:none;stroke-dashoffset:0;stroke-opacity:1;marker:none;color-rendering:auto;image-rendering:auto;shape-rendering:auto;text-rendering:auto;enable-background:accumulate" />
      <path
         inkscape:connector-curvature="0"
         d="m 865.4617,844.58426 c 4.48798,-1.44607 9.05602,-2.66973 13.47409,-4.3175 4.1306,-2.03239 8.29935,-4.06433 12.27626,-6.39393 3.03019,-2.08158 5.91063,-4.38556 8.80011,-6.66082 2.52969,-1.93757 4.78214,-4.12407 6.76248,-6.61262 3.26781,-4.05987 9.00933,0.56151 5.74152,4.62138 l 0,0 c -2.35507,2.90027 -4.96246,5.51805 -7.94375,7.78607 -3.15899,2.48458 -6.29983,5.0152 -9.64898,7.23669 -4.35526,2.52549 -8.88875,4.78448 -13.43546,6.9335 -4.5026,1.64934 -9.1234,2.95326 -13.69255,4.40841 -4.95057,1.65019 -7.2843,-5.35099 -2.33372,-7.00118 z"
         id="path6572-14"
         style="color:#000000;text-decoration:none;text-decoration-line:none;text-decoration-style:solid;text-decoration-color:#000000;clip-rule:nonzero;display:inline;overflow:visible;visibility:visible;opacity:1;isolation:auto;color-interpolation:sRGB;color-interpolation-filters:linearRGB;fill:#ffffff;fill-opacity:0.68513118;fill-rule:nonzero;stroke:none;stroke-width:0.92400002;stroke-linecap:square;stroke-linejoin:miter;stroke-miterlimit:4;stroke-dasharray:none;stroke-dashoffset:0;stroke-opacity:1;marker:none;color-rendering:auto;image-rendering:auto;shape-rendering:auto;text-rendering:auto;enable-background:accumulate" />
      <path
         transform="translate(0,308.26771)"
         id="path6644"
         d="m 148.38477,99.154297 c -1.61016,0.0835 -3.17081,1.179563 -3.45704,3.441403 -0.5971,4.74597 -1.47149,9.45065 -2.28711,14.16211 -0.99407,4.16367 -2.13825,8.29301 -3.06445,12.47266 -1.27975,5.51195 -2.08893,11.01859 -2.48437,16.66601 -0.85736,6.0306 -1.93251,12.02948 -2.63868,18.08204 -0.41872,5.05523 -0.82947,10.09791 -0.76367,15.17578 -0.20949,4.24733 -0.68742,8.46852 -1.83203,12.58008 -1.84192,6.95675 -3.62751,13.90611 -5.20508,20.92968 -1.99964,8.30298 -4.01925,16.62231 -5.14062,25.09961 -1.28536,7.38314 -2.77023,14.73097 -4.06055,22.11328 -1.25392,6.99258 -3.28468,13.8889 -3.30078,21.04688 -0.32643,4.70041 -1.05574,9.33822 -1.49414,14.02344 -0.44471,4.59396 -1.3508,9.10275 -2.15039,13.64453 -0.93364,4.39823 -2.83734,8.52065 -3.4082,13.00195 -0.63952,4.4924 -0.93652,9.03407 -1.40821,13.54687 -0.0139,5.00032 -0.0378,10.00494 -0.375,14.9961 -0.47321,5.83215 -1.2596,11.62282 -2.6914,17.30664 -0.92989,5.53139 -1.78319,11.01847 -1.39063,16.65234 -3e-4,3.84619 0.005,7.69288 0.0117,11.53907 0.005,4.24816 0.0154,8.49635 -0.0508,12.74414 -0.10504,4.64899 -0.32651,9.296 -0.90234,13.91406 -0.655614,5.22857 -1.456456,10.4365 -1.816411,15.69922 -0.309178,4.02279 -0.151443,8.05424 -0.349609,12.08398 -0.207055,3.24117 -0.622495,6.4568 -1.119141,9.66602 -0.384703,3.95037 -0.222407,7.93446 -0.714843,11.88086 -0.582263,4.80723 -1.671101,9.515 -2.453125,14.28906 0,3.15594 2.696416,4.38961 4.830078,3.72851 3.068251,2.05245 6.166911,4.05598 9.115231,6.28126 3.36799,2.37122 6.944,4.44019 10.66992,6.1914 4.14769,2.02215 8.42101,3.79931 12.74024,5.42383 3.17956,1.21781 6.28616,2.59053 9.38867,3.98828 4.75369,2.14023 7.77908,-4.58243 3.02539,-6.72266 -3.24689,-1.46082 -6.49722,-2.89501 -9.82422,-4.16796 -4.13882,-1.54819 -8.22947,-3.2578 -12.19922,-5.19727 -3.26978,-1.5297 -6.39844,-3.34621 -9.36523,-5.4043 -3.35326,-2.5206 -6.87622,-4.79119 -10.35937,-7.125 0.70801,-3.4416 1.31779,-6.90158 1.74804,-10.39062 0.58777,-3.98096 0.28346,-8.02922 0.73242,-12.01367 0.52673,-3.3013 0.92868,-6.61547 1.14649,-9.95118 0.25226,-3.98585 -0.008,-7.987 0.33594,-11.96484 0.34773,-5.1557 1.13461,-10.25529 1.77734,-15.37695 0.60897,-4.8668 0.85126,-9.76428 0.96289,-14.66406 0.0192,-1.2302 0.0227,-2.46113 0.0312,-3.69141 3.42284,2.36884 6.8599,4.72107 10.30273,7.0625 3.79383,2.77222 8.1602,4.00086 12.74414,4.61719 3.44683,0.0275 6.62444,0.90136 9.77735,2.18359 4.83216,1.96069 7.6056,-4.8733 2.77344,-6.83398 -3.72927,-1.51008 -7.53469,-2.57791 -11.59375,-2.66211 -3.45822,-0.43533 -6.70752,-1.27513 -9.5586,-3.40039 -4.00383,-2.72036 -7.99788,-5.456 -11.97656,-8.20899 -0.81895,-0.65516 -1.65797,-0.93133 -2.44531,-0.95117 -3.5e-4,-0.34511 3.2e-4,-0.69005 0,-1.03516 -0.006,-3.84449 -0.008,-7.69066 -0.0117,-11.53515 -0.40811,-5.23432 0.41886,-10.29318 1.28125,-15.42774 1.4866,-5.88392 2.27185,-11.88859 2.76953,-17.92578 0.35781,-5.18311 0.3863,-10.38117 0.4043,-15.57422 0.5177,-4.15918 0.71094,-8.36394 1.33203,-12.50781 0.67986,-4.28087 2.3802,-8.27041 3.31445,-12.5 0.86596,-4.82051 1.80388,-9.61467 2.28516,-14.49219 0.0925,-0.96417 0.19987,-1.92533 0.30859,-2.88672 3.01406,1.439 6.13758,2.6434 9.21094,3.94922 3.73678,1.67974 7.81568,2.19522 11.48828,4.01953 3.39917,1.94153 7.07388,2.92721 10.92383,3.41993 2.23635,0.30238 4.50166,0.13212 6.72851,0.4746 5.17009,0.69187 6.14862,-6.62063 0.97852,-7.3125 -2.26194,-0.27615 -4.52477,-0.28719 -6.79492,-0.48046 -3.06244,-0.36768 -5.93342,-1.16245 -8.62305,-2.73828 -3.82149,-1.8162 -7.90083,-2.62837 -11.82227,-4.16797 -3.76336,-1.59374 -7.60573,-3.02649 -11.19921,-4.99219 0.11905,-1.16811 0.22666,-2.33965 0.30859,-3.51367 0.0128,-6.89013 1.98143,-13.52493 3.19531,-20.25586 1.29375,-7.39553 2.77616,-14.75587 4.06446,-22.15235 1.09015,-8.32315 3.07857,-16.48927 5.04492,-24.63867 1.56262,-6.97052 3.33726,-13.86436 5.17187,-20.76562 1.28133,-4.60723 1.83266,-9.33768 2.07617,-14.09766 -0.069,-4.99999 0.33135,-9.96194 0.74219,-14.93945 0.71117,-5.9059 1.74806,-11.76331 2.58789,-17.65039 0.38589,-5.44078 1.13426,-10.73065 2.3711,-16.03711 0.92954,-4.16327 2.06118,-8.27748 3.05468,-12.42578 0.67433,-3.78262 1.35942,-7.56632 1.92969,-11.36719 3.2309,1.33257 6.65458,2.12259 9.86914,3.49414 2.31038,0.97944 1.13909,0.50665 3.50977,1.41406 4.87299,1.85678 7.49994,-5.03385 2.62695,-6.89062 -2.12898,-0.80692 -1.03244,-0.37026 -3.28516,-1.32422 -3.77704,-1.5632 -7.76689,-2.50404 -11.50586,-4.177736 -0.99289,-0.330968 -1.87247,-0.302854 -2.61718,-0.05078 -0.60049,-0.306591 -1.27889,-0.45088 -1.95117,-0.416015 z"
         style="color:#000000;text-decoration:none;text-decoration-line:none;text-decoration-style:solid;text-decoration-color:#000000;clip-rule:nonzero;display:inline;overflow:visible;visibility:visible;opacity:1;isolation:auto;color-interpolation:sRGB;color-interpolation-filters:linearRGB;fill:#ffffff;fill-opacity:0.75801751;fill-rule:nonzero;stroke:none;stroke-width:0.92400002;stroke-linecap:square;stroke-linejoin:miter;stroke-miterlimit:4;stroke-dasharray:none;stroke-dashoffset:0;stroke-opacity:1;marker:none;color-rendering:auto;image-rendering:auto;shape-rendering:auto;text-rendering:auto;enable-background:accumulate"
         inkscape:connector-curvature="0" />
      <text
         sodipodi:linespacing="125%"
         id="text6537-8"
         y="625.24481"
         x="176.45303"
         style="color:#000000;font-style:normal;font-variant:normal;font-weight:normal;font-stretch:normal;font-size:30.96792984px;line-height:125%;font-family:Lato;-inkscape-font-specification:Lato;text-indent:0;text-align:start;text-decoration:none;text-decoration-line:none;letter-spacing:0px;word-spacing:0px;text-transform:none;direction:ltr;block-progression:tb;writing-mode:lr-tb;baseline-shift:baseline;text-anchor:start;display:inline;overflow:visible;visibility:visible;fill:#ffffff;fill-opacity:1;fill-rule:nonzero;stroke:none;stroke-width:1px;stroke-linecap:butt;stroke-linejoin:miter;stroke-opacity:1;marker:none;enable-background:accumulate"
         xml:space="preserve"><tspan
           style="font-style:normal;font-variant:normal;font-weight:normal;font-stretch:normal;font-size:30.96750069px;line-height:125%;font-family:'Architects Daughter';-inkscape-font-specification:'Architects Daughter, Normal';text-align:start;writing-mode:lr-tb;text-anchor:start"
           id="tspan6541-4"
           y="625.24481"
           x="176.45303"
           sodipodi:role="line">100</tspan></text>
      <text
         sodipodi:linespacing="125%"
         id="text6537-8-5"
         y="734.43079"
         x="162.29211"
         style="color:#000000;font-style:normal;font-variant:normal;font-weight:normal;font-stretch:normal;font-size:30.96792984px;line-height:125%;font-family:Lato;-inkscape-font-specification:Lato;text-indent:0;text-align:start;text-decoration:none;text-decoration-line:none;letter-spacing:0px;word-spacing:0px;text-transform:none;direction:ltr;block-progression:tb;writing-mode:lr-tb;baseline-shift:baseline;text-anchor:start;display:inline;overflow:visible;visibility:visible;fill:#ffffff;fill-opacity:1;fill-rule:nonzero;stroke:none;stroke-width:1px;stroke-linecap:butt;stroke-linejoin:miter;stroke-opacity:1;marker:none;enable-background:accumulate"
         xml:space="preserve"><tspan
           style="font-style:normal;font-variant:normal;font-weight:normal;font-stretch:normal;font-size:30.96750069px;line-height:125%;font-family:'Architects Daughter';-inkscape-font-specification:'Architects Daughter, Normal';text-align:start;writing-mode:lr-tb;text-anchor:start"
           id="tspan6541-4-1"
           y="734.43079"
           x="162.29211"
           sodipodi:role="line">75</tspan></text>
      <text
         sodipodi:linespacing="125%"
         id="text6537-8-5-1"
         y="826.41162"
         x="163.63786"
         style="color:#000000;font-style:normal;font-variant:normal;font-weight:normal;font-stretch:normal;font-size:30.96792984px;line-height:125%;font-family:Lato;-inkscape-font-specification:Lato;text-indent:0;text-align:start;text-decoration:none;text-decoration-line:none;letter-spacing:0px;word-spacing:0px;text-transform:none;direction:ltr;block-progression:tb;writing-mode:lr-tb;baseline-shift:baseline;text-anchor:start;display:inline;overflow:visible;visibility:visible;fill:#ffffff;fill-opacity:1;fill-rule:nonzero;stroke:none;stroke-width:1px;stroke-linecap:butt;stroke-linejoin:miter;stroke-opacity:1;marker:none;enable-background:accumulate"
         xml:space="preserve"><tspan
           style="font-style:normal;font-variant:normal;font-weight:normal;font-stretch:normal;font-size:30.96750069px;line-height:125%;font-family:'Architects Daughter';-inkscape-font-specification:'Architects Daughter, Normal';text-align:start;writing-mode:lr-tb;text-anchor:start"
           id="tspan6541-4-1-9"
           y="826.41162"
           x="163.63786"
           sodipodi:role="line">50</tspan></text>
      <text
         sodipodi:linespacing="125%"
         id="text6537-8-9"
         y="915.33063"
         x="823.07733"
         style="color:#000000;font-style:normal;font-variant:normal;font-weight:normal;font-stretch:normal;font-size:23.67250824px;line-height:125%;font-family:Lato;-inkscape-font-specification:Lato;text-indent:0;text-align:start;text-decoration:none;text-decoration-line:none;letter-spacing:0px;word-spacing:0px;text-transform:none;direction:ltr;block-progression:tb;writing-mode:lr-tb;baseline-shift:baseline;text-anchor:start;display:inline;overflow:visible;visibility:visible;fill:#ffffff;fill-opacity:1;fill-rule:nonzero;stroke:none;stroke-width:1px;stroke-linecap:butt;stroke-linejoin:miter;stroke-opacity:1;marker:none;enable-background:accumulate"
         xml:space="preserve"><tspan
           style="font-style:normal;font-variant:normal;font-weight:normal;font-stretch:normal;font-size:23.67217827px;line-height:125%;font-family:'Architects Daughter';-inkscape-font-specification:'Architects Daughter, Normal';text-align:start;writing-mode:lr-tb;text-anchor:start"
           id="tspan6541-4-10"
           y="915.33063"
           x="823.07733"
           sodipodi:role="line">10</tspan></text>
      <text
         sodipodi:linespacing="125%"
         id="text6537-8-9-9"
         y="860.6554"
         x="817.80591"
         style="color:#000000;font-style:normal;font-variant:normal;font-weight:normal;font-stretch:normal;font-size:23.67250824px;line-height:125%;font-family:Lato;-inkscape-font-specification:Lato;text-indent:0;text-align:start;text-decoration:none;text-decoration-line:none;letter-spacing:0px;word-spacing:0px;text-transform:none;direction:ltr;block-progression:tb;writing-mode:lr-tb;baseline-shift:baseline;text-anchor:start;display:inline;overflow:visible;visibility:visible;fill:#ffffff;fill-opacity:1;fill-rule:nonzero;stroke:none;stroke-width:1px;stroke-linecap:butt;stroke-linejoin:miter;stroke-opacity:1;marker:none;enable-background:accumulate"
         xml:space="preserve"><tspan
           style="font-style:normal;font-variant:normal;font-weight:normal;font-stretch:normal;font-size:23.67217827px;line-height:125%;font-family:'Architects Daughter';-inkscape-font-specification:'Architects Daughter, Normal';text-align:start;writing-mode:lr-tb;text-anchor:start"
           id="tspan6541-4-10-2"
           y="860.6554"
           x="817.80591"
           sodipodi:role="line">20</tspan></text>
      <text
         sodipodi:linespacing="125%"
         id="text6537-8-9-9-6"
         y="805.96167"
         x="823.21246"
         style="color:#000000;font-style:normal;font-variant:normal;font-weight:normal;font-stretch:normal;font-size:23.67250824px;line-height:125%;font-family:Lato;-inkscape-font-specification:Lato;text-indent:0;text-align:start;text-decoration:none;text-decoration-line:none;letter-spacing:0px;word-spacing:0px;text-transform:none;direction:ltr;block-progression:tb;writing-mode:lr-tb;baseline-shift:baseline;text-anchor:start;display:inline;overflow:visible;visibility:visible;fill:#ffffff;fill-opacity:1;fill-rule:nonzero;stroke:none;stroke-width:1px;stroke-linecap:butt;stroke-linejoin:miter;stroke-opacity:1;marker:none;enable-background:accumulate"
         xml:space="preserve"><tspan
           style="font-style:normal;font-variant:normal;font-weight:normal;font-stretch:normal;font-size:23.67217827px;line-height:125%;font-family:'Architects Daughter';-inkscape-font-specification:'Architects Daughter, Normal';text-align:start;writing-mode:lr-tb;text-anchor:start"
           id="tspan6541-4-10-2-0"
           y="805.96167"
           x="823.21246"
           sodipodi:role="line">30</tspan></text>
      <text
         sodipodi:linespacing="125%"
         id="text6537-8-9-9-2"
         y="750.91656"
         x="821.7348"
         style="color:#000000;font-style:normal;font-variant:normal;font-weight:normal;font-stretch:normal;font-size:23.67250824px;line-height:125%;font-family:Lato;-inkscape-font-specification:Lato;text-indent:0;text-align:start;text-decoration:none;text-decoration-line:none;letter-spacing:0px;word-spacing:0px;text-transform:none;direction:ltr;block-progression:tb;writing-mode:lr-tb;baseline-shift:baseline;text-anchor:start;display:inline;overflow:visible;visibility:visible;fill:#ffffff;fill-opacity:1;fill-rule:nonzero;stroke:none;stroke-width:1px;stroke-linecap:butt;stroke-linejoin:miter;stroke-opacity:1;marker:none;enable-background:accumulate"
         xml:space="preserve"><tspan
           style="font-style:normal;font-variant:normal;font-weight:normal;font-stretch:normal;font-size:23.67217827px;line-height:125%;font-family:'Architects Daughter';-inkscape-font-specification:'Architects Daughter, Normal';text-align:start;writing-mode:lr-tb;text-anchor:start"
           id="tspan6541-4-10-2-7"
           y="750.91656"
           x="821.7348"
           sodipodi:role="line">40</tspan></text>
      <text
         sodipodi:linespacing="125%"
         id="text6537-8-9-9-1"
         y="696.6297"
         x="823.21246"
         style="color:#000000;font-style:normal;font-variant:normal;font-weight:normal;font-stretch:normal;font-size:23.67250824px;line-height:125%;font-family:Lato;-inkscape-font-specification:Lato;text-indent:0;text-align:start;text-decoration:none;text-decoration-line:none;letter-spacing:0px;word-spacing:0px;text-transform:none;direction:ltr;block-progression:tb;writing-mode:lr-tb;baseline-shift:baseline;text-anchor:start;display:inline;overflow:visible;visibility:visible;fill:#ffffff;fill-opacity:1;fill-rule:nonzero;stroke:none;stroke-width:1px;stroke-linecap:butt;stroke-linejoin:miter;stroke-opacity:1;marker:none;enable-background:accumulate"
         xml:space="preserve"><tspan
           style="font-style:normal;font-variant:normal;font-weight:normal;font-stretch:normal;font-size:23.67217827px;line-height:125%;font-family:'Architects Daughter';-inkscape-font-specification:'Architects Daughter, Normal';text-align:start;writing-mode:lr-tb;text-anchor:start"
           id="tspan6541-4-10-2-4"
           y="696.6297"
           x="823.21246"
           sodipodi:role="line">50</tspan></text>
    </g>
    <g
       transform="translate(-319.0739,9.3491807)"
       id="layer1-15"
       inkscape:label="Capa 1">
      <g
         id="g6980">
        <path
           d="m 986.30468,568.62914 q 4.11628,-3.04247 7.69565,-6.62183 3.75834,-3.75835 6.26387,-8.41153 0.8949,-1.78968 1.6107,-4.11628 0.8949,-2.50556 3.4005,-2.50556 1.7896,0.17897 2.5055,1.78969 0.8949,1.43175 0,3.04247 -1.4317,4.11628 -5.0111,7.87461 -3.57938,3.57938 -6.62185,6.08493 -1.61071,1.43175 -3.4004,3.40041 -1.78969,1.96865 -3.75834,2.8635 -0.89484,0.71587 -1.78969,0.5369 -0.71587,-0.17897 -1.25278,-0.89485 -0.5369,-0.71587 -0.5369,-1.61071 0,-0.89484 0.89484,-1.43175 z"
           style="color:#000000;font-style:normal;font-variant:normal;font-weight:normal;font-stretch:normal;font-size:190.08735657px;line-height:125%;font-family:'Notera Personal Use Only';-inkscape-font-specification:'Notera Personal Use Only, Normal';text-indent:0;text-align:start;text-decoration:none;text-decoration-line:none;letter-spacing:0px;word-spacing:0px;text-transform:none;direction:ltr;block-progression:tb;writing-mode:lr-tb;baseline-shift:baseline;text-anchor:start;visibility:visible;fill:#000000;fill-opacity:1;fill-rule:nonzero;stroke:none;stroke-width:1px;stroke-linecap:butt;stroke-linejoin:miter;stroke-opacity:1;marker:none"
           id="path6955"
           inkscape:connector-curvature="0" />
        <path
           d="m 981.82208,587.95775 q 1.25278,-0.71588 4.47421,-2.50556 3.4004,-1.96865 7.33771,-3.93731 4.11628,-1.96865 8.2326,-3.57937 4.1162,-1.78969 7.1587,-1.96866 1.0738,-0.35794 2.1476,0.17897 1.2528,0.35794 1.7897,1.07381 1.0738,1.78968 0.179,2.8635 -0.8949,0.89485 -2.3266,1.61072 -1.4318,0.71587 -3.2214,1.25278 -1.6108,0.35793 -2.1477,1.07381 -0.8948,1.07381 0.358,1.96865 1.4317,0.89485 3.4004,1.43175 1.9686,0.53691 3.9373,1.07381 1.9686,0.35794 2.5055,0.71587 3.5794,1.96866 4.1163,4.29525 0.7159,2.14763 -0.7159,4.47422 l 4.8322,-2.50556 14.3175,-7.51668 q 1.2528,-0.71588 2.1476,0 1.0738,0.5369 1.0738,1.96865 0,1.43175 -1.6107,2.14762 -1.4317,0.53691 -2.6845,1.07382 -4.2953,1.96866 -8.7695,4.29524 -4.2952,2.14763 -8.5905,4.47422 -5.1901,2.50556 -10.0222,4.47421 -4.6532,1.96866 -9.6643,1.96866 -3.5794,0 -6.4429,-2.50556 -2.68452,-2.50556 -2.68452,-5.727 -0.17897,-1.61071 0.71587,-2.50556 0.89484,-1.07381 2.14762,-1.25278 1.25278,-0.35794 2.14763,0.35794 1.07381,0.71587 1.25278,2.32659 0.35793,3.57938 3.04242,4.11628 2.8635,0.71588 6.6219,-0.17897 2.5055,-0.89485 4.4742,-2.14763 2.1476,-1.43174 3.0425,-2.68452 2.3266,-2.50556 1.2527,-3.93731 -1.0738,-1.43175 -3.7583,-2.3266 -2.5056,-0.89483 -5.3691,-1.43174 -2.8635,-0.71587 -3.9373,-1.61072 -1.6107,-1.43175 -1.9686,-2.8635 -0.179,-1.43175 0.1789,-2.8635 -2.68448,1.07382 -5.36901,2.3266 -2.50556,1.07381 -4.65318,1.96865 -1.61072,0.89485 -3.93731,2.68453 -2.14763,1.61072 -3.93731,1.61072 -0.89484,0.17896 -1.43175,-0.17897 -0.71587,-0.5369 -0.71587,-1.07381 -0.17897,-0.71587 0.17896,-1.43175 0.17897,-0.71587 0.89485,-1.07381 z"
           style="color:#000000;font-style:normal;font-variant:normal;font-weight:normal;font-stretch:normal;font-size:190.08735657px;line-height:125%;font-family:'Notera Personal Use Only';-inkscape-font-specification:'Notera Personal Use Only, Normal';text-indent:0;text-align:start;text-decoration:none;text-decoration-line:none;letter-spacing:0px;word-spacing:0px;text-transform:none;direction:ltr;block-progression:tb;writing-mode:lr-tb;baseline-shift:baseline;text-anchor:start;visibility:visible;fill:#000000;fill-opacity:1;fill-rule:nonzero;stroke:none;stroke-width:1px;stroke-linecap:butt;stroke-linejoin:miter;stroke-opacity:1;marker:none"
           id="path6957"
           inkscape:connector-curvature="0" />
        <g
           style="fill:#000000;stroke:none"
           transform="matrix(0.83802933,0,0,0.83802933,434.03665,89.460564)"
           id="layer1-1"
           inkscape:label="Capa 1">
          <g
             transform="matrix(1.2227287,0,0,1.2227287,-106.1243,-131.23709)"
             id="text33400-8-0"
             style="color:#000000;font-style:normal;font-variant:normal;font-weight:normal;font-stretch:normal;font-size:174.5438385px;line-height:125%;font-family:Lato;-inkscape-font-specification:Lato;text-indent:0;text-align:start;text-decoration:none;text-decoration-line:none;letter-spacing:0px;word-spacing:0px;text-transform:none;direction:ltr;block-progression:tb;writing-mode:lr-tb;baseline-shift:baseline;text-anchor:start;display:inline;overflow:visible;visibility:visible;fill:#000000;fill-opacity:1;fill-rule:nonzero;stroke:none;stroke-width:1px;stroke-linecap:butt;stroke-linejoin:miter;stroke-opacity:1;marker:none;enable-background:accumulate">
            <path
               sodipodi:nodetypes="ccsccccccccscccsccsccsscccccccccccc"
               inkscape:connector-curvature="0"
               id="path20973-4"
               style="font-style:normal;font-variant:normal;font-weight:normal;font-stretch:normal;font-family:'Notera Personal Use Only';-inkscape-font-specification:'Notera Personal Use Only';fill:#000000;stroke:none"
               d="m 354.51023,585.0366 c 0.46545,-0.23273 1.51272,-0.69818 3.14179,-1.39635 1.74544,-0.69817 3.4327,-1.2218 5.06177,-1.57089 1.62908,-0.34909 3.02543,-0.34909 4.18905,0 1.16363,0.23272 1.5709,1.27998 1.22181,3.14179 -0.23273,1.04726 -0.75636,2.09452 -1.57089,3.14178 -0.69818,1.04727 -1.22181,2.09453 -1.5709,3.14179 -0.69817,1.51271 -1.39635,3.37452 -2.09452,5.58541 -0.58181,2.21089 -0.34909,4.01451 0.69817,5.41086 1.97817,0.23272 4.13087,-10e-6 6.45812,-0.69818 2.44361,-0.69817 4.6545,-1.39635 6.63267,-2.09453 0.58181,-0.23272 1.68726,-0.81453 3.31633,-1.74543 1.62908,-0.9309 3.31634,-1.80362 5.06177,-2.61816 1.8618,-0.9309 3.54906,-1.57089 5.06177,-1.91998 1.51271,-0.46545 2.44362,-0.34909 2.79271,0.34908 0.46545,0.81454 0.17454,1.68726 -0.87272,2.61816 -1.04727,0.9309 -2.38544,1.80362 -4.01451,2.61816 -1.51271,0.69817 -3.08361,1.39635 -4.71269,2.09452 -1.62907,0.58181 -2.67633,0.98908 -3.14178,1.22181 -2.55998,1.27999 -5.17814,2.55998 -7.85448,3.83997 -2.55997,1.16362 -5.23631,1.97816 -8.02901,2.44361 -2.44361,0.34909 -4.13087,-0.17454 -5.06178,-1.57089 -0.9309,-1.39635 -1.39635,-3.14179 -1.39635,-5.23632 0,-2.21089 0.29091,-4.53814 0.87272,-6.98175 0.69818,-2.55998 1.39636,-4.88723 2.09453,-6.98176 -2.67634,1.04727 -5.2945,2.03635 -7.85447,2.96725 -2.55998,0.81454 -5.06178,1.80362 -7.50539,2.96724 -2.09453,0.9309 -4.18905,1.97816 -6.28358,3.14179 -1.27999,0.34909 -2.26907,0.0582 -2.96724,-0.87272 -0.81454,-1.04726 -0.52363,-1.91998 0.87272,-2.61815 z m 20.42163,-35.25785 c 0.58181,-1.51271 1.45453,-2.7927 2.61816,-3.83997 5.45905,-2.23748 3.30064,10.16369 -1.39635,7.33084 -1.27999,-0.9309 -1.68726,-2.09452 -1.22181,-3.49087 z" />
            <path
               inkscape:connector-curvature="0"
               id="path20975-4"
               style="font-style:normal;font-variant:normal;font-weight:normal;font-stretch:normal;font-family:'Notera Personal Use Only';-inkscape-font-specification:'Notera Personal Use Only';fill:#000000;stroke:none"
               d="m 390.23717,593.41471 q 4.53814,-1.39635 8.90174,-3.31634 4.36359,-2.09452 8.72719,-4.01451 1.04726,-0.52363 3.14179,-1.91998 2.26907,-1.57089 4.53814,-2.7927 2.26907,-1.22181 4.18905,-1.57089 2.09453,-0.52363 3.14179,1.04726 0.87272,1.39635 0.17454,2.7927 -0.52363,1.22181 -1.74544,2.61816 -1.2218,1.22181 -2.61815,2.44361 -1.39635,1.04727 -2.09453,1.74544 -2.61816,2.61816 -5.06177,5.75995 -2.44361,3.14179 -2.44361,6.63266 3.14178,0 6.63266,-1.57089 3.49088,-1.5709 6.10904,-2.61816 8.3781,-3.83996 16.58166,-8.72719 4.53814,-2.7927 8.20356,-5.5854 1.5709,-1.04727 3.14179,0 1.74544,1.04726 1.39635,3.14179 -0.34909,1.57089 -1.57089,3.14178 -1.04727,1.39636 -1.91999,2.96725 -0.87272,1.39635 -1.74543,3.83996 -0.69818,2.44362 0,4.3636 1.91998,1.04726 4.71268,0.34909 2.7927,-0.87272 4.53814,-1.39635 7.50538,-2.61816 13.96351,-5.93449 1.2218,-0.52363 2.96724,-1.39635 1.91998,-1.04727 2.7927,0.69817 0.87272,1.5709 -0.34908,2.44362 -1.04727,0.69817 -2.26907,1.2218 l -11.5199,5.41086 q -3.66542,1.5709 -8.02901,3.66542 -4.3636,1.91998 -8.7272,0.87272 -3.14179,-0.87272 -3.66542,-3.49088 -0.34908,-2.7927 0.52363,-5.23631 l 2.61816,-6.28358 q -4.53814,2.09453 -8.90173,4.3636 -4.18906,2.26907 -8.7272,4.18905 -1.91998,1.04726 -4.53814,2.61816 -2.61815,1.39635 -5.5854,2.7927 -2.7927,1.2218 -5.5854,1.74544 -2.7927,0.69817 -4.88723,-0.17455 -2.09452,-0.69817 -2.26907,-2.61816 0,-2.09452 1.04726,-4.71268 1.04727,-2.61816 2.96725,-5.5854 1.91998,-2.96725 4.01451,-5.75995 l -4.18905,1.91998 q -7.1563,2.61816 -10.29809,4.01451 -3.14179,1.39635 -4.88723,1.74544 -1.04726,0.34909 -1.57089,-0.17454 -0.69818,-0.52363 -0.87272,-1.22181 -0.34909,-0.69818 0,-1.39635 0.17454,-0.69818 1.04726,-1.04726 z" />
            <path
               inkscape:connector-curvature="0"
               id="path20977-2"
               style="font-style:normal;font-variant:normal;font-weight:normal;font-stretch:normal;font-family:'Notera Personal Use Only';-inkscape-font-specification:'Notera Personal Use Only';fill:#000000;stroke:none"
               d="m 472.04642,593.58925 q 1.91998,-1.04726 6.63267,-3.49088 4.71268,-2.61815 9.59991,-4.88722 5.06177,-2.26907 9.25082,-3.14179 4.18905,-0.87272 5.23632,1.39635 0.69817,1.74544 -0.52364,3.49087 -1.04726,1.5709 -1.57089,2.96725 l -2.09453,4.88723 q 2.26907,-1.39635 4.53814,-2.44362 2.26907,-1.04726 4.53814,-2.09452 5.58541,-2.96725 11.5199,-6.28358 5.93449,-3.31633 12.04352,-5.06177 2.26907,-0.52363 4.01451,0 1.74544,0.34909 2.61816,1.57089 1.04726,1.04726 1.04726,2.96725 0,1.74544 -1.39635,3.83996 -1.57089,2.44362 -3.49088,4.3636 -1.74544,1.91998 -3.66542,4.18905 -0.34909,0.52363 -1.2218,1.39635 -0.87272,0.87272 -1.91999,2.09453 -0.87272,1.04726 -1.74544,2.26907 -0.69817,1.04726 -0.87271,1.91998 1.2218,0.34909 2.96724,0 1.91998,-0.34909 3.66542,-0.87272 1.91998,-0.69818 3.49088,-1.39635 1.74544,-0.69818 2.61816,-1.04726 l 7.15629,-3.14179 q 0.69818,-0.34909 1.74544,-1.04727 1.22181,-0.69817 2.44362,-1.2218 1.2218,-0.69818 2.26907,-1.22181 1.2218,-0.52363 1.91998,-0.52363 1.57089,0 1.57089,1.57089 0,1.5709 -1.39635,2.44362 -1.57089,0.87272 -3.31633,1.74543 -1.74544,0.69818 -3.66542,1.5709 -2.44362,1.39635 -4.71269,2.44361 -2.26907,1.04727 -4.71268,2.26907 -1.39635,0.69818 -4.53814,2.09453 -2.96724,1.22181 -6.10903,1.74544 -2.96725,0.69817 -5.23632,-0.17455 -2.26907,-0.69817 -2.26907,-4.18905 0,-1.74544 0.87272,-3.14179 0.87272,-1.39635 1.91998,-2.61816 1.22181,-1.39635 2.44362,-2.61815 1.39635,-1.22181 2.44361,-2.26907 1.04726,-0.87272 3.49088,-3.66542 2.44361,-2.7927 3.14179,-5.23632 -4.71269,0.52363 -9.59992,2.44362 -4.71268,1.91998 -8.72719,4.0145 -5.06177,2.44362 -10.47263,5.58541 -5.41086,2.96724 -9.42536,7.15629 -0.87272,0.69818 -1.91999,0.87272 -0.87272,0 -1.74544,-0.34908 -0.87271,-0.52364 -1.39635,-1.39636 -0.34908,-0.87271 0,-2.26907 0.52364,-1.57089 2.61816,-2.7927 0.87272,-1.39635 1.74544,-3.14179 0.87272,-1.91998 1.22181,-2.26907 0.34908,-1.2218 0.69817,-2.44361 0.34909,-1.39635 0.52363,-2.7927 -1.91998,0.52363 -3.83996,1.22181 -1.91998,0.69817 -2.96725,1.04726 -2.44361,1.04726 -4.88722,2.09453 -2.44362,0.87271 -4.88723,2.09452 -1.39635,0.69818 -2.61816,1.39635 -1.04726,0.69818 -2.44361,1.22181 -1.04727,0.52363 -2.09453,0.34909 -0.87272,-0.34909 -1.39635,-0.87272 -0.52363,-0.52363 -0.34909,-1.22181 0,-0.87272 1.22181,-1.39635 z" />
            <path
               inkscape:connector-curvature="0"
               id="path20979-3"
               style="font-style:normal;font-variant:normal;font-weight:normal;font-stretch:normal;font-family:'Notera Personal Use Only';-inkscape-font-specification:'Notera Personal Use Only';fill:#000000;stroke:none"
               d="m 551.83477,593.41471 q 3.14179,-1.5709 6.45813,-3.49088 3.49087,-1.91998 6.98175,-3.31633 2.26907,-4.01451 6.45812,-6.45813 4.18905,-2.61815 8.90174,-3.49087 2.44361,-0.34909 5.5854,0 3.31633,0.34909 5.06177,2.61816 1.22181,1.39635 0.52363,2.96724 -0.52363,1.57089 -2.09452,2.96725 -1.39635,1.39635 -3.31634,2.61815 -1.74543,1.04727 -2.61815,1.5709 -3.14179,1.91998 -6.98176,2.96724 -3.66542,0.87272 -7.50538,0.52363 l -0.69818,0 q 0.69818,3.83997 3.14179,5.93449 2.44362,2.09453 5.75995,3.14179 3.31633,0.87272 6.80721,0.69818 3.66542,-0.17454 6.63266,-0.69818 4.18906,-0.87272 8.20357,-2.09452 4.0145,-1.39635 7.85447,-3.14179 1.74544,-0.87272 3.49087,-1.5709 1.91999,-0.87271 3.49088,-1.74543 1.22181,-0.34909 2.44362,0.34908 1.39635,0.69818 0.34908,2.26907 -0.87272,1.39635 -2.44361,1.91999 -1.5709,0.52363 -2.7927,1.04726 l -8.72719,3.83996 q -8.02902,3.14179 -15.88349,5.23632 -3.49088,0.69817 -7.1563,0.34909 -3.49088,-0.17455 -6.63267,-1.39635 -2.96724,-1.39636 -5.41086,-3.83997 -2.44361,-2.44361 -3.49087,-6.28358 -0.34909,-1.39635 -0.69818,-2.7927 -0.17454,-1.39635 0.17455,-2.61816 -1.91999,0.87272 -3.83997,2.09453 -1.74544,1.04726 -3.14179,1.91998 -0.87272,0.34909 -2.26907,1.39635 -1.39635,0.87272 -2.7927,0 -1.04726,-0.69817 -0.87272,-1.91998 0,-1.22181 1.04726,-1.57089 z m 17.80348,-4.88723 q 4.18905,-0.17455 8.02901,-2.09453 4.01451,-1.91998 6.98176,-4.88723 -2.44362,-0.87271 -4.88723,-0.52363 -2.26907,0.34909 -4.3636,1.39635 -1.91998,1.04727 -3.49087,2.79271 -1.5709,1.57089 -2.26907,3.31633 z" />
          </g>
        </g>
        <path
           inkscape:connector-curvature="0"
           id="path6948"
           style="color:#000000;font-style:normal;font-variant:normal;font-weight:normal;font-stretch:normal;font-size:medium;line-height:125%;font-family:Sunday;-inkscape-font-specification:Sunday;text-indent:0;text-align:start;text-decoration:none;text-decoration-line:none;letter-spacing:0px;word-spacing:0px;text-transform:none;direction:ltr;block-progression:tb;writing-mode:lr-tb;baseline-shift:baseline;text-anchor:start;visibility:visible;fill:#000000;fill-opacity:1;fill-rule:nonzero;stroke:none;stroke-width:1px;stroke-linecap:butt;stroke-linejoin:miter;stroke-opacity:1;marker:none"
           d="m 905.74215,633.9137 c 0,-2.61716 0.43619,-2.83526 -1.74477,-3.05336 -7.08814,-0.87238 -16.35725,0.87239 -23.00919,0.87239 0,0 -2.39906,0 -2.39906,0 l 0,4.58003 c 2.39906,2.18096 4.58002,2.18096 4.58002,4.36193 2.29002,6.87004 2.29002,15.812 2.29002,22.79109 0,6.65195 0,13.41294 0,20.17394 l 0,2.39906 c 0,11.23197 0,27.04398 -2.29002,38.385 0,4.58003 0,6.76099 -2.18096,9.05101 -2.39906,0 -4.58003,0 -4.58003,2.18096 0,2.39907 2.18097,2.39907 4.58003,4.58003 11.23197,-2.18096 24.75396,0 38.385,-2.18096 2.18096,-2.39907 0,-6.87005 0,-9.05101 0,-6.761 2.18096,-15.92105 -2.18097,-20.39203 0,0 -2.39906,-2.18097 -4.58003,0 l 0,9.051 c 0,4.58003 0,8.94197 0,13.52199 l -2.39906,0 c -2.72621,0.10905 -4.47098,0 -4.47098,0 -2.18096,0 -2.07192,0.10905 -4.36193,0 -2.50811,-0.10904 -2.39906,0 -2.39906,-2.18096 -2.18097,-31.73306 2.39906,-58.88608 2.39906,-88.32912 0,-2.18097 2.18097,-2.18097 4.36193,-6.76099 z" />
        <path
           inkscape:connector-curvature="0"
           id="path6950"
           style="color:#000000;font-style:normal;font-variant:normal;font-weight:normal;font-stretch:normal;font-size:medium;line-height:125%;font-family:Sunday;-inkscape-font-specification:Sunday;text-indent:0;text-align:start;text-decoration:none;text-decoration-line:none;letter-spacing:0px;word-spacing:0px;text-transform:none;direction:ltr;block-progression:tb;writing-mode:lr-tb;baseline-shift:baseline;text-anchor:start;visibility:visible;fill:#000000;fill-opacity:1;fill-rule:nonzero;stroke:none;stroke-width:1px;stroke-linecap:butt;stroke-linejoin:miter;stroke-opacity:1;marker:none"
           d="m 967.06648,730.74858 c -2.39906,0 -6.1067,5.99766 -6.1067,8.39672 0,2.07192 3.70764,1.09048 6.1067,0.87239 4.68908,0 8.61482,-0.65429 13.19485,-0.65429 l 2.83525,0.65429 c 4.79813,-2.29002 0,-4.79813 0,-6.87005 l 0,-13.95818 c -2.07192,-20.50108 -3.1624,-40.89311 -5.34337,-58.99513 -0.43619,-3.70764 -1.30857,-7.96052 -3.48954,-12.32245 0,-4.68908 -4.68908,-13.74009 -9.59625,-16.13915 -4.36193,-2.50811 -9.16006,2.39906 -9.16006,2.39906 -4.58003,6.761 -8.94196,13.74009 -11.34102,23.00919 -2.50811,4.68908 -4.79812,11.45007 -4.79812,18.32012 -2.29002,16.24819 -4.58003,36.74927 -6.761,50.70745 0,2.39906 0,4.68908 -2.39906,4.68908 -2.07192,0 -4.68908,2.07192 -6.87004,4.47098 l 4.79812,4.58003 c 6.65195,-2.50811 13.19484,2.39906 20.17394,-2.39907 0,0 0.32714,-2.18096 0.32714,-4.58002 -2.07192,-2.07192 -4.47098,0 -6.97909,-2.07192 0,-11.88627 0,-23.00919 2.50811,-32.16925 0,-4.90717 0,-9.4872 2.39906,-11.77721 6.761,0 13.74009,2.29001 18.10202,2.29001 2.39906,11.55912 2.39906,27.58922 2.39906,41.5474 z m -11.55912,-85.27577 2.39907,-2.29001 c 2.39906,0 2.39906,2.29001 2.39906,2.29001 2.39906,6.761 4.36193,16.35725 4.36193,23.11824 l 0,13.74009 c -4.36193,0 -11.34102,0 -18.10202,-2.07192 0,-2.61716 2.07192,-9.59625 2.07192,-11.66817 2.29001,-9.16005 4.68908,-16.35724 6.87004,-23.11824 z" />
        <path
           inkscape:connector-curvature="0"
           id="path6952"
           style="color:#000000;font-style:normal;font-variant:normal;font-weight:normal;font-stretch:normal;font-size:medium;line-height:125%;font-family:Sunday;-inkscape-font-specification:Sunday;text-indent:0;text-align:start;text-decoration:none;text-decoration-line:none;letter-spacing:0px;word-spacing:0px;text-transform:none;direction:ltr;block-progression:tb;writing-mode:lr-tb;baseline-shift:baseline;text-anchor:start;visibility:visible;fill:#000000;fill-opacity:1;fill-rule:nonzero;stroke:none;stroke-width:1px;stroke-linecap:butt;stroke-linejoin:miter;stroke-opacity:1;marker:none"
           d="m 1025.484,668.9182 c 4.3619,-4.47098 8.8329,-13.41294 6.6519,-20.06489 0,-6.65194 -2.29,-8.83291 -4.4709,-13.30389 -4.471,-4.47098 -15.5939,-4.47098 -26.7169,-4.47098 -4.47095,0 -8.94193,0 -11.12289,2.18097 0,4.47098 4.47098,4.47098 8.94196,4.47098 0,4.47098 0,11.12292 0,17.77487 l 0,22.3549 c 0,4.36193 0,6.65194 0,11.12292 l 0,4.36194 c -2.29002,13.41294 0,26.71683 -2.29002,37.83975 -2.18096,0 -4.47098,0 -6.65194,0 l 0,2.29002 c 0,4.47098 2.18096,4.47098 6.65194,4.47098 4.47095,0 8.94195,2.18096 13.41295,2.18096 6.6519,0 11.1229,0 15.5939,-2.18096 11.1229,-6.761 17.7749,-24.53587 15.4849,-40.12977 0,-11.12293 -4.362,-19.95584 -8.833,-24.42682 -4.4709,-2.29002 -6.6519,-2.29002 -6.6519,-4.47098 z m -13.4129,-31.18781 c 2.1809,0 6.6519,0 8.9419,2.29001 2.181,4.36193 0,11.12293 -2.29,17.77487 -2.181,2.18097 -4.471,6.65195 -6.6519,4.47098 -2.181,-4.47098 -2.181,-8.94196 -2.181,-15.5939 0,-4.47098 0,-6.65195 2.181,-8.94196 z m 8.9419,91.27342 c -2.29,2.18096 -6.761,2.18096 -11.1229,2.18096 0,-4.36193 0,-11.12292 0,-15.48485 l 0,-35.6588 c 0,-2.18096 0,-6.65194 2.181,-8.94196 4.4709,0 9.9234,2.18097 14.3943,6.65195 0.8724,2.18097 1.7448,4.03479 1.7448,4.03479 0.3272,1.74477 0.1091,2.18096 0.1091,2.18096 2.1809,4.47098 1.5266,5.01622 1.5266,9.37816 0,4.47098 2.29,13.41294 0,17.88392 0,2.18096 0,2.18096 -2.1809,4.47098 0,2.18096 0,6.65194 -2.181,8.83291 l -4.471,4.47098 z" />
      </g>
    </g>
  </g>
</svg>
