<?xml version="1.0" encoding="UTF-8" standalone="no"?>
<!-- Created with Inkscape (http://www.inkscape.org/) -->

<svg
   xmlns:dc="http://purl.org/dc/elements/1.1/"
   xmlns:cc="http://creativecommons.org/ns#"
   xmlns:rdf="http://www.w3.org/1999/02/22-rdf-syntax-ns#"
   xmlns:svg="http://www.w3.org/2000/svg"
   xmlns="http://www.w3.org/2000/svg"
   xmlns:sodipodi="http://sodipodi.sourceforge.net/DTD/sodipodi-0.dtd"
   xmlns:inkscape="http://www.inkscape.org/namespaces/inkscape"
   width="128.44972"
   height="24.073389"
   id="svg2"
   sodipodi:version="0.32"
   inkscape:version="0.91pre1 r13432"
   sodipodi:docname="zero.svg"
   inkscape:output_extension="org.inkscape.output.svg.inkscape"
   version="1.1"
   viewBox="0 0 128.44972 24.073389">
  <defs
     id="defs4" />
  <sodipodi:namedview
     id="base"
     pagecolor="#ffffff"
     bordercolor="#666666"
     borderopacity="1.0"
     inkscape:pageopacity="0.0"
     inkscape:pageshadow="2"
     inkscape:zoom="7.2246166"
     inkscape:cx="63.256825"
     inkscape:cy="8.6581418"
     inkscape:document-units="px"
     inkscape:current-layer="layer1"
     inkscape:window-width="1598"
     inkscape:window-height="879"
     inkscape:window-x="0"
     inkscape:window-y="19"
     showgrid="false"
     fit-margin-top="0"
     fit-margin-left="0"
     fit-margin-right="0"
     fit-margin-bottom="0"
     inkscape:window-maximized="0" />
  <metadata
     id="metadata7">
    <rdf:RDF>
      <cc:Work
         rdf:about="">
        <dc:format>image/svg+xml</dc:format>
        <dc:type
           rdf:resource="http://purl.org/dc/dcmitype/StillImage" />
        <dc:title></dc:title>
      </cc:Work>
    </rdf:RDF>
  </metadata>
  <g
     inkscape:label="Capa 1"
     inkscape:groupmode="layer"
     id="layer1"
     transform="translate(-457.14733,-483.28504)">
    <path
       style="color:#000000;font-style:normal;font-variant:normal;font-weight:normal;font-stretch:normal;font-size:medium;line-height:normal;font-family:sans-serif;text-indent:0;text-align:start;text-decoration:none;text-decoration-line:none;text-decoration-style:solid;text-decoration-color:#000000;letter-spacing:normal;word-spacing:normal;text-transform:none;direction:ltr;block-progression:tb;writing-mode:lr-tb;baseline-shift:baseline;text-anchor:start;clip-rule:nonzero;display:inline;overflow:visible;visibility:visible;opacity:1;isolation:auto;color-interpolation:sRGB;color-interpolation-filters:linearRGB;fill:#ffffff;fill-opacity:1;fill-rule:nonzero;stroke:none;stroke-width:0.24186611;stroke-linecap:butt;stroke-linejoin:miter;stroke-miterlimit:4;stroke-dasharray:none;stroke-dashoffset:0;stroke-opacity:1;color-rendering:auto;image-rendering:auto;shape-rendering:auto;text-rendering:auto;enable-background:accumulate"
       d="m 463.55807,484.1724 0,0.74105 0,21.55762 115.62824,0 0,-22.29867 z m 2.06109,1.92453 11.64366,0 c -0.99647,0.48231 -1.92018,1.11998 -2.76571,1.92635 -2.15727,2.07371 -3.23911,4.529 -3.23911,7.36309 0,2.83479 1.08184,5.26765 3.23911,7.30665 0.87796,0.83002 1.82599,1.48517 2.84036,1.97733 l -11.71831,0 z m 21.57765,0 89.92659,0 0,18.57342 -90.01217,0 c 1.04368,-0.49764 2.02515,-1.15837 2.93322,-2.00282 2.08409,-1.95269 3.1244,-4.37757 3.1244,-7.28116 0,-2.90294 -1.06034,-5.3589 -3.18084,-7.36309 -0.85243,-0.80596 -1.78524,-1.44441 -2.7912,-1.92635 z m -4.96153,0.78474 c 2.48736,0 4.60243,0.82548 6.34893,2.47622 1.74686,1.65104 2.62006,3.66043 2.62006,6.02848 -2e-5,2.38606 -0.85887,4.3657 -2.57818,5.93927 -1.81081,1.69413 -3.93986,2.53994 -6.39081,2.53994 -2.45096,0 -4.56544,-0.83728 -6.33984,-2.51445 -1.77407,-1.67637 -2.66193,-3.66557 -2.66193,-5.96476 0,-2.29984 0.89828,-4.30247 2.69106,-6.01392 1.71894,-1.65942 3.82332,-2.49078 6.31071,-2.49078 z"
       id="rect3749"
       inkscape:connector-curvature="0"
       sodipodi:nodetypes="cccccccccscccccccccsccssscscscs" />
    <path
       inkscape:connector-curvature="0"
       id="path4401"
       style="color:#000000;font-style:normal;font-variant:normal;font-weight:bold;font-stretch:normal;font-size:17.70389938px;line-height:125%;font-family:'Consola Mono';-inkscape-font-specification:'Consola Mono, Bold';text-indent:0;text-align:start;text-decoration:none;text-decoration-line:none;letter-spacing:0px;word-spacing:0px;text-transform:none;direction:ltr;block-progression:tb;writing-mode:lr-tb;baseline-shift:baseline;text-anchor:start;visibility:visible;fill:#ffffff;fill-opacity:1;fill-rule:nonzero;stroke:none;stroke-width:1px;stroke-linecap:butt;stroke-linejoin:miter;stroke-opacity:1;marker:none"
       d="m 482.25639,490.83764 q -0.97683,0 -1.65974,1.15836 -0.63105,1.07192 -0.63105,3.39729 0,0.94224 0.0951,1.67703 l 3.769,-5.22127 q -0.63969,-1.01141 -1.5733,-1.01141 z m 0,11.2119 q -2.46368,0 -3.66526,-2.12655 -0.95954,-1.69431 -0.95954,-4.5297 0,-2.83539 0.95954,-4.52971 1.20158,-2.12654 3.66526,-2.12654 2.48961,0 3.66526,2.13518 0.95954,1.73754 0.95954,4.52107 0,2.76623 -0.95954,4.51242 -1.18429,2.13518 -3.66526,2.14383 z m 2.20434,-8.21226 -3.76899,5.10889 q 0.67427,1.00276 1.56465,1.00276 0.99412,0 1.65974,-1.15836 0.63105,-1.08921 0.63105,-3.39728 0,-0.86445 -0.0865,-1.55601 z" />
    <path
       inkscape:connector-curvature="0"
       id="path4404"
       style="color:#000000;font-style:normal;font-variant:normal;font-weight:bold;font-stretch:semi-condensed;font-size:9.04001141px;line-height:125%;font-family:'DejaVu Sans';-inkscape-font-specification:'DejaVu Sans, Bold Semi-Condensed';text-indent:0;text-align:start;text-decoration:none;text-decoration-line:none;letter-spacing:0px;word-spacing:0px;text-transform:none;direction:ltr;block-progression:tb;writing-mode:lr-tb;baseline-shift:baseline;text-anchor:start;visibility:visible;fill:#ffffff;fill-opacity:1;fill-rule:nonzero;stroke:none;stroke-width:1px;stroke-linecap:butt;stroke-linejoin:miter;stroke-opacity:1;marker:none"
       d="m 499.25126,492.18836 2.53809,0 q 1.13441,0 1.73914,0.56059 0.60473,0.55617 0.60473,1.58906 0,1.03731 -0.60473,1.59789 -0.60473,0.55618 -1.73914,0.55618 l -1.00641,0 0,2.28648 -1.53168,0 0,-6.5902 z m 1.53168,1.23153 0,1.84066 0.84309,0 q 0.44582,0 0.68859,-0.23836 0.24277,-0.24277 0.24277,-0.68418 0,-0.4414 -0.24277,-0.67976 -0.24277,-0.23836 -0.68859,-0.23836 l -0.84309,0 z" />
    <path
       inkscape:connector-curvature="0"
       id="path4406"
       style="color:#000000;font-style:normal;font-variant:normal;font-weight:bold;font-stretch:semi-condensed;font-size:9.04001141px;line-height:125%;font-family:'DejaVu Sans';-inkscape-font-specification:'DejaVu Sans, Bold Semi-Condensed';text-indent:0;text-align:start;text-decoration:none;text-decoration-line:none;letter-spacing:0px;word-spacing:0px;text-transform:none;direction:ltr;block-progression:tb;writing-mode:lr-tb;baseline-shift:baseline;text-anchor:start;visibility:visible;fill:#ffffff;fill-opacity:1;fill-rule:nonzero;stroke:none;stroke-width:1px;stroke-linecap:butt;stroke-linejoin:miter;stroke-opacity:1;marker:none"
       d="m 505.21908,492.18836 1.53168,0 0,3.95059 q 0,0.8166 0.23836,1.16973 0.24277,0.34871 0.7857,0.34871 0.54735,0 0.78571,-0.34871 0.24277,-0.35313 0.24277,-1.16973 l 0,-3.95059 1.53168,0 0,3.95059 q 0,1.39926 -0.63562,2.08344 -0.63122,0.68418 -1.92454,0.68418 -1.29332,0 -1.92453,-0.68418 -0.63121,-0.68418 -0.63121,-2.08344 l 0,-3.95059 z" />
    <path
       inkscape:connector-curvature="0"
       id="path4408"
       style="color:#000000;font-style:normal;font-variant:normal;font-weight:bold;font-stretch:semi-condensed;font-size:9.04001141px;line-height:125%;font-family:'DejaVu Sans';-inkscape-font-specification:'DejaVu Sans, Bold Semi-Condensed';text-indent:0;text-align:start;text-decoration:none;text-decoration-line:none;letter-spacing:0px;word-spacing:0px;text-transform:none;direction:ltr;block-progression:tb;writing-mode:lr-tb;baseline-shift:baseline;text-anchor:start;visibility:visible;fill:#ffffff;fill-opacity:1;fill-rule:nonzero;stroke:none;stroke-width:1px;stroke-linecap:butt;stroke-linejoin:miter;stroke-opacity:1;marker:none"
       d="m 514.19729,494.73969 q 0.36196,0 0.54735,-0.17656 0.1898,-0.17656 0.1898,-0.52086 0,-0.33988 -0.1898,-0.51645 -0.18539,-0.18097 -0.54735,-0.18097 l -0.84309,0 0,1.39484 0.84309,0 z m 0.053,2.88239 q 0.46348,0 0.69301,-0.21629 0.23394,-0.21629 0.23394,-0.65328 0,-0.42817 -0.23394,-0.64004 -0.22953,-0.21629 -0.69301,-0.21629 l -0.89606,0 0,1.7259 0.89606,0 z m 1.42133,-2.37036 q 0.49438,0.15891 0.76363,0.58708 0.26926,0.42816 0.26926,1.05054 0,0.95344 -0.58265,1.42133 -0.57825,0.46789 -1.76122,0.46789 l -2.53809,0 0,-6.5902 2.29532,0 q 1.23594,0 1.7877,0.41492 0.55617,0.41493 0.55617,1.32864 0,0.48113 -0.20305,0.82101 -0.19863,0.33547 -0.58707,0.49879 z" />
    <path
       inkscape:connector-curvature="0"
       id="path4410"
       style="color:#000000;font-style:normal;font-variant:normal;font-weight:bold;font-stretch:semi-condensed;font-size:9.04001141px;line-height:125%;font-family:'DejaVu Sans';-inkscape-font-specification:'DejaVu Sans, Bold Semi-Condensed';text-indent:0;text-align:start;text-decoration:none;text-decoration-line:none;letter-spacing:0px;word-spacing:0px;text-transform:none;direction:ltr;block-progression:tb;writing-mode:lr-tb;baseline-shift:baseline;text-anchor:start;visibility:visible;fill:#ffffff;fill-opacity:1;fill-rule:nonzero;stroke:none;stroke-width:1px;stroke-linecap:butt;stroke-linejoin:miter;stroke-opacity:1;marker:none"
       d="m 518.01987,492.18836 1.53169,0 0,5.30571 2.68375,0 0,1.28449 -4.21544,0 0,-6.5902 z" />
    <path
       inkscape:connector-curvature="0"
       id="path4412"
       style="color:#000000;font-style:normal;font-variant:normal;font-weight:bold;font-stretch:semi-condensed;font-size:9.04001141px;line-height:125%;font-family:'DejaVu Sans';-inkscape-font-specification:'DejaVu Sans, Bold Semi-Condensed';text-indent:0;text-align:start;text-decoration:none;text-decoration-line:none;letter-spacing:0px;word-spacing:0px;text-transform:none;direction:ltr;block-progression:tb;writing-mode:lr-tb;baseline-shift:baseline;text-anchor:start;visibility:visible;fill:#ffffff;fill-opacity:1;fill-rule:nonzero;stroke:none;stroke-width:1px;stroke-linecap:butt;stroke-linejoin:miter;stroke-opacity:1;marker:none"
       d="m 523.21082,492.18836 1.53168,0 0,6.5902 -1.53168,0 0,-6.5902 z" />
    <path
       inkscape:connector-curvature="0"
       id="path4414"
       style="color:#000000;font-style:normal;font-variant:normal;font-weight:bold;font-stretch:semi-condensed;font-size:9.04001141px;line-height:125%;font-family:'DejaVu Sans';-inkscape-font-specification:'DejaVu Sans, Bold Semi-Condensed';text-indent:0;text-align:start;text-decoration:none;text-decoration-line:none;letter-spacing:0px;word-spacing:0px;text-transform:none;direction:ltr;block-progression:tb;writing-mode:lr-tb;baseline-shift:baseline;text-anchor:start;visibility:visible;fill:#ffffff;fill-opacity:1;fill-rule:nonzero;stroke:none;stroke-width:1px;stroke-linecap:butt;stroke-linejoin:miter;stroke-opacity:1;marker:none"
       d="m 530.93544,498.41661 q -0.42375,0.24277 -0.88282,0.36637 -0.45464,0.12359 -0.94902,0.12359 -1.48313,0 -2.34828,-0.91812 -0.86516,-0.92254 -0.86516,-2.49837 0,-1.58023 0.86516,-2.49836 0.86515,-0.92254 2.34828,-0.92254 0.49438,0 0.94902,0.12359 0.45907,0.1236 0.88282,0.36637 l 0,1.36395 q -0.42817,-0.32223 -0.84309,-0.47231 -0.41051,-0.15007 -0.86516,-0.15007 -0.82101,0 -1.2889,0.58265 -0.4679,0.58266 -0.4679,1.60672 0,1.01965 0.4679,1.60231 0.46789,0.58266 1.2889,0.58266 0.45465,0 0.86516,-0.15008 0.41492,-0.15008 0.84309,-0.47231 l 0,1.36395 z" />
    <path
       inkscape:connector-curvature="0"
       id="path4416"
       style="color:#000000;font-style:normal;font-variant:normal;font-weight:bold;font-stretch:semi-condensed;font-size:9.04001141px;line-height:125%;font-family:'DejaVu Sans';-inkscape-font-specification:'DejaVu Sans, Bold Semi-Condensed';text-indent:0;text-align:start;text-decoration:none;text-decoration-line:none;letter-spacing:0px;word-spacing:0px;text-transform:none;direction:ltr;block-progression:tb;writing-mode:lr-tb;baseline-shift:baseline;text-anchor:start;visibility:visible;fill:#ffffff;fill-opacity:1;fill-rule:nonzero;stroke:none;stroke-width:1px;stroke-linecap:butt;stroke-linejoin:miter;stroke-opacity:1;marker:none"
       d="m 536.55455,493.47285 0,4.02122 0.54734,0 q 0.93578,0 1.43016,-0.51645 0.49437,-0.51644 0.49437,-1.50078 0,-0.97992 -0.49437,-1.49195 -0.48996,-0.51204 -1.43016,-0.51204 l -0.54734,0 z m -1.53169,-1.28449 1.61555,0 q 1.35071,0 2.0084,0.21629 0.66211,0.21188 1.13442,0.72391 0.41934,0.44582 0.62238,1.02848 0.20305,0.58265 0.20305,1.3198 0,0.74598 -0.20305,1.33305 -0.20304,0.58266 -0.62238,1.02848 -0.47672,0.51203 -1.14324,0.72832 -0.66653,0.21187 -1.99958,0.21187 l -1.61555,0 0,-6.5902 z" />
    <path
       inkscape:connector-curvature="0"
       id="path4418"
       style="color:#000000;font-style:normal;font-variant:normal;font-weight:bold;font-stretch:semi-condensed;font-size:9.04001141px;line-height:125%;font-family:'DejaVu Sans';-inkscape-font-specification:'DejaVu Sans, Bold Semi-Condensed';text-indent:0;text-align:start;text-decoration:none;text-decoration-line:none;letter-spacing:0px;word-spacing:0px;text-transform:none;direction:ltr;block-progression:tb;writing-mode:lr-tb;baseline-shift:baseline;text-anchor:start;visibility:visible;fill:#ffffff;fill-opacity:1;fill-rule:nonzero;stroke:none;stroke-width:1px;stroke-linecap:butt;stroke-linejoin:miter;stroke-opacity:1;marker:none"
       d="m 544.49546,493.30071 q -0.69743,0 -1.08586,0.57382 -0.38403,0.57383 -0.38403,1.61555 0,1.03731 0.38403,1.61114 0.38843,0.57383 1.08586,0.57383 0.70183,0 1.08586,-0.57383 0.38844,-0.57383 0.38844,-1.61114 0,-1.04172 -0.38844,-1.61555 -0.38403,-0.57382 -1.08586,-0.57382 z m 0,-1.23153 q 1.43016,0 2.23793,0.9093 0.81219,0.9093 0.81219,2.5116 0,1.5979 -0.81219,2.50719 -0.80777,0.9093 -2.23793,0.9093 -1.42575,0 -2.23794,-0.9093 -0.81218,-0.90929 -0.81218,-2.50719 0,-1.6023 0.81218,-2.5116 0.81219,-0.9093 2.23794,-0.9093 z" />
    <path
       inkscape:connector-curvature="0"
       id="path4420"
       style="color:#000000;font-style:normal;font-variant:normal;font-weight:bold;font-stretch:semi-condensed;font-size:9.04001141px;line-height:125%;font-family:'DejaVu Sans';-inkscape-font-specification:'DejaVu Sans, Bold Semi-Condensed';text-indent:0;text-align:start;text-decoration:none;text-decoration-line:none;letter-spacing:0px;word-spacing:0px;text-transform:none;direction:ltr;block-progression:tb;writing-mode:lr-tb;baseline-shift:baseline;text-anchor:start;visibility:visible;fill:#ffffff;fill-opacity:1;fill-rule:nonzero;stroke:none;stroke-width:1px;stroke-linecap:butt;stroke-linejoin:miter;stroke-opacity:1;marker:none"
       d="m 548.70648,492.18836 1.9466,0 1.35071,3.52684 1.35953,-3.52684 1.94219,0 0,6.5902 -1.44782,0 0,-4.82016 -1.36394,3.55333 -0.9711,0 -1.36395,-3.55333 0,4.82016 -1.45222,0 0,-6.5902 z" />
    <path
       inkscape:connector-curvature="0"
       id="path4422"
       style="color:#000000;font-style:normal;font-variant:normal;font-weight:bold;font-stretch:semi-condensed;font-size:9.04001141px;line-height:125%;font-family:'DejaVu Sans';-inkscape-font-specification:'DejaVu Sans, Bold Semi-Condensed';text-indent:0;text-align:start;text-decoration:none;text-decoration-line:none;letter-spacing:0px;word-spacing:0px;text-transform:none;direction:ltr;block-progression:tb;writing-mode:lr-tb;baseline-shift:baseline;text-anchor:start;visibility:visible;fill:#ffffff;fill-opacity:1;fill-rule:nonzero;stroke:none;stroke-width:1px;stroke-linecap:butt;stroke-linejoin:miter;stroke-opacity:1;marker:none"
       d="m 560.41258,497.57794 -2.39242,0 -0.37961,1.20062 -1.5361,0 2.19821,-6.5902 1.82301,0 2.19821,6.5902 -1.54051,0 -0.37079,-1.20062 z m -2.01281,-1.2227 1.62438,0 -0.80778,-2.62196 -0.8166,2.62196 z" />
    <path
       inkscape:connector-curvature="0"
       id="path4424"
       style="color:#000000;font-style:normal;font-variant:normal;font-weight:bold;font-stretch:semi-condensed;font-size:9.04001141px;line-height:125%;font-family:'DejaVu Sans';-inkscape-font-specification:'DejaVu Sans, Bold Semi-Condensed';text-indent:0;text-align:start;text-decoration:none;text-decoration-line:none;letter-spacing:0px;word-spacing:0px;text-transform:none;direction:ltr;block-progression:tb;writing-mode:lr-tb;baseline-shift:baseline;text-anchor:start;visibility:visible;fill:#ffffff;fill-opacity:1;fill-rule:nonzero;stroke:none;stroke-width:1px;stroke-linecap:butt;stroke-linejoin:miter;stroke-opacity:1;marker:none"
       d="m 563.114,492.18836 1.53168,0 0,6.5902 -1.53168,0 0,-6.5902 z" />
    <path
       inkscape:connector-curvature="0"
       id="path4426"
       style="color:#000000;font-style:normal;font-variant:normal;font-weight:bold;font-stretch:semi-condensed;font-size:9.04001141px;line-height:125%;font-family:'DejaVu Sans';-inkscape-font-specification:'DejaVu Sans, Bold Semi-Condensed';text-indent:0;text-align:start;text-decoration:none;text-decoration-line:none;letter-spacing:0px;word-spacing:0px;text-transform:none;direction:ltr;block-progression:tb;writing-mode:lr-tb;baseline-shift:baseline;text-anchor:start;visibility:visible;fill:#ffffff;fill-opacity:1;fill-rule:nonzero;stroke:none;stroke-width:1px;stroke-linecap:butt;stroke-linejoin:miter;stroke-opacity:1;marker:none"
       d="m 566.13322,492.18836 1.70824,0 2.15848,4.52001 0,-4.52001 1.44781,0 0,6.5902 -1.70824,0 -2.15407,-4.52 0,4.52 -1.45222,0 0,-6.5902 z" />
  </g>
</svg>
